<?xml version="1.0" encoding="UTF-8" standalone="no"?><!DOCTYPE svg PUBLIC "-//W3C//DTD SVG 1.1//EN" "http://www.w3.org/Graphics/SVG/1.1/DTD/svg11.dtd"><svg width="100%" height="100%" viewBox="0 0 281 281" version="1.1" xmlns="http://www.w3.org/2000/svg" xmlns:xlink="http://www.w3.org/1999/xlink" xml:space="preserve" xmlns:serif="http://www.serif.com/" style="fill-rule:evenodd;clip-rule:evenodd;stroke-linejoin:round;stroke-miterlimit:1.41421;"><ellipse cx="140.315" cy="140.315" rx="140.315" ry="140.315" style="fill:#8c000d;"/><path d="M152.672,120.289l-26.417,-25.99c-7.766,-7.766 -7.766,-20.356 0,-28.121c7.765,-7.766 20.355,-7.766 28.121,0l60.079,59.226c7.765,7.505 7.977,19.885 0.472,27.65c-0.155,0.159 -0.313,0.317 -0.472,0.472l-60.504,60.936c-7.765,7.758 -20.35,7.751 -28.107,-0.014c-0.785,-0.786 -1.502,-1.636 -2.145,-2.541c-5.742,-8.318 -4.469,-19.596 2.981,-26.426l22.157,-22.582l0.428,-2.556l-69.454,0c-10.796,0.029 -19.572,-8.7 -19.6,-19.496l0,-0.104l0,-0.427c-0.029,-10.796 8.699,-19.571 19.495,-19.6l72.966,0l0,-0.427Z" style="fill:#ffbe00;fill-rule:nonzero;"/></svg>