<?xml version="1.0" encoding="UTF-8" standalone="no"?><!DOCTYPE svg PUBLIC "-//W3C//DTD SVG 1.1//EN" "http://www.w3.org/Graphics/SVG/1.1/DTD/svg11.dtd"><svg width="100%" height="100%" viewBox="0 0 87 87" version="1.1" xmlns="http://www.w3.org/2000/svg" xmlns:xlink="http://www.w3.org/1999/xlink" xml:space="preserve" xmlns:serif="http://www.serif.com/" style="fill-rule:evenodd;clip-rule:evenodd;stroke-linejoin:round;stroke-miterlimit:1.41421;"><ellipse cx="43.304" cy="43.303" rx="43.304" ry="43.304" style="fill:#8c000d;"/><path d="M30.417,42.874c0.091,-0.943 0.472,-1.835 1.091,-2.554l16.527,-19.281c1.585,-1.979 4.475,-2.298 6.454,-0.713c1.979,1.586 2.298,4.476 0.712,6.455c-0.062,0.077 -0.127,0.153 -0.194,0.226l-13.973,16.297l13.973,16.298c1.711,1.872 1.58,4.776 -0.292,6.486c-1.872,1.711 -4.776,1.58 -6.486,-0.292c-0.067,-0.073 -0.132,-0.149 -0.194,-0.226l-16.527,-19.281c-0.812,-0.944 -1.205,-2.176 -1.091,-3.415" style="fill:#ffbe00;fill-rule:nonzero;"/></svg>