<?xml version="1.0" standalone="no"?>
<!DOCTYPE svg PUBLIC "-//W3C//DTD SVG 1.1//EN" "http://www.w3.org/Graphics/SVG/1.1/DTD/svg11.dtd" >
<svg xmlns="http://www.w3.org/2000/svg" xmlns:xlink="http://www.w3.org/1999/xlink" version="1.1">
<metadata></metadata>
<defs>
<font id="jaldiregular" horiz-adv-x="515" >
<font-face units-per-em="2048" ascent="1638" descent="-410" />
<missing-glyph horiz-adv-x="427" />
<glyph unicode="ff" horiz-adv-x="1155" d="M85 0zM209 6.5q-17 9.5 -17 29.5v766h-71q-36 0 -36 53v22q0 53 36 53h71v169q0 140 69.5 192.5t159.5 52.5q130 0 130 -54q0 -9 -4.5 -29.5t-13 -36.5t-19.5 -16q-6 0 -25 4t-52 4q-30 0 -50.5 -9t-33 -38t-12.5 -84v-155h155q19 0 27.5 -12.5t8.5 -40.5v-22 q0 -28 -8.5 -40.5t-27.5 -12.5h-155v-766q0 -20 -17 -29.5t-53 -9.5h-8q-37 0 -54 9.5zM787 6.5q-17 9.5 -17 29.5v766h-71q-36 0 -36 53v22q0 53 36 53h71v169q0 140 69.5 192.5t159.5 52.5q130 0 130 -54q0 -9 -4.5 -29.5t-13 -36.5t-19.5 -16q-6 0 -25 4t-52 4 q-30 0 -50.5 -9t-33 -38t-12.5 -84v-155h155q19 0 27.5 -12.5t8.5 -40.5v-22q0 -28 -8.5 -40.5t-27.5 -12.5h-155v-766q0 -20 -17 -29.5t-53 -9.5h-8q-37 0 -54 9.5z" />
<glyph unicode="fi" horiz-adv-x="1001" d="M209 6.5q-17 9.5 -17 29.5v766h-71q-36 0 -36 53v22q0 53 36 53h71v169q0 140 69.5 192.5t159.5 52.5q130 0 130 -54q0 -9 -4.5 -29.5t-13 -36.5t-19.5 -16q-6 0 -25 4t-52 4q-30 0 -50.5 -9t-33 -38t-12.5 -84v-155h155q19 0 27.5 -12.5t8.5 -40.5v-22q0 -28 -8.5 -40.5 t-27.5 -12.5h-155v-766q0 -20 -17 -29.5t-53 -9.5h-8q-37 0 -54 9.5zM684 1193v105q0 39 72 39h21q71 0 71 -39v-105q0 -39 -71 -39h-21q-72 0 -72 39zM691 36v858q0 39 72 39h7q71 0 71 -39v-858q0 -39 -71 -39h-7q-72 0 -72 39z" />
<glyph unicode="fl" horiz-adv-x="1051" d="M209 6.5q-17 9.5 -17 29.5v766h-71q-36 0 -36 53v22q0 53 36 53h71v169q0 140 69.5 192.5t159.5 52.5q130 0 130 -54q0 -9 -4.5 -29.5t-13 -36.5t-19.5 -16q-6 0 -25 4t-52 4q-30 0 -50.5 -9t-33 -38t-12.5 -84v-155h155q19 0 27.5 -12.5t8.5 -40.5v-22q0 -28 -8.5 -40.5 t-27.5 -12.5h-155v-766q0 -20 -17 -29.5t-53 -9.5h-8q-37 0 -54 9.5zM746 44q-70 54 -70 191v1063q0 39 71 39h7q72 0 72 -39v-1049q0 -73 25.5 -102t69.5 -29q33 0 52 4t25 4q16 0 26 -32t10 -51q0 -53 -129 -53q-89 0 -159 54z" />
<glyph horiz-adv-x="0" />
<glyph unicode=" "  horiz-adv-x="427" />
<glyph unicode="&#x09;" horiz-adv-x="427" />
<glyph unicode="&#xa0;" horiz-adv-x="427" />
<glyph unicode="A" horiz-adv-x="1090" d="M40 4.5q-18 7.5 -18 22.5q0 7 5 24l421 1169q10 29 71 29h52q61 0 71 -29l421 -1170q5 -11 5 -23q0 -30 -75 -30h-15q-62 0 -72 28l-104 292h-522l-102 -292q-9 -28 -71 -28h-9q-40 0 -58 7.5zM754 452l-186 529q-8 22 -13 50t-9 54h-4q-12 -67 -27 -104l-186 -529h425z " />
<glyph unicode="&#xc1;" horiz-adv-x="1090" d="M22 0zM40 4.5q-18 7.5 -18 22.5q0 7 5 24l421 1169q10 29 71 29h52q61 0 71 -29l421 -1170q5 -11 5 -23q0 -30 -75 -30h-15q-62 0 -72 28l-104 292h-522l-102 -292q-9 -28 -71 -28h-9q-40 0 -58 7.5zM754 452l-186 529q-8 22 -13 50t-9 54h-4q-12 -67 -27 -104l-186 -529 h425zM474 1372q0 12 18 46t86 152q14 24 40.5 35t69.5 11q45 0 65 -5t20 -19q0 -9 -8 -21t-38.5 -47t-77.5 -89l-43 -49q-14 -15 -38 -23t-53 -8q-41 0 -41 17z" />
<glyph unicode="&#x102;" horiz-adv-x="1090" d="M22 0zM40 4.5q-18 7.5 -18 22.5q0 7 5 24l421 1169q10 29 71 29h52q61 0 71 -29l421 -1170q5 -11 5 -23q0 -30 -75 -30h-15q-62 0 -72 28l-104 292h-522l-102 -292q-9 -28 -71 -28h-9q-40 0 -58 7.5zM754 452l-186 529q-8 22 -13 50t-9 54h-4q-12 -67 -27 -104l-186 -529 h425zM422.5 1378q-58.5 23 -95 69t-36.5 111q0 14 6 20.5t20 6.5q15 0 20.5 -5t10.5 -19t8 -20q19 -36 70.5 -53t121.5 -17t120.5 17t69.5 53l9 20q5 14 10.5 19t19.5 5q15 0 21 -6.5t6 -20.5q0 -65 -36.5 -111t-95 -69t-124.5 -23q-67 0 -125.5 23z" />
<glyph unicode="&#x1eae;" horiz-adv-x="1090" d="M498.5 1518q-9.5 4 -9.5 14q0 11 16 44t69 135q26 46 96 46q30 0 42.5 -5t12.5 -18q0 -10 -11.5 -27t-61.5 -84l-59 -78q-23 -31 -63 -31q-22 0 -31.5 4zM423 1377q-59 22 -95.5 63.5t-36.5 98.5q0 27 26 27q12 0 16.5 -4t8.5 -15q8 -18 14 -25q23 -28 77 -51.5 t115 -23.5q62 0 115.5 23t74.5 52q5 7 12 23q5 12 9.5 16.5t17.5 4.5q27 0 27 -27q0 -57 -36.5 -98.5t-95.5 -63.5t-124 -22q-66 0 -125 22zM40 4.5q-18 7.5 -18 22.5q0 7 5 24l421 1169q10 29 71 29h52q61 0 71 -29l421 -1170q5 -11 5 -23q0 -30 -75 -30h-15q-62 0 -72 28 l-104 292h-522l-102 -292q-9 -28 -71 -28h-9q-40 0 -58 7.5zM754 452l-186 529q-8 22 -13 50t-9 54h-4q-12 -67 -27 -104l-186 -529h425z" />
<glyph unicode="&#x1eb6;" horiz-adv-x="1090" d="M22 0zM40 4.5q-18 7.5 -18 22.5q0 7 5 24l421 1169q10 29 71 29h52q61 0 71 -29l421 -1170q5 -11 5 -23q0 -30 -75 -30h-15q-62 0 -72 28l-104 292h-522l-102 -292q-9 -28 -71 -28h-9q-40 0 -58 7.5zM754 452l-186 529q-8 22 -13 50t-9 54h-4q-12 -67 -27 -104l-186 -529 h425zM551 -141zM480 -272v91q0 18 19 29t60 11q71 0 71 -40v-91q0 -38 -78 -38q-72 0 -72 38zM422.5 1378q-58.5 23 -95 69t-36.5 111q0 14 6 20.5t20 6.5q15 0 20.5 -5t10.5 -19t8 -20q19 -36 70.5 -53t121.5 -17t120.5 17t69.5 53l9 20q5 14 10.5 19t19.5 5q15 0 21 -6.5 t6 -20.5q0 -65 -36.5 -111t-95 -69t-124.5 -23q-67 0 -125.5 23z" />
<glyph unicode="&#x1eb0;" horiz-adv-x="1090" d="M548 1522.5q-18 8.5 -28 22.5l-68 105q-32 50 -39 62.5t-7 21.5q0 14 12.5 18.5t49.5 4.5q29 0 54 -11t35 -35q40 -95 53.5 -131t13.5 -48q0 -10 -9.5 -14t-31.5 -4q-17 0 -35 8.5zM423 1377q-59 22 -95.5 63.5t-36.5 98.5q0 27 26 27q12 0 16.5 -4t8.5 -15q8 -18 14 -25 q23 -28 77 -51.5t115 -23.5q62 0 115.5 23t74.5 52q5 7 12 23q5 12 9.5 16.5t17.5 4.5q27 0 27 -27q0 -57 -36.5 -98.5t-95.5 -63.5t-124 -22q-66 0 -125 22zM40 4.5q-18 7.5 -18 22.5q0 7 5 24l421 1169q10 29 71 29h52q61 0 71 -29l421 -1170q5 -11 5 -23q0 -30 -75 -30 h-15q-62 0 -72 28l-104 292h-522l-102 -292q-9 -28 -71 -28h-9q-40 0 -58 7.5zM754 452l-186 529q-8 22 -13 50t-9 54h-4q-12 -67 -27 -104l-186 -529h425z" />
<glyph unicode="&#x1eb2;" horiz-adv-x="1090" d="M508.5 1527q-19.5 11 -19.5 23q0 10 9.5 18t34.5 22q55 31 55 66q0 23 -19 35.5t-46 12.5q-26 0 -42 -5.5t-26.5 -12t-13.5 -6.5q-11 0 -27 22.5t-16 36.5q0 11 21.5 23t54.5 19.5t63 7.5q34 0 69 -12t59.5 -39t24.5 -70q0 -37 -17 -64t-46 -50q-17 -15 -40.5 -26.5 t-32.5 -11.5q-26 0 -45.5 11zM423 1377q-59 22 -95.5 63.5t-36.5 98.5q0 27 26 27q12 0 16.5 -4t8.5 -15q8 -18 14 -25q23 -28 77 -51.5t115 -23.5q62 0 115.5 23t74.5 52q5 7 12 23q5 12 9.5 16.5t17.5 4.5q27 0 27 -27q0 -57 -36.5 -98.5t-95.5 -63.5t-124 -22 q-66 0 -125 22zM40 4.5q-18 7.5 -18 22.5q0 7 5 24l421 1169q10 29 71 29h52q61 0 71 -29l421 -1170q5 -11 5 -23q0 -30 -75 -30h-15q-62 0 -72 28l-104 292h-522l-102 -292q-9 -28 -71 -28h-9q-40 0 -58 7.5zM754 452l-186 529q-8 22 -13 50t-9 54h-4q-12 -67 -27 -104 l-186 -529h425z" />
<glyph unicode="&#x1eb4;" horiz-adv-x="1090" d="M268 1653q-15 7 -15 21q0 12 5 23q25 66 61.5 94.5t88.5 28.5q33 0 68 -10.5t86 -30.5q43 -18 72 -27t54 -9q22 0 38 11.5t33 40.5q8 14 15.5 20t16.5 6q6 0 16 -5l12 -5q11 -4 15.5 -9t4.5 -13q0 -10 -7 -24q-25 -65 -61 -93t-87 -28q-35 0 -69.5 10t-91.5 32 q-46 18 -73.5 26.5t-51.5 8.5q-20 0 -35.5 -12.5t-31.5 -41.5q-8 -14 -15 -20t-15 -6q-4 0 -16 5zM423 1377q-59 22 -95.5 63.5t-36.5 98.5q0 27 26 27q12 0 16.5 -4t8.5 -15q8 -18 14 -25q23 -28 77 -51.5t115 -23.5q62 0 115.5 23t74.5 52q5 7 12 23q5 12 9.5 16.5 t17.5 4.5q27 0 27 -27q0 -57 -36.5 -98.5t-95.5 -63.5t-124 -22q-66 0 -125 22zM40 4.5q-18 7.5 -18 22.5q0 7 5 24l421 1169q10 29 71 29h52q61 0 71 -29l421 -1170q5 -11 5 -23q0 -30 -75 -30h-15q-62 0 -72 28l-104 292h-522l-102 -292q-9 -28 -71 -28h-9q-40 0 -58 7.5z M754 452l-186 529q-8 22 -13 50t-9 54h-4q-12 -67 -27 -104l-186 -529h425z" />
<glyph unicode="&#xc2;" horiz-adv-x="1090" d="M22 0zM40 4.5q-18 7.5 -18 22.5q0 7 5 24l421 1169q10 29 71 29h52q61 0 71 -29l421 -1170q5 -11 5 -23q0 -30 -75 -30h-15q-62 0 -72 28l-104 292h-522l-102 -292q-9 -28 -71 -28h-9q-40 0 -58 7.5zM754 452l-186 529q-8 22 -13 50t-9 54h-4q-12 -67 -27 -104l-186 -529 h425zM331 1363q0 12 11 32l99 156q26 39 82 39h44q57 0 82 -39l102 -156q11 -17 11 -30q0 -27 -43 -27h-4q-17 0 -31 5.5t-28 18.5l-111 131l-109 -131q-24 -24 -60 -24h-4q-41 0 -41 25z" />
<glyph unicode="&#x1ea4;" horiz-adv-x="1090" d="M747.5 1469q-9.5 4 -9.5 14q0 11 16 44t69 135q26 46 96 46q30 0 42.5 -5t12.5 -18q0 -10 -11.5 -27t-61.5 -84l-59 -78q-23 -31 -63 -31q-22 0 -31.5 4zM338 1363q0 12 11 32l99 156q26 39 82 39h44q41 0 65 -39l92 -156q11 -17 11 -30q0 -27 -43 -27h-4q-18 0 -34 6 t-24 18l-85 131l-109 -131q-24 -24 -60 -24h-4q-41 0 -41 25zM40 4.5q-18 7.5 -18 22.5q0 7 5 24l421 1169q10 29 71 29h52q61 0 71 -29l421 -1170q5 -11 5 -23q0 -30 -75 -30h-15q-62 0 -72 28l-104 292h-522l-102 -292q-9 -28 -71 -28h-9q-40 0 -58 7.5zM754 452l-186 529 q-8 22 -13 50t-9 54h-4q-12 -67 -27 -104l-186 -529h425z" />
<glyph unicode="&#x1eac;" horiz-adv-x="1090" d="M22 0zM40 4.5q-18 7.5 -18 22.5q0 7 5 24l421 1169q10 29 71 29h52q61 0 71 -29l421 -1170q5 -11 5 -23q0 -30 -75 -30h-15q-62 0 -72 28l-104 292h-522l-102 -292q-9 -28 -71 -28h-9q-40 0 -58 7.5zM754 452l-186 529q-8 22 -13 50t-9 54h-4q-12 -67 -27 -104l-186 -529 h425zM551 -141zM480 -272v91q0 18 19 29t60 11q71 0 71 -40v-91q0 -38 -78 -38q-72 0 -72 38zM331 1363q0 12 11 32l99 156q26 39 82 39h44q57 0 82 -39l102 -156q11 -17 11 -30q0 -27 -43 -27h-4q-17 0 -31 5.5t-28 18.5l-111 131l-109 -131q-24 -24 -60 -24h-4 q-41 0 -41 25z" />
<glyph unicode="&#x1ea6;" horiz-adv-x="1090" d="M796 1473.5q-18 8.5 -28 22.5l-68 105q-32 50 -39 62.5t-7 21.5q0 14 12.5 18.5t49.5 4.5q29 0 54 -11t35 -35q40 -95 53.5 -131t13.5 -48q0 -10 -9.5 -14t-31.5 -4q-17 0 -35 8.5zM338 1363q0 12 11 32l99 156q26 39 82 39h44q41 0 65 -39l92 -156q11 -17 11 -30 q0 -27 -43 -27h-4q-18 0 -34 6t-24 18l-85 131l-109 -131q-24 -24 -60 -24h-4q-41 0 -41 25zM40 4.5q-18 7.5 -18 22.5q0 7 5 24l421 1169q10 29 71 29h52q61 0 71 -29l421 -1170q5 -11 5 -23q0 -30 -75 -30h-15q-62 0 -72 28l-104 292h-522l-102 -292q-9 -28 -71 -28h-9 q-40 0 -58 7.5zM754 452l-186 529q-8 22 -13 50t-9 54h-4q-12 -67 -27 -104l-186 -529h425z" />
<glyph unicode="&#x1ea8;" horiz-adv-x="1090" d="M757.5 1478q-19.5 11 -19.5 23q0 10 9.5 18t34.5 22q55 31 55 66q0 23 -19 35.5t-46 12.5q-26 0 -42 -5.5t-26.5 -12t-13.5 -6.5q-11 0 -27 22.5t-16 36.5q0 11 21.5 23t54.5 19.5t63 7.5q34 0 69 -12t59.5 -39t24.5 -70q0 -37 -17 -64t-46 -50q-17 -15 -40.5 -26.5 t-32.5 -11.5q-26 0 -45.5 11zM338 1363q0 12 11 32l99 156q26 39 82 39h44q41 0 65 -39l92 -156q11 -17 11 -30q0 -27 -43 -27h-4q-18 0 -34 6t-24 18l-85 131l-109 -131q-24 -24 -60 -24h-4q-41 0 -41 25zM40 4.5q-18 7.5 -18 22.5q0 7 5 24l421 1169q10 29 71 29h52 q61 0 71 -29l421 -1170q5 -11 5 -23q0 -30 -75 -30h-15q-62 0 -72 28l-104 292h-522l-102 -292q-9 -28 -71 -28h-9q-40 0 -58 7.5zM754 452l-186 529q-8 22 -13 50t-9 54h-4q-12 -67 -27 -104l-186 -529h425z" />
<glyph unicode="&#x1eaa;" horiz-adv-x="1090" d="M276 1625q-15 7 -15 21q0 12 5 23q25 66 61.5 94.5t88.5 28.5q33 0 68 -10.5t86 -30.5q43 -18 72 -27t54 -9q22 0 38 11.5t33 40.5q8 14 15.5 20t16.5 6q6 0 16 -5l12 -5q11 -4 15.5 -9t4.5 -13q0 -10 -7 -24q-25 -65 -61 -93t-87 -28q-35 0 -69.5 10t-91.5 32 q-46 18 -73.5 26.5t-51.5 8.5q-20 0 -35.5 -12.5t-31.5 -41.5q-8 -14 -15 -20t-15 -6q-4 0 -16 5zM331 1363q0 12 11 32l99 114q22 20 39.5 29.5t42.5 9.5h44q25 0 44.5 -10t37.5 -29l102 -114q11 -17 11 -30q0 -27 -43 -27h-4q-16 0 -28.5 6t-30.5 18l-111 88l-109 -88 q-29 -24 -60 -24h-4q-41 0 -41 25zM40 4.5q-18 7.5 -18 22.5q0 7 5 24l421 1169q10 29 71 29h52q61 0 71 -29l421 -1170q5 -11 5 -23q0 -30 -75 -30h-15q-62 0 -72 28l-104 292h-522l-102 -292q-9 -28 -71 -28h-9q-40 0 -58 7.5zM754 452l-186 529q-8 22 -13 50t-9 54h-4 q-12 -67 -27 -104l-186 -529h425z" />
<glyph unicode="&#xc4;" horiz-adv-x="1090" d="M22 0zM40 4.5q-18 7.5 -18 22.5q0 7 5 24l421 1169q10 29 71 29h52q61 0 71 -29l421 -1170q5 -11 5 -23q0 -30 -75 -30h-15q-62 0 -72 28l-104 292h-522l-102 -292q-9 -28 -71 -28h-9q-40 0 -58 7.5zM754 452l-186 529q-8 22 -13 50t-9 54h-4q-12 -67 -27 -104l-186 -529 h425zM345 1432v91q0 40 78 40q71 0 71 -40v-91q0 -38 -78 -38q-71 0 -71 38zM601 1432v91q0 40 78 40q71 0 71 -40v-91q0 -38 -78 -38q-71 0 -71 38z" />
<glyph unicode="&#x1ea0;" horiz-adv-x="1090" d="M22 0zM40 4.5q-18 7.5 -18 22.5q0 7 5 24l421 1169q10 29 71 29h52q61 0 71 -29l421 -1170q5 -11 5 -23q0 -30 -75 -30h-15q-62 0 -72 28l-104 292h-522l-102 -292q-9 -28 -71 -28h-9q-40 0 -58 7.5zM754 452l-186 529q-8 22 -13 50t-9 54h-4q-12 -67 -27 -104l-186 -529 h425zM551 -141zM480 -272v91q0 18 19 29t60 11q71 0 71 -40v-91q0 -38 -78 -38q-72 0 -72 38z" />
<glyph unicode="&#xc0;" horiz-adv-x="1090" d="M22 0zM40 4.5q-18 7.5 -18 22.5q0 7 5 24l421 1169q10 29 71 29h52q61 0 71 -29l421 -1170q5 -11 5 -23q0 -30 -75 -30h-15q-62 0 -72 28l-104 292h-522l-102 -292q-9 -28 -71 -28h-9q-40 0 -58 7.5zM754 452l-186 529q-8 22 -13 50t-9 54h-4q-12 -67 -27 -104l-186 -529 h425zM542.5 1363q-23.5 8 -38.5 23l-72 82q-65 74 -80.5 93.5t-15.5 30.5q0 14 20.5 19t65.5 5q43 0 69 -10.5t41 -35.5q65 -113 84 -149.5t19 -48.5q0 -9 -9.5 -13t-31.5 -4q-28 0 -51.5 8z" />
<glyph unicode="&#x1ea2;" horiz-adv-x="1090" d="M22 0zM40 4.5q-18 7.5 -18 22.5q0 7 5 24l421 1169q10 29 71 29h52q61 0 71 -29l421 -1170q5 -11 5 -23q0 -30 -75 -30h-15q-62 0 -72 28l-104 292h-522l-102 -292q-9 -28 -71 -28h-9q-40 0 -58 7.5zM754 452l-186 529q-8 22 -13 50t-9 54h-4q-12 -67 -27 -104l-186 -529 h425zM522 1324.5q-22 9.5 -22 20.5q0 15 10.5 27.5t33.5 31.5q31 25 48.5 48.5t17.5 56.5q0 23 -18.5 35t-47.5 12q-26 0 -42 -5t-26.5 -11t-13.5 -6q-10 0 -26 22.5t-16 35.5q0 12 21.5 25t54 21.5t63.5 8.5q35 0 72 -12t63 -40t26 -73q0 -53 -33 -100t-73.5 -77t-54.5 -30 q-15 0 -37 9.5z" />
<glyph unicode="&#x100;" horiz-adv-x="1090" d="M22 0zM40 4.5q-18 7.5 -18 22.5q0 7 5 24l421 1169q10 29 71 29h52q61 0 71 -29l421 -1170q5 -11 5 -23q0 -30 -75 -30h-15q-62 0 -72 28l-104 292h-522l-102 -292q-9 -28 -71 -28h-9q-40 0 -58 7.5zM754 452l-186 529q-8 22 -13 50t-9 54h-4q-12 -67 -27 -104l-186 -529 h425zM321.5 1415q-8.5 13 -8.5 41v17q0 28 8.5 41t27.5 13h397q18 0 26 -13t8 -41v-17q0 -29 -8 -41.5t-26 -12.5h-397q-19 0 -27.5 13z" />
<glyph unicode="&#x104;" horiz-adv-x="1090" d="M1254 -228q0 -56 -37 -77t-109 -21q-123 0 -166 58.5t-43 122.5q0 39 9 79.5t34 65.5q-29 5 -36 25l-104 292h-522l-102 -292q-9 -28 -71 -28h-9q-40 0 -58 7.5t-18 22.5q0 7 5 24l421 1169q10 29 71 29h52q61 0 71 -29l421 -1170q5 -11 5 -23q0 -18 -29 -25v-4 q0 -13 -9 -40q-13 -46 -13 -69q0 -56 32.5 -73t78.5 -17q14 0 44 8q31 9 48 9q34 0 34 -44zM754 452l-186 529q-8 22 -13 50t-9 54h-4q-12 -67 -27 -104l-186 -529h425z" />
<glyph unicode="&#xc5;" horiz-adv-x="1090" d="M22 0zM40 4.5q-18 7.5 -18 22.5q0 7 5 24l421 1169q10 29 71 29h52q61 0 71 -29l421 -1170q5 -11 5 -23q0 -30 -75 -30h-15q-62 0 -72 28l-104 292h-522l-102 -292q-9 -28 -71 -28h-9q-40 0 -58 7.5zM754 452l-186 529q-8 22 -13 50t-9 54h-4q-12 -67 -27 -104l-186 -529 h425zM470.5 1336.5q-34.5 19.5 -54.5 54t-20 75.5t20 76t54.5 55t75.5 20t75.5 -20t54.5 -55t20 -76t-20 -75.5t-54.5 -54t-75.5 -19.5t-75.5 19.5zM609 1404q26 25 26 62t-26 63t-63 26t-62 -25.5t-25 -63.5q0 -37 25 -62t62 -25t63 25z" />
<glyph unicode="&#x1fa;" horiz-adv-x="1090" d="M475 1479q38 77 66 127q14 25 39.5 35.5t69.5 10.5q46 0 66.5 -5t20.5 -19q0 -5 -9.5 -15.5t-29.5 -29.5q-13 -13 -35 -34t-57 -56q-14 -15 -38 -23.5t-53 -8.5q-40 0 -40 18zM1068 27q0 -30 -75 -30h-15q-62 0 -72 28l-104 292h-522l-102 -292q-9 -28 -71 -28h-9 q-40 0 -58 7.5t-18 22.5q0 7 5 24l401 1114q-32 42 -32 94q0 41 20 75.5t54.5 54.5t75.5 20t75.5 -20t54.5 -54.5t20 -75.5q0 -55 -34 -95l401 -1114q5 -11 5 -23zM484 1322.5q-25 -25.5 -25 -63.5q0 -37 25 -62t62 -25t63 25t26 62t-26 63t-63 26t-62 -25.5zM754 452 l-186 529q-8 22 -13 50t-9 54h-4q-12 -67 -27 -104l-186 -529h425z" />
<glyph unicode="&#xc3;" horiz-adv-x="1090" d="M22 0zM40 4.5q-18 7.5 -18 22.5q0 7 5 24l421 1169q10 29 71 29h52q61 0 71 -29l421 -1170q5 -11 5 -23q0 -30 -75 -30h-15q-62 0 -72 28l-104 292h-522l-102 -292q-9 -28 -71 -28h-9q-40 0 -58 7.5zM754 452l-186 529q-8 22 -13 50t-9 54h-4q-12 -67 -27 -104l-186 -529 h425zM256 1374q-17 7 -17 21q0 12 6 23q28 66 67.5 94.5t96.5 28.5q36 0 74 -10.5t95 -30.5q47 -18 80 -27t60 -9q24 0 41.5 11.5t35.5 40.5q18 26 35 26q6 0 18 -5l14 -5q11 -4 16 -9t5 -13q0 -11 -8 -24q-28 -65 -67.5 -93t-94.5 -28q-38 0 -76.5 10.5t-100.5 31.5 q-49 18 -80 26.5t-57 8.5q-22 0 -39 -12.5t-36 -41.5q-9 -14 -16 -20t-16 -6q-6 0 -18 5z" />
<glyph unicode="&#xc6;" horiz-adv-x="1626" d="M-4.5 4q-15.5 7 -15.5 23q0 12 7 29l571 1140q13 26 31 37t46 11h791q19 0 27 -12.5t8 -40.5v-29q0 -27 -8 -40t-27 -13h-643l89 -405h500q19 0 27.5 -13t8.5 -41v-27q0 -28 -8.5 -40.5t-27.5 -12.5h-473l95 -435h434q36 0 36 -53v-29q0 -53 -36 -53h-510q-28 0 -44 12.5 t-21 38.5l-56 266h-524l-143 -292q-15 -28 -71 -28h-9q-39 0 -54.5 7zM766 450l-113 531l-8 104h-3l-38 -104l-263 -531h425z" />
<glyph unicode="&#x1fc;" horiz-adv-x="1626" d="M0 0zM-4.5 4q-15.5 7 -15.5 23q0 12 7 29l571 1140q13 26 31 37t46 11h791q19 0 27 -12.5t8 -40.5v-29q0 -27 -8 -40t-27 -13h-643l89 -405h500q19 0 27.5 -13t8.5 -41v-27q0 -28 -8.5 -40.5t-27.5 -12.5h-473l95 -435h434q36 0 36 -53v-29q0 -53 -36 -53h-510 q-28 0 -44 12.5t-21 38.5l-56 266h-524l-143 -292q-15 -28 -71 -28h-9q-39 0 -54.5 7zM766 450l-113 531l-8 104h-3l-38 -104l-263 -531h425zM742 1372q0 12 18 46t86 152q14 24 40.5 35t69.5 11q45 0 65 -5t20 -19q0 -9 -8 -21t-38.5 -47t-77.5 -89l-43 -49 q-14 -15 -38 -23t-53 -8q-41 0 -41 17z" />
<glyph unicode="B" horiz-adv-x="1054" d="M185 13q-13 13 -13 40v1138q0 28 13 40.5t41 12.5h318q130 0 219 -39t134 -110t45 -165q0 -58 -27 -115.5t-72 -99t-96 -55.5v-7q0 7 69 -26.5t124.5 -99t55.5 -169.5q0 -358 -464 -358h-306q-28 0 -41 13zM536 708q70 0 126 27.5t87.5 75t31.5 105.5q0 100 -60 146.5 t-192 46.5h-200v-401h207zM589 135q117 0 181 61.5t64 168.5q0 99 -70 153.5t-206 54.5h-229v-438h260z" />
<glyph unicode="C" horiz-adv-x="1101" d="M242 144q-140 154 -140 479q0 633 575 633q84 0 163 -17.5t128 -43.5t49 -50q0 -15 -10.5 -40t-24.5 -44t-25 -19q-5 0 -28 13q-52 28 -109 47t-139 19q-215 0 -316.5 -119.5t-101.5 -380.5q0 -255 100.5 -375.5t310.5 -120.5q88 0 151 21t121 52q28 15 34 15 q11 0 25.5 -19t25.5 -42.5t11 -33.5q0 -25 -50.5 -55.5t-135 -51.5t-182.5 -21q-292 0 -432 154z" />
<glyph unicode="&#x106;" horiz-adv-x="1101" d="M102 0zM242 144q-140 154 -140 479q0 633 575 633q84 0 163 -17.5t128 -43.5t49 -50q0 -15 -10.5 -40t-24.5 -44t-25 -19q-5 0 -28 13q-52 28 -109 47t-139 19q-215 0 -316.5 -119.5t-101.5 -380.5q0 -255 100.5 -375.5t310.5 -120.5q88 0 151 21t121 52q28 15 34 15 q11 0 25.5 -19t25.5 -42.5t11 -33.5q0 -25 -50.5 -55.5t-135 -51.5t-182.5 -21q-292 0 -432 154zM559 1372q0 12 18 46t86 152q14 24 40.5 35t69.5 11q45 0 65 -5t20 -19q0 -9 -8 -21t-38.5 -47t-77.5 -89l-43 -49q-14 -15 -38 -23t-53 -8q-41 0 -41 17z" />
<glyph unicode="&#x10c;" horiz-adv-x="1101" d="M102 0zM242 144q-140 154 -140 479q0 633 575 633q84 0 163 -17.5t128 -43.5t49 -50q0 -15 -10.5 -40t-24.5 -44t-25 -19q-5 0 -28 13q-52 28 -109 47t-139 19q-215 0 -316.5 -119.5t-101.5 -380.5q0 -255 100.5 -375.5t310.5 -120.5q88 0 151 21t121 52q28 15 34 15 q11 0 25.5 -19t25.5 -42.5t11 -33.5q0 -25 -50.5 -55.5t-135 -51.5t-182.5 -21q-292 0 -432 154zM526 1388l-99 156q-10 17 -10 33q0 11 10.5 17.5t30.5 6.5h3q36 0 60 -23l109 -131l111 131q14 12 28 17.5t32 5.5h3q20 0 31.5 -7t11.5 -19q0 -14 -11 -31l-101 -156 q-28 -40 -82 -40h-45q-53 0 -82 40z" />
<glyph unicode="&#xc7;" horiz-adv-x="1101" d="M993 63q-49 -30 -132 -51t-179 -22l-22 -77h7q51 0 101 -27t50 -101q0 -93 -58.5 -126t-145.5 -33q-42 0 -90.5 9.5t-81.5 27t-33 40.5q0 19 8 32.5t26 13.5q9 0 23.5 -5t21.5 -7q29 -11 52.5 -17t49.5 -6q43 0 72.5 12t29.5 49q0 30 -18 43.5t-52 24.5q-24 8 -35.5 15 t-11.5 21q0 11 7 36t24 77q-258 17 -381 171t-123 460q0 633 575 633q84 0 163 -17.5t128 -43.5t49 -50q0 -15 -10.5 -40t-24.5 -44t-25 -19q-5 0 -28 13q-52 28 -109 47t-139 19q-215 0 -316.5 -119.5t-101.5 -380.5q0 -255 100.5 -375.5t310.5 -120.5q88 0 151 21t121 52 q28 15 34 15q11 0 25.5 -19t25.5 -42.5t11 -33.5q0 -25 -49 -55z" />
<glyph unicode="&#x108;" horiz-adv-x="1101" d="M102 0zM242 144q-140 154 -140 479q0 633 575 633q84 0 163 -17.5t128 -43.5t49 -50q0 -15 -10.5 -40t-24.5 -44t-25 -19q-5 0 -28 13q-52 28 -109 47t-139 19q-215 0 -316.5 -119.5t-101.5 -380.5q0 -255 100.5 -375.5t310.5 -120.5q88 0 151 21t121 52q28 15 34 15 q11 0 25.5 -19t25.5 -42.5t11 -33.5q0 -25 -50.5 -55.5t-135 -51.5t-182.5 -21q-292 0 -432 154zM416 1363q0 12 11 32l99 156q26 39 82 39h44q57 0 82 -39l102 -156q11 -17 11 -30q0 -27 -43 -27h-4q-17 0 -31 5.5t-28 18.5l-111 131l-109 -131q-24 -24 -60 -24h-4 q-41 0 -41 25z" />
<glyph unicode="&#x10a;" horiz-adv-x="1101" d="M102 0zM242 144q-140 154 -140 479q0 633 575 633q84 0 163 -17.5t128 -43.5t49 -50q0 -15 -10.5 -40t-24.5 -44t-25 -19q-5 0 -28 13q-52 28 -109 47t-139 19q-215 0 -316.5 -119.5t-101.5 -380.5q0 -255 100.5 -375.5t310.5 -120.5q88 0 151 21t121 52q28 15 34 15 q11 0 25.5 -19t25.5 -42.5t11 -33.5q0 -25 -50.5 -55.5t-135 -51.5t-182.5 -21q-292 0 -432 154zM557 1432v91q0 18 19 29t60 11q71 0 71 -40v-91q0 -38 -78 -38q-72 0 -72 38z" />
<glyph unicode="D" horiz-adv-x="1236" d="M185 13q-13 13 -13 40v1138q0 28 13 40.5t41 12.5h359q250 0 400 -148t150 -473q0 -327 -150 -475t-400 -148h-359q-28 0 -41 13zM573 135q180 0 290 117.5t110 370.5q0 170 -52 278.5t-142 158t-206 49.5h-244v-974h244z" />
<glyph unicode="&#x1f1;" horiz-adv-x="2331" d="M172 0zM185 13q-13 13 -13 40v1138q0 28 13 40.5t41 12.5h359q250 0 400 -148t150 -473q0 -327 -150 -475t-400 -148h-359q-28 0 -41 13zM573 135q180 0 290 117.5t110 370.5q0 170 -52 278.5t-142 158t-206 49.5h-244v-974h244zM1318.5 33.5q-14.5 33.5 -14.5 60.5 q0 14 5 22l729 993h-640q-19 0 -27.5 14.5t-8.5 46.5v14q0 32 8.5 46t27.5 14h814q6 0 15.5 -16t16.5 -38t7 -40q0 -13 -5 -21l-729 -994h695q19 0 27.5 -14t8.5 -46v-14q0 -32 -8.5 -46.5t-27.5 -14.5h-865q-14 0 -28.5 33.5z" />
<glyph unicode="&#x1c4;" horiz-adv-x="2331" d="M172 0zM185 13q-13 13 -13 40v1138q0 28 13 40.5t41 12.5h359q250 0 400 -148t150 -473q0 -327 -150 -475t-400 -148h-359q-28 0 -41 13zM573 135q180 0 290 117.5t110 370.5q0 170 -52 278.5t-142 158t-206 49.5h-244v-974h244zM1318.5 33.5q-14.5 33.5 -14.5 60.5 q0 14 5 22l729 993h-640q-19 0 -27.5 14.5t-8.5 46.5v14q0 32 8.5 46t27.5 14h814q6 0 15.5 -16t16.5 -38t7 -40q0 -13 -5 -21l-729 -994h695q19 0 27.5 -14t8.5 -46v-14q0 -32 -8.5 -46.5t-27.5 -14.5h-865q-14 0 -28.5 33.5zM1679 1388l-99 156q-10 17 -10 33 q0 11 10.5 17.5t30.5 6.5h3q36 0 60 -23l109 -131l111 131q14 12 28 17.5t32 5.5h3q20 0 31.5 -7t11.5 -19q0 -14 -11 -31l-101 -156q-28 -40 -82 -40h-45q-53 0 -82 40z" />
<glyph unicode="&#xd0;" horiz-adv-x="1237" d="M164.5 13q-12.5 13 -12.5 40v517h-116q-19 0 -27.5 12t-8.5 41v27q0 29 8.5 41.5t27.5 12.5h116v487q0 29 12.5 41t40.5 12h382q161 0 284.5 -61.5t196 -200t72.5 -359.5q0 -327 -151.5 -475t-401.5 -148h-382q-28 0 -40.5 13zM575 135q117 0 207 49.5t143 158.5t53 280 q0 170 -53 278.5t-143 158t-207 49.5h-268v-405h196q19 0 27.5 -12.5t8.5 -41.5v-27q0 -29 -8.5 -41t-27.5 -12h-196v-435h268z" />
<glyph unicode="&#x10e;" horiz-adv-x="1236" d="M172 0zM185 13q-13 13 -13 40v1138q0 28 13 40.5t41 12.5h359q250 0 400 -148t150 -473q0 -327 -150 -475t-400 -148h-359q-28 0 -41 13zM573 135q180 0 290 117.5t110 370.5q0 170 -52 278.5t-142 158t-206 49.5h-244v-974h244zM450 1388l-99 156q-10 17 -10 33 q0 11 10.5 17.5t30.5 6.5h3q36 0 60 -23l109 -131l111 131q14 12 28 17.5t32 5.5h3q20 0 31.5 -7t11.5 -19q0 -14 -11 -31l-101 -156q-28 -40 -82 -40h-45q-53 0 -82 40z" />
<glyph unicode="&#x110;" horiz-adv-x="1237" d="M0 0zM164.5 13q-12.5 13 -12.5 40v517h-116q-19 0 -27.5 12t-8.5 41v27q0 29 8.5 41.5t27.5 12.5h116v487q0 29 12.5 41t40.5 12h382q161 0 284.5 -61.5t196 -200t72.5 -359.5q0 -327 -151.5 -475t-401.5 -148h-382q-28 0 -40.5 13zM575 135q117 0 207 49.5t143 158.5 t53 280q0 170 -53 278.5t-143 158t-207 49.5h-268v-405h196q19 0 27.5 -12.5t8.5 -41.5v-27q0 -29 -8.5 -41t-27.5 -12h-196v-435h268z" />
<glyph unicode="&#x1e0c;" horiz-adv-x="1236" d="M172 0zM185 13q-13 13 -13 40v1138q0 28 13 40.5t41 12.5h359q250 0 400 -148t150 -473q0 -327 -150 -475t-400 -148h-359q-28 0 -41 13zM573 135q180 0 290 117.5t110 370.5q0 170 -52 278.5t-142 158t-206 49.5h-244v-974h244zM582 -141zM511 -272v91q0 18 19 29t60 11 q71 0 71 -40v-91q0 -38 -78 -38q-72 0 -72 38z" />
<glyph unicode="&#x1f2;" horiz-adv-x="2106" d="M172 0zM185 13q-13 13 -13 40v1138q0 28 13 40.5t41 12.5h359q250 0 400 -148t150 -473q0 -327 -150 -475t-400 -148h-359q-28 0 -41 13zM573 135q180 0 290 117.5t110 370.5q0 170 -52 278.5t-142 158t-206 49.5h-244v-974h244zM1316 32.5q-14 32.5 -14 58.5q0 10 5 20 l521 691h-455q-19 0 -27 12.5t-8 40.5v22q0 28 8 40.5t27 12.5h624q12 0 24 -33t12 -59q0 -9 -4 -19l-519 -691h489q19 0 27 -12.5t8 -40.5v-22q0 -27 -8 -40t-27 -13h-658q-11 0 -25 32.5z" />
<glyph unicode="&#x1c5;" horiz-adv-x="2106" d="M172 0zM185 13q-13 13 -13 40v1138q0 28 13 40.5t41 12.5h359q250 0 400 -148t150 -473q0 -327 -150 -475t-400 -148h-359q-28 0 -41 13zM573 135q180 0 290 117.5t110 370.5q0 170 -52 278.5t-142 158t-206 49.5h-244v-974h244zM1316 32.5q-14 32.5 -14 58.5q0 10 5 20 l521 691h-455q-19 0 -27 12.5t-8 40.5v22q0 28 8 40.5t27 12.5h624q12 0 24 -33t12 -59q0 -9 -4 -19l-519 -691h489q19 0 27 -12.5t8 -40.5v-22q0 -27 -8 -40t-27 -13h-658q-11 0 -25 32.5zM1566 1074l-99 156q-10 17 -10 33q0 11 10.5 17.5t30.5 6.5h3q36 0 60 -23 l109 -131l111 131q14 12 28 17.5t32 5.5h3q20 0 31.5 -7t11.5 -19q0 -14 -11 -31l-101 -156q-28 -40 -82 -40h-45q-53 0 -82 40z" />
<glyph unicode="E" horiz-adv-x="971" d="M185 13q-13 13 -13 40v1138q0 28 13 40.5t41 12.5h620q19 0 27.5 -12t8.5 -41v-29q0 -27 -8.5 -40t-27.5 -13h-517v-405h464q19 0 27.5 -13t8.5 -41v-27q0 -28 -8.5 -40.5t-27.5 -12.5h-464v-435h519q19 0 27.5 -12.5t8.5 -40.5v-29q0 -27 -8.5 -40t-27.5 -13h-622 q-28 0 -41 13z" />
<glyph unicode="&#xc9;" horiz-adv-x="971" d="M172 0zM185 13q-13 13 -13 40v1138q0 28 13 40.5t41 12.5h620q19 0 27.5 -12t8.5 -41v-29q0 -27 -8.5 -40t-27.5 -13h-517v-405h464q19 0 27.5 -13t8.5 -41v-27q0 -28 -8.5 -40.5t-27.5 -12.5h-464v-435h519q19 0 27.5 -12.5t8.5 -40.5v-29q0 -27 -8.5 -40t-27.5 -13 h-622q-28 0 -41 13zM455 1372q0 12 18 46t86 152q14 24 40.5 35t69.5 11q45 0 65 -5t20 -19q0 -9 -8 -21t-38.5 -47t-77.5 -89l-43 -49q-14 -15 -38 -23t-53 -8q-41 0 -41 17z" />
<glyph unicode="&#x114;" horiz-adv-x="971" d="M172 0zM185 13q-13 13 -13 40v1138q0 28 13 40.5t41 12.5h620q19 0 27.5 -12t8.5 -41v-29q0 -27 -8.5 -40t-27.5 -13h-517v-405h464q19 0 27.5 -13t8.5 -41v-27q0 -28 -8.5 -40.5t-27.5 -12.5h-464v-435h519q19 0 27.5 -12.5t8.5 -40.5v-29q0 -27 -8.5 -40t-27.5 -13 h-622q-28 0 -41 13zM402.5 1378q-58.5 23 -95 69t-36.5 111q0 14 6 20.5t20 6.5q15 0 20.5 -5t10.5 -19t8 -20q19 -36 70.5 -53t121.5 -17t120.5 17t69.5 53l9 20q5 14 10.5 19t19.5 5q15 0 21 -6.5t6 -20.5q0 -65 -36.5 -111t-95 -69t-124.5 -23q-67 0 -125.5 23z" />
<glyph unicode="&#x11a;" horiz-adv-x="971" d="M172 0zM185 13q-13 13 -13 40v1138q0 28 13 40.5t41 12.5h620q19 0 27.5 -12t8.5 -41v-29q0 -27 -8.5 -40t-27.5 -13h-517v-405h464q19 0 27.5 -13t8.5 -41v-27q0 -28 -8.5 -40.5t-27.5 -12.5h-464v-435h519q19 0 27.5 -12.5t8.5 -40.5v-29q0 -27 -8.5 -40t-27.5 -13 h-622q-28 0 -41 13zM421 1388l-99 156q-10 17 -10 33q0 11 10.5 17.5t30.5 6.5h3q36 0 60 -23l109 -131l111 131q14 12 28 17.5t32 5.5h3q20 0 31.5 -7t11.5 -19q0 -14 -11 -31l-101 -156q-28 -40 -82 -40h-45q-53 0 -82 40z" />
<glyph unicode="&#xca;" horiz-adv-x="971" d="M172 0zM185 13q-13 13 -13 40v1138q0 28 13 40.5t41 12.5h620q19 0 27.5 -12t8.5 -41v-29q0 -27 -8.5 -40t-27.5 -13h-517v-405h464q19 0 27.5 -13t8.5 -41v-27q0 -28 -8.5 -40.5t-27.5 -12.5h-464v-435h519q19 0 27.5 -12.5t8.5 -40.5v-29q0 -27 -8.5 -40t-27.5 -13 h-622q-28 0 -41 13zM311 1363q0 12 11 32l99 156q26 39 82 39h44q57 0 82 -39l102 -156q11 -17 11 -30q0 -27 -43 -27h-4q-17 0 -31 5.5t-28 18.5l-111 131l-109 -131q-24 -24 -60 -24h-4q-41 0 -41 25z" />
<glyph unicode="&#x1ebe;" horiz-adv-x="971" d="M727.5 1469q-9.5 4 -9.5 14q0 11 16 44t69 135q26 46 96 46q30 0 42.5 -5t12.5 -18q0 -10 -11.5 -27t-61.5 -84l-59 -78q-23 -31 -63 -31q-22 0 -31.5 4zM318 1363q0 12 11 32l99 156q26 39 82 39h44q41 0 65 -39l92 -156q11 -17 11 -30q0 -27 -43 -27h-4q-18 0 -34 6 t-24 18l-85 131l-109 -131q-24 -24 -60 -24h-4q-41 0 -41 25zM185 13q-13 13 -13 40v1138q0 28 13 40.5t41 12.5h620q19 0 27.5 -12t8.5 -41v-29q0 -27 -8.5 -40t-27.5 -13h-517v-405h464q19 0 27.5 -13t8.5 -41v-27q0 -28 -8.5 -40.5t-27.5 -12.5h-464v-435h519 q19 0 27.5 -12.5t8.5 -40.5v-29q0 -27 -8.5 -40t-27.5 -13h-622q-28 0 -41 13z" />
<glyph unicode="&#x1ec6;" horiz-adv-x="971" d="M172 0zM185 13q-13 13 -13 40v1138q0 28 13 40.5t41 12.5h620q19 0 27.5 -12t8.5 -41v-29q0 -27 -8.5 -40t-27.5 -13h-517v-405h464q19 0 27.5 -13t8.5 -41v-27q0 -28 -8.5 -40.5t-27.5 -12.5h-464v-435h519q19 0 27.5 -12.5t8.5 -40.5v-29q0 -27 -8.5 -40t-27.5 -13 h-622q-28 0 -41 13zM534 -141zM463 -272v91q0 18 19 29t60 11q71 0 71 -40v-91q0 -38 -78 -38q-72 0 -72 38zM311 1363q0 12 11 32l99 156q26 39 82 39h44q57 0 82 -39l102 -156q11 -17 11 -30q0 -27 -43 -27h-4q-17 0 -31 5.5t-28 18.5l-111 131l-109 -131q-24 -24 -60 -24 h-4q-41 0 -41 25z" />
<glyph unicode="&#x1ec0;" horiz-adv-x="971" d="M777 1473.5q-18 8.5 -28 22.5l-68 105q-32 50 -39 62.5t-7 21.5q0 14 12.5 18.5t49.5 4.5q29 0 54 -11t35 -35q40 -95 53.5 -131t13.5 -48q0 -10 -9.5 -14t-31.5 -4q-17 0 -35 8.5zM318 1363q0 12 11 32l99 156q26 39 82 39h44q41 0 65 -39l92 -156q11 -17 11 -30 q0 -27 -43 -27h-4q-18 0 -34 6t-24 18l-85 131l-109 -131q-24 -24 -60 -24h-4q-41 0 -41 25zM185 13q-13 13 -13 40v1138q0 28 13 40.5t41 12.5h620q19 0 27.5 -12t8.5 -41v-29q0 -27 -8.5 -40t-27.5 -13h-517v-405h464q19 0 27.5 -13t8.5 -41v-27q0 -28 -8.5 -40.5 t-27.5 -12.5h-464v-435h519q19 0 27.5 -12.5t8.5 -40.5v-29q0 -27 -8.5 -40t-27.5 -13h-622q-28 0 -41 13z" />
<glyph unicode="&#x1ec2;" horiz-adv-x="971" d="M737.5 1478q-19.5 11 -19.5 23q0 10 9.5 18t34.5 22q55 31 55 66q0 23 -19 35.5t-46 12.5q-26 0 -42 -5.5t-26.5 -12t-13.5 -6.5q-11 0 -27 22.5t-16 36.5q0 11 21.5 23t54.5 19.5t63 7.5q34 0 69 -12t59.5 -39t24.5 -70q0 -37 -17 -64t-46 -50q-17 -15 -40.5 -26.5 t-32.5 -11.5q-26 0 -45.5 11zM318 1363q0 12 11 32l99 156q26 39 82 39h44q41 0 65 -39l92 -156q11 -17 11 -30q0 -27 -43 -27h-4q-18 0 -34 6t-24 18l-85 131l-109 -131q-24 -24 -60 -24h-4q-41 0 -41 25zM185 13q-13 13 -13 40v1138q0 28 13 40.5t41 12.5h620 q19 0 27.5 -12t8.5 -41v-29q0 -27 -8.5 -40t-27.5 -13h-517v-405h464q19 0 27.5 -13t8.5 -41v-27q0 -28 -8.5 -40.5t-27.5 -12.5h-464v-435h519q19 0 27.5 -12.5t8.5 -40.5v-29q0 -27 -8.5 -40t-27.5 -13h-622q-28 0 -41 13z" />
<glyph unicode="&#x1ec4;" horiz-adv-x="971" d="M256 1625q-15 7 -15 21q0 12 5 23q25 66 61.5 94.5t88.5 28.5q33 0 68 -10.5t86 -30.5q43 -18 72 -27t54 -9q22 0 38 11.5t33 40.5q8 14 15.5 20t16.5 6q6 0 16 -5l12 -5q11 -4 15.5 -9t4.5 -13q0 -10 -7 -24q-25 -65 -61 -93t-87 -28q-35 0 -69.5 10t-91.5 32 q-46 18 -73.5 26.5t-51.5 8.5q-20 0 -35.5 -12.5t-31.5 -41.5q-8 -14 -15 -20t-15 -6q-4 0 -16 5zM311 1363q0 12 11 32l99 114q22 20 39.5 29.5t42.5 9.5h44q25 0 44.5 -10t37.5 -29l102 -114q11 -17 11 -30q0 -27 -43 -27h-4q-16 0 -28.5 6t-30.5 18l-111 88l-109 -88 q-29 -24 -60 -24h-4q-41 0 -41 25zM185 13q-13 13 -13 40v1138q0 28 13 40.5t41 12.5h620q19 0 27.5 -12t8.5 -41v-29q0 -27 -8.5 -40t-27.5 -13h-517v-405h464q19 0 27.5 -13t8.5 -41v-27q0 -28 -8.5 -40.5t-27.5 -12.5h-464v-435h519q19 0 27.5 -12.5t8.5 -40.5v-29 q0 -27 -8.5 -40t-27.5 -13h-622q-28 0 -41 13z" />
<glyph unicode="&#xcb;" horiz-adv-x="971" d="M172 0zM185 13q-13 13 -13 40v1138q0 28 13 40.5t41 12.5h620q19 0 27.5 -12t8.5 -41v-29q0 -27 -8.5 -40t-27.5 -13h-517v-405h464q19 0 27.5 -13t8.5 -41v-27q0 -28 -8.5 -40.5t-27.5 -12.5h-464v-435h519q19 0 27.5 -12.5t8.5 -40.5v-29q0 -27 -8.5 -40t-27.5 -13 h-622q-28 0 -41 13zM325 1432v91q0 40 78 40q71 0 71 -40v-91q0 -38 -78 -38q-71 0 -71 38zM581 1432v91q0 40 78 40q71 0 71 -40v-91q0 -38 -78 -38q-71 0 -71 38z" />
<glyph unicode="&#x116;" horiz-adv-x="971" d="M172 0zM185 13q-13 13 -13 40v1138q0 28 13 40.5t41 12.5h620q19 0 27.5 -12t8.5 -41v-29q0 -27 -8.5 -40t-27.5 -13h-517v-405h464q19 0 27.5 -13t8.5 -41v-27q0 -28 -8.5 -40.5t-27.5 -12.5h-464v-435h519q19 0 27.5 -12.5t8.5 -40.5v-29q0 -27 -8.5 -40t-27.5 -13 h-622q-28 0 -41 13zM452 1432v91q0 18 19 29t60 11q71 0 71 -40v-91q0 -38 -78 -38q-72 0 -72 38z" />
<glyph unicode="&#x1eb8;" horiz-adv-x="971" d="M172 0zM185 13q-13 13 -13 40v1138q0 28 13 40.5t41 12.5h620q19 0 27.5 -12t8.5 -41v-29q0 -27 -8.5 -40t-27.5 -13h-517v-405h464q19 0 27.5 -13t8.5 -41v-27q0 -28 -8.5 -40.5t-27.5 -12.5h-464v-435h519q19 0 27.5 -12.5t8.5 -40.5v-29q0 -27 -8.5 -40t-27.5 -13 h-622q-28 0 -41 13zM534 -141zM463 -272v91q0 18 19 29t60 11q71 0 71 -40v-91q0 -38 -78 -38q-72 0 -72 38z" />
<glyph unicode="&#xc8;" horiz-adv-x="971" d="M172 0zM185 13q-13 13 -13 40v1138q0 28 13 40.5t41 12.5h620q19 0 27.5 -12t8.5 -41v-29q0 -27 -8.5 -40t-27.5 -13h-517v-405h464q19 0 27.5 -13t8.5 -41v-27q0 -28 -8.5 -40.5t-27.5 -12.5h-464v-435h519q19 0 27.5 -12.5t8.5 -40.5v-29q0 -27 -8.5 -40t-27.5 -13 h-622q-28 0 -41 13zM523.5 1363q-23.5 8 -38.5 23l-72 82q-65 74 -80.5 93.5t-15.5 30.5q0 14 20.5 19t65.5 5q43 0 69 -10.5t41 -35.5q65 -113 84 -149.5t19 -48.5q0 -9 -9.5 -13t-31.5 -4q-28 0 -51.5 8z" />
<glyph unicode="&#x1eba;" horiz-adv-x="971" d="M172 0zM185 13q-13 13 -13 40v1138q0 28 13 40.5t41 12.5h620q19 0 27.5 -12t8.5 -41v-29q0 -27 -8.5 -40t-27.5 -13h-517v-405h464q19 0 27.5 -13t8.5 -41v-27q0 -28 -8.5 -40.5t-27.5 -12.5h-464v-435h519q19 0 27.5 -12.5t8.5 -40.5v-29q0 -27 -8.5 -40t-27.5 -13 h-622q-28 0 -41 13zM503 1324.5q-22 9.5 -22 20.5q0 15 10.5 27.5t33.5 31.5q31 25 48.5 48.5t17.5 56.5q0 23 -18.5 35t-47.5 12q-26 0 -42 -5t-26.5 -11t-13.5 -6q-10 0 -26 22.5t-16 35.5q0 12 21.5 25t54 21.5t63.5 8.5q35 0 72 -12t63 -40t26 -73q0 -53 -33 -100 t-73.5 -77t-54.5 -30q-15 0 -37 9.5z" />
<glyph unicode="&#x112;" horiz-adv-x="971" d="M172 0zM185 13q-13 13 -13 40v1138q0 28 13 40.5t41 12.5h620q19 0 27.5 -12t8.5 -41v-29q0 -27 -8.5 -40t-27.5 -13h-517v-405h464q19 0 27.5 -13t8.5 -41v-27q0 -28 -8.5 -40.5t-27.5 -12.5h-464v-435h519q19 0 27.5 -12.5t8.5 -40.5v-29q0 -27 -8.5 -40t-27.5 -13 h-622q-28 0 -41 13zM301.5 1415q-8.5 13 -8.5 41v17q0 28 8.5 41t27.5 13h397q18 0 26 -13t8 -41v-17q0 -29 -8 -41.5t-26 -12.5h-397q-19 0 -27.5 13z" />
<glyph unicode="&#x118;" horiz-adv-x="971" d="M1064 -228q0 -56 -37 -77t-109 -21q-123 0 -166 58.5t-43 122.5q0 39 9 79.5t35 65.5h-527q-28 0 -41 13t-13 40v1138q0 28 13 40.5t41 12.5h620q19 0 27.5 -12t8.5 -41v-29q0 -27 -8.5 -40t-27.5 -13h-517v-405h464q19 0 27.5 -13t8.5 -41v-27q0 -28 -8.5 -40.5 t-27.5 -12.5h-464v-435h519q19 0 27.5 -12.5t8.5 -40.5v-29q0 -53 -35 -53v-2q0 -13 -9 -40q-13 -46 -13 -69q0 -56 32.5 -73t78.5 -17q14 0 44 8q31 9 48 9q34 0 34 -44z" />
<glyph unicode="&#x1ebc;" horiz-adv-x="971" d="M172 0zM185 13q-13 13 -13 40v1138q0 28 13 40.5t41 12.5h620q19 0 27.5 -12t8.5 -41v-29q0 -27 -8.5 -40t-27.5 -13h-517v-405h464q19 0 27.5 -13t8.5 -41v-27q0 -28 -8.5 -40.5t-27.5 -12.5h-464v-435h519q19 0 27.5 -12.5t8.5 -40.5v-29q0 -27 -8.5 -40t-27.5 -13 h-622q-28 0 -41 13zM236 1374q-17 7 -17 21q0 12 6 23q28 66 67.5 94.5t96.5 28.5q36 0 74 -10.5t95 -30.5q47 -18 80 -27t60 -9q24 0 41.5 11.5t35.5 40.5q18 26 35 26q6 0 18 -5l14 -5q11 -4 16 -9t5 -13q0 -11 -8 -24q-28 -65 -67.5 -93t-94.5 -28q-38 0 -76.5 10.5 t-100.5 31.5q-49 18 -80 26.5t-57 8.5q-22 0 -39 -12.5t-36 -41.5q-9 -14 -16 -20t-16 -6q-6 0 -18 5z" />
<glyph unicode="F" horiz-adv-x="894" d="M172 36v1155q0 28 13 40.5t41 12.5h560q19 0 27 -12.5t8 -40.5v-29q0 -27 -8 -40t-27 -13h-457v-405h425q18 0 27 -13t9 -41v-27q0 -28 -9 -40.5t-27 -12.5h-425v-534q0 -39 -71 -39h-14q-72 0 -72 39z" />
<glyph unicode="G" horiz-adv-x="1195" d="M242 144.5q-140 154.5 -140 467.5q0 644 575 644q84 0 163 -17.5t128 -43.5t49 -50q0 -15 -10.5 -40t-24.5 -44t-25 -19q-5 0 -28 13q-52 28 -109 47t-139 19q-226 0 -322 -124.5t-96 -368.5q0 -230 89.5 -366.5t309.5 -136.5q67 0 129.5 6.5t99.5 16.5v359h-208 q-19 0 -27.5 12.5t-8.5 40.5v29q0 28 8.5 40.5t27.5 12.5h311q28 0 41 -12.5t13 -40.5v-471q0 -69 -112 -98.5t-286 -29.5q-268 0 -408 154.5z" />
<glyph unicode="&#x11e;" horiz-adv-x="1195" d="M102 0zM242 144.5q-140 154.5 -140 467.5q0 644 575 644q84 0 163 -17.5t128 -43.5t49 -50q0 -15 -10.5 -40t-24.5 -44t-25 -19q-5 0 -28 13q-52 28 -109 47t-139 19q-226 0 -322 -124.5t-96 -368.5q0 -230 89.5 -366.5t309.5 -136.5q67 0 129.5 6.5t99.5 16.5v359h-208 q-19 0 -27.5 12.5t-8.5 40.5v29q0 28 8.5 40.5t27.5 12.5h311q28 0 41 -12.5t13 -40.5v-471q0 -69 -112 -98.5t-286 -29.5q-268 0 -408 154.5zM473.5 1378q-58.5 23 -95 69t-36.5 111q0 14 6 20.5t20 6.5q15 0 20.5 -5t10.5 -19t8 -20q19 -36 70.5 -53t121.5 -17t120.5 17 t69.5 53l9 20q5 14 10.5 19t19.5 5q15 0 21 -6.5t6 -20.5q0 -65 -36.5 -111t-95 -69t-124.5 -23q-67 0 -125.5 23z" />
<glyph unicode="&#x11c;" horiz-adv-x="1195" d="M102 0zM242 144.5q-140 154.5 -140 467.5q0 644 575 644q84 0 163 -17.5t128 -43.5t49 -50q0 -15 -10.5 -40t-24.5 -44t-25 -19q-5 0 -28 13q-52 28 -109 47t-139 19q-226 0 -322 -124.5t-96 -368.5q0 -230 89.5 -366.5t309.5 -136.5q67 0 129.5 6.5t99.5 16.5v359h-208 q-19 0 -27.5 12.5t-8.5 40.5v29q0 28 8.5 40.5t27.5 12.5h311q28 0 41 -12.5t13 -40.5v-471q0 -69 -112 -98.5t-286 -29.5q-268 0 -408 154.5zM382 1363q0 12 11 32l99 156q26 39 82 39h44q57 0 82 -39l102 -156q11 -17 11 -30q0 -27 -43 -27h-4q-17 0 -31 5.5t-28 18.5 l-111 131l-109 -131q-24 -24 -60 -24h-4q-41 0 -41 25z" />
<glyph unicode="&#x122;" horiz-adv-x="1195" d="M102 0zM242 144.5q-140 154.5 -140 467.5q0 644 575 644q84 0 163 -17.5t128 -43.5t49 -50q0 -15 -10.5 -40t-24.5 -44t-25 -19q-5 0 -28 13q-52 28 -109 47t-139 19q-226 0 -322 -124.5t-96 -368.5q0 -230 89.5 -366.5t309.5 -136.5q67 0 129.5 6.5t99.5 16.5v359h-208 q-19 0 -27.5 12.5t-8.5 40.5v29q0 28 8.5 40.5t27.5 12.5h311q28 0 41 -12.5t13 -40.5v-471q0 -69 -112 -98.5t-286 -29.5q-268 0 -408 154.5zM547.5 -412q-15.5 6 -15.5 21q0 10 5 22.5t17 32.5q24 46 38.5 88.5t14.5 99.5q0 26 18.5 41.5t53.5 15.5h16q33 0 52 -13.5 t19 -36.5q0 -79 -32 -142.5t-75.5 -99t-75.5 -35.5q-20 0 -35.5 6z" />
<glyph unicode="&#x120;" horiz-adv-x="1195" d="M102 0zM242 144.5q-140 154.5 -140 467.5q0 644 575 644q84 0 163 -17.5t128 -43.5t49 -50q0 -15 -10.5 -40t-24.5 -44t-25 -19q-5 0 -28 13q-52 28 -109 47t-139 19q-226 0 -322 -124.5t-96 -368.5q0 -230 89.5 -366.5t309.5 -136.5q67 0 129.5 6.5t99.5 16.5v359h-208 q-19 0 -27.5 12.5t-8.5 40.5v29q0 28 8.5 40.5t27.5 12.5h311q28 0 41 -12.5t13 -40.5v-471q0 -69 -112 -98.5t-286 -29.5q-268 0 -408 154.5zM523 1432v91q0 18 19 29t60 11q71 0 71 -40v-91q0 -38 -78 -38q-72 0 -72 38z" />
<glyph unicode="H" horiz-adv-x="1303" d="M172 36v1173q0 40 72 40h14q71 0 71 -40v-503h644v503q0 40 71 40h14q71 0 71 -40v-1173q0 -20 -17 -29.5t-54 -9.5h-14q-37 0 -54 9.5t-17 29.5v535h-644v-535q0 -39 -71 -39h-14q-72 0 -72 39z" />
<glyph unicode="&#x126;" horiz-adv-x="1303" d="M1194.5 985.5q8.5 -12.5 8.5 -40.5v-18q0 -28 -8.5 -40.5t-27.5 -12.5h-38v-838q0 -20 -17 -29.5t-54 -9.5h-14q-37 0 -54 9.5t-17 29.5v535h-644v-535q0 -39 -71 -39h-14q-72 0 -72 39v838h-41q-19 0 -27.5 12t-8.5 41v18q0 29 8.5 41t27.5 12h41v211q0 40 72 40h14 q71 0 71 -40v-211h644v211q0 40 71 40h14q71 0 71 -40v-211h38q19 0 27.5 -12.5zM973 874h-644v-168h644v168z" />
<glyph unicode="&#x124;" horiz-adv-x="1303" d="M172 0zM172 36v1173q0 40 72 40h14q71 0 71 -40v-503h644v503q0 40 71 40h14q71 0 71 -40v-1173q0 -20 -17 -29.5t-54 -9.5h-14q-37 0 -54 9.5t-17 29.5v535h-644v-535q0 -39 -71 -39h-14q-72 0 -72 39zM437 1363q0 12 11 32l99 156q26 39 82 39h44q57 0 82 -39l102 -156 q11 -17 11 -30q0 -27 -43 -27h-4q-17 0 -31 5.5t-28 18.5l-111 131l-109 -131q-24 -24 -60 -24h-4q-41 0 -41 25z" />
<glyph unicode="&#x1e24;" horiz-adv-x="1303" d="M172 0zM172 36v1173q0 40 72 40h14q71 0 71 -40v-503h644v503q0 40 71 40h14q71 0 71 -40v-1173q0 -20 -17 -29.5t-54 -9.5h-14q-37 0 -54 9.5t-17 29.5v535h-644v-535q0 -39 -71 -39h-14q-72 0 -72 39zM669 -141zM598 -272v91q0 18 19 29t60 11q71 0 71 -40v-91 q0 -38 -78 -38q-72 0 -72 38z" />
<glyph unicode="I" horiz-adv-x="502" d="M172 36v1173q0 40 72 40h14q71 0 71 -40v-1173q0 -39 -71 -39h-14q-72 0 -72 39z" />
<glyph unicode="&#x132;" horiz-adv-x="1217" d="M172 0zM172 36v1173q0 40 72 40h14q71 0 71 -40v-1173q0 -39 -71 -39h-14q-72 0 -72 39zM567.5 2q-55.5 12 -55.5 44q0 7 5 32t13.5 46t21.5 21q2 0 22 -4q26 -6 45.5 -9.5t44.5 -3.5q132 0 190.5 52t58.5 167v862q0 40 71 40h14q72 0 72 -40v-844q0 -177 -90.5 -276 t-286.5 -99q-70 0 -125.5 12z" />
<glyph unicode="&#xcd;" horiz-adv-x="502" d="M172 0zM172 36v1173q0 40 72 40h14q71 0 71 -40v-1173q0 -39 -71 -39h-14q-72 0 -72 39zM179 1372q0 12 18 46t86 152q14 24 40.5 35t69.5 11q45 0 65 -5t20 -19q0 -9 -8 -21t-38.5 -47t-77.5 -89l-43 -49q-14 -15 -38 -23t-53 -8q-41 0 -41 17z" />
<glyph unicode="&#x12c;" horiz-adv-x="502" d="M0 0zM172 36v1173q0 40 72 40h14q71 0 71 -40v-1173q0 -39 -71 -39h-14q-72 0 -72 39zM126.5 1378q-58.5 23 -95 69t-36.5 111q0 14 6 20.5t20 6.5q15 0 20.5 -5t10.5 -19t8 -20q19 -36 70.5 -53t121.5 -17t120.5 17t69.5 53l9 20q5 14 10.5 19t19.5 5q15 0 21 -6.5 t6 -20.5q0 -65 -36.5 -111t-95 -69t-124.5 -23q-67 0 -125.5 23z" />
<glyph unicode="&#xce;" horiz-adv-x="502" d="M35 0zM172 36v1173q0 40 72 40h14q71 0 71 -40v-1173q0 -39 -71 -39h-14q-72 0 -72 39zM35 1363q0 12 11 32l99 156q26 39 82 39h44q57 0 82 -39l102 -156q11 -17 11 -30q0 -27 -43 -27h-4q-17 0 -31 5.5t-28 18.5l-111 131l-109 -131q-24 -24 -60 -24h-4q-41 0 -41 25z " />
<glyph unicode="&#xcf;" horiz-adv-x="502" d="M49 0zM172 36v1173q0 40 72 40h14q71 0 71 -40v-1173q0 -39 -71 -39h-14q-72 0 -72 39zM49 1432v91q0 40 78 40q71 0 71 -40v-91q0 -38 -78 -38q-71 0 -71 38zM305 1432v91q0 40 78 40q71 0 71 -40v-91q0 -38 -78 -38q-71 0 -71 38z" />
<glyph unicode="&#x130;" horiz-adv-x="502" d="M172 0zM172 36v1173q0 40 72 40h14q71 0 71 -40v-1173q0 -39 -71 -39h-14q-72 0 -72 39zM176 1432v91q0 18 19 29t60 11q71 0 71 -40v-91q0 -38 -78 -38q-72 0 -72 38z" />
<glyph unicode="&#x1eca;" horiz-adv-x="502" d="M172 0zM172 36v1173q0 40 72 40h14q71 0 71 -40v-1173q0 -39 -71 -39h-14q-72 0 -72 39zM249 -141zM178 -272v91q0 18 19 29t60 11q71 0 71 -40v-91q0 -38 -78 -38q-72 0 -72 38z" />
<glyph unicode="&#xcc;" horiz-adv-x="502" d="M41 0zM172 36v1173q0 40 72 40h14q71 0 71 -40v-1173q0 -39 -71 -39h-14q-72 0 -72 39zM247.5 1363q-23.5 8 -38.5 23l-72 82q-65 74 -80.5 93.5t-15.5 30.5q0 14 20.5 19t65.5 5q43 0 69 -10.5t41 -35.5q65 -113 84 -149.5t19 -48.5q0 -9 -9.5 -13t-31.5 -4 q-28 0 -51.5 8z" />
<glyph unicode="&#x1ec8;" horiz-adv-x="502" d="M125 0zM172 36v1173q0 40 72 40h14q71 0 71 -40v-1173q0 -39 -71 -39h-14q-72 0 -72 39zM227 1324.5q-22 9.5 -22 20.5q0 15 10.5 27.5t33.5 31.5q31 25 48.5 48.5t17.5 56.5q0 23 -18.5 35t-47.5 12q-26 0 -42 -5t-26.5 -11t-13.5 -6q-10 0 -26 22.5t-16 35.5 q0 12 21.5 25t54 21.5t63.5 8.5q35 0 72 -12t63 -40t26 -73q0 -53 -33 -100t-73.5 -77t-54.5 -30q-15 0 -37 9.5z" />
<glyph unicode="&#x12a;" horiz-adv-x="502" d="M17 0zM172 36v1173q0 40 72 40h14q71 0 71 -40v-1173q0 -39 -71 -39h-14q-72 0 -72 39zM25.5 1415q-8.5 13 -8.5 41v17q0 28 8.5 41t27.5 13h397q18 0 26 -13t8 -41v-17q0 -29 -8 -41.5t-26 -12.5h-397q-19 0 -27.5 13z" />
<glyph unicode="&#x12e;" horiz-adv-x="502" d="M511 -228q0 -56 -37 -77t-109 -21q-123 0 -166 58.5t-43 122.5q0 40 9.5 81t35.5 66q-29 9 -29 34v1173q0 40 72 40h14q71 0 71 -40v-1173q0 -27 -33 -35v-3q0 -13 -9 -40q-13 -46 -13 -69q0 -56 32.5 -73t78.5 -17q14 0 44 8q31 9 48 9q34 0 34 -44z" />
<glyph unicode="&#x128;" horiz-adv-x="502" d="M329 1209v-1173q0 -39 -71 -39h-14q-72 0 -72 39v1173q0 40 72 40h14q71 0 71 -40z" />
<glyph unicode="J" horiz-adv-x="715" d="M65.5 2q-55.5 12 -55.5 44q0 7 5 32t13.5 46t21.5 21q2 0 22 -4q26 -6 45.5 -9.5t44.5 -3.5q132 0 190.5 52t58.5 167v862q0 40 71 40h14q72 0 72 -40v-844q0 -177 -90.5 -276t-286.5 -99q-70 0 -125.5 12z" />
<glyph unicode="&#x134;" horiz-adv-x="715" d="M10 0zM65.5 2q-55.5 12 -55.5 44q0 7 5 32t13.5 46t21.5 21q2 0 22 -4q26 -6 45.5 -9.5t44.5 -3.5q132 0 190.5 52t58.5 167v862q0 40 71 40h14q72 0 72 -40v-844q0 -177 -90.5 -276t-286.5 -99q-70 0 -125.5 12zM266 1363q0 12 11 32l99 156q26 39 82 39h44q57 0 82 -39 l102 -156q11 -17 11 -30q0 -27 -43 -27h-4q-17 0 -31 5.5t-28 18.5l-111 131l-109 -131q-24 -24 -60 -24h-4q-41 0 -41 25z" />
<glyph unicode="K" horiz-adv-x="1024" d="M172 36v1173q0 40 72 40h14q71 0 71 -40v-544h7l437 558q12 13 38.5 19.5t58.5 6.5h17q30 0 46 -7t16 -17q0 -16 -17 -36l-444 -554l538 -585q16 -17 16 -28q0 -15 -17.5 -20t-60.5 -5h-22q-38 0 -60.5 4t-36.5 19l-509 572h-7v-556q0 -39 -71 -39h-14q-72 0 -72 39z" />
<glyph unicode="&#x136;" horiz-adv-x="1024" d="M172 0zM172 36v1173q0 40 72 40h14q71 0 71 -40v-544h7l437 558q12 13 38.5 19.5t58.5 6.5h17q30 0 46 -7t16 -17q0 -16 -17 -36l-444 -554l538 -585q16 -17 16 -28q0 -15 -17.5 -20t-60.5 -5h-22q-38 0 -60.5 4t-36.5 19l-509 572h-7v-556q0 -39 -71 -39h-14 q-72 0 -72 39zM371.5 -412q-15.5 6 -15.5 21q0 10 5 22.5t17 32.5q24 46 38.5 88.5t14.5 99.5q0 26 18.5 41.5t53.5 15.5h16q33 0 52 -13.5t19 -36.5q0 -79 -32 -142.5t-75.5 -99t-75.5 -35.5q-20 0 -35.5 6z" />
<glyph unicode="L" horiz-adv-x="860" d="M185 13q-13 13 -13 40v1156q0 40 72 40h14q71 0 71 -40v-1074h489q19 0 27 -12.5t8 -40.5v-29q0 -27 -8 -40t-27 -13h-592q-28 0 -41 13z" />
<glyph unicode="&#x1c7;" horiz-adv-x="1276" d="M185 13q-13 13 -13 40v1156q0 40 72 40h14q71 0 71 -40v-1074h364q19 0 27.5 -12.5t8.5 -40.5v-29q0 -27 -8.5 -40t-27.5 -13h-467q-28 0 -41 13zM625 -265.5q-55 12.5 -55 45.5q0 8 4.5 32t13 44.5t21.5 20.5q1 0 23 -4q17 -4 40.5 -7.5t47.5 -3.5q132 0 190.5 51.5 t58.5 166.5v1129q0 40 72 40h13q72 0 72 -40v-1111q0 -177 -90.5 -276.5t-286.5 -99.5q-69 0 -124 12.5z" />
<glyph unicode="&#x139;" horiz-adv-x="860" d="M172 0zM185 13q-13 13 -13 40v1156q0 40 72 40h14q71 0 71 -40v-1074h489q19 0 27 -12.5t8 -40.5v-29q0 -27 -8 -40t-27 -13h-592q-28 0 -41 13zM186 1377q0 12 18 46t86 152q14 24 40.5 35t69.5 11q45 0 65 -5t20 -19q0 -9 -8 -21t-38.5 -47t-77.5 -89l-43 -49 q-14 -15 -38 -23t-53 -8q-41 0 -41 17z" />
<glyph unicode="&#x13d;" horiz-adv-x="860" d="M172 0zM185 13q-13 13 -13 40v1156q0 40 72 40h14q71 0 71 -40v-1074h489q19 0 27 -12.5t8 -40.5v-29q0 -27 -8 -40t-27 -13h-592q-28 0 -41 13zM539 941q-16 6 -16 21q0 14 7 51q8 50 12 86t4 89q0 26 18 41t53 15h16q33 0 52 -13t19 -36q0 -75 -22.5 -134t-53 -92.5 t-53.5 -33.5q-20 0 -36 6z" />
<glyph unicode="&#x13b;" horiz-adv-x="860" d="M172 0zM185 13q-13 13 -13 40v1156q0 40 72 40h14q71 0 71 -40v-1074h489q19 0 27 -12.5t8 -40.5v-29q0 -27 -8 -40t-27 -13h-592q-28 0 -41 13zM361.5 -412q-15.5 6 -15.5 21q0 10 5 22.5t17 32.5q24 46 38.5 88.5t14.5 99.5q0 26 18.5 41.5t53.5 15.5h16q33 0 52 -13.5 t19 -36.5q0 -79 -32 -142.5t-75.5 -99t-75.5 -35.5q-20 0 -35.5 6z" />
<glyph unicode="&#x13f;" horiz-adv-x="860" d="M172 0zM185 13q-13 13 -13 40v1156q0 40 72 40h14q71 0 71 -40v-1074h489q19 0 27 -12.5t8 -40.5v-29q0 -27 -8 -40t-27 -13h-592q-28 0 -41 13zM471 575.5q-26 26.5 -26 64.5q0 39 26 65.5t65 26.5q38 0 65 -27t27 -65t-27 -64.5t-65 -26.5q-39 0 -65 26.5z" />
<glyph unicode="&#x1c8;" horiz-adv-x="1351" d="M172 0zM185 13q-13 13 -13 40v1156q0 40 72 40h14q71 0 71 -40v-1074h489q19 0 27 -12.5t8 -40.5v-29q0 -27 -8 -40t-27 -13h-592q-28 0 -41 13zM1032 1193v105q0 39 72 39h21q71 0 71 -39v-105q0 -39 -71 -39h-21q-72 0 -72 39zM829 -324q0 10 4.5 30.5t13.5 37t20 16.5 q6 0 25 -4.5t52 -4.5q44 0 69.5 28.5t25.5 102.5v1012q0 39 72 39h7q71 0 71 -39v-1025q0 -138 -70 -192t-159 -54q-131 0 -131 53z" />
<glyph unicode="&#x141;" horiz-adv-x="865" d="M164.5 13q-12.5 13 -12.5 40v566l-121 -71q-8 -7 -18 -7q-16 0 -16 24v11q0 34 34 54l121 71v508q0 40 70 40h15q70 0 70 -40v-414l193 114q12 7 17 7q8 0 12.5 -7t4.5 -18v-11q0 -34 -34 -53l-193 -114v-578h519q18 0 26 -12.5t8 -40.5v-29q0 -27 -8 -40t-26 -13h-621 q-28 0 -40.5 13z" />
<glyph unicode="M" horiz-adv-x="1498" d="M177 6.5q-17 9.5 -17 29.5v1173q0 40 72 40h63q59 0 75 -33l336 -583l46 -112l46 102l337 593q17 33 74 33h59q71 0 71 -40v-1173q0 -39 -71 -39h-12q-38 0 -55 9.5t-17 29.5v957l-3 -8l-354 -615q-7 -12 -16 -17.5t-23 -5.5h-71q-27 0 -40 23l-362 633v-967 q0 -39 -71 -39h-12q-38 0 -55 9.5z" />
<glyph unicode="N" horiz-adv-x="1278" d="M177 6.5q-17 9.5 -17 29.5v1173q0 40 72 40h37q28 0 44.5 -8t29.5 -26l568 -857l53 -100v951q0 40 70 40h14q70 0 70 -40v-1173q0 -20 -17 -29.5t-53 -9.5h-36q-25 0 -40 6t-23 19l-586 884l-48 92v-962q0 -39 -71 -39h-12q-38 0 -55 9.5z" />
<glyph unicode="&#x1ca;" horiz-adv-x="1993" d="M160 0zM177 6.5q-17 9.5 -17 29.5v1173q0 40 72 40h37q28 0 44.5 -8t29.5 -26l568 -857l53 -100v951q0 40 70 40h14q70 0 70 -40v-1173q0 -20 -17 -29.5t-53 -9.5h-36q-25 0 -40 6t-23 19l-586 884l-48 92v-962q0 -39 -71 -39h-12q-38 0 -55 9.5zM1343.5 2 q-55.5 12 -55.5 44q0 7 5 32t13.5 46t21.5 21q2 0 22 -4q26 -6 45.5 -9.5t44.5 -3.5q132 0 190.5 52t58.5 167v862q0 40 71 40h14q72 0 72 -40v-844q0 -177 -90.5 -276t-286.5 -99q-70 0 -125.5 12z" />
<glyph unicode="&#x143;" horiz-adv-x="1278" d="M160 0zM177 6.5q-17 9.5 -17 29.5v1173q0 40 72 40h37q28 0 44.5 -8t29.5 -26l568 -857l53 -100v951q0 40 70 40h14q70 0 70 -40v-1173q0 -20 -17 -29.5t-53 -9.5h-36q-25 0 -40 6t-23 19l-586 884l-48 92v-962q0 -39 -71 -39h-12q-38 0 -55 9.5zM568 1372q0 12 18 46 t86 152q14 24 40.5 35t69.5 11q45 0 65 -5t20 -19q0 -9 -8 -21t-38.5 -47t-77.5 -89l-43 -49q-14 -15 -38 -23t-53 -8q-41 0 -41 17z" />
<glyph unicode="&#x147;" horiz-adv-x="1278" d="M160 0zM177 6.5q-17 9.5 -17 29.5v1173q0 40 72 40h37q28 0 44.5 -8t29.5 -26l568 -857l53 -100v951q0 40 70 40h14q70 0 70 -40v-1173q0 -20 -17 -29.5t-53 -9.5h-36q-25 0 -40 6t-23 19l-586 884l-48 92v-962q0 -39 -71 -39h-12q-38 0 -55 9.5zM535 1388l-99 156 q-10 17 -10 33q0 11 10.5 17.5t30.5 6.5h3q36 0 60 -23l109 -131l111 131q14 12 28 17.5t32 5.5h3q20 0 31.5 -7t11.5 -19q0 -14 -11 -31l-101 -156q-28 -40 -82 -40h-45q-53 0 -82 40z" />
<glyph unicode="&#x145;" horiz-adv-x="1278" d="M160 0zM177 6.5q-17 9.5 -17 29.5v1173q0 40 72 40h37q28 0 44.5 -8t29.5 -26l568 -857l53 -100v951q0 40 70 40h14q70 0 70 -40v-1173q0 -20 -17 -29.5t-53 -9.5h-36q-25 0 -40 6t-23 19l-586 884l-48 92v-962q0 -39 -71 -39h-12q-38 0 -55 9.5zM499.5 -412 q-15.5 6 -15.5 21q0 10 5 22.5t17 32.5q24 46 38.5 88.5t14.5 99.5q0 26 18.5 41.5t53.5 15.5h16q33 0 52 -13.5t19 -36.5q0 -79 -32 -142.5t-75.5 -99t-75.5 -35.5q-20 0 -35.5 6z" />
<glyph unicode="&#x1e44;" horiz-adv-x="1278" d="M160 0zM177 6.5q-17 9.5 -17 29.5v1173q0 40 72 40h37q28 0 44.5 -8t29.5 -26l568 -857l53 -100v951q0 40 70 40h14q70 0 70 -40v-1173q0 -20 -17 -29.5t-53 -9.5h-36q-25 0 -40 6t-23 19l-586 884l-48 92v-962q0 -39 -71 -39h-12q-38 0 -55 9.5zM566 1432v91q0 18 19 29 t60 11q71 0 71 -40v-91q0 -38 -78 -38q-72 0 -72 38z" />
<glyph unicode="&#x14a;" horiz-adv-x="1278" d="M1118 1209v-1340q0 -138 -70 -192t-159 -54q-130 0 -130 53q0 10 4.5 30.5t13 37t19.5 16.5q6 0 25 -4.5t52 -4.5q44 0 69.5 28.5t25.5 102.5v112l-605 912l-48 92v-962q0 -39 -71 -39h-12q-38 0 -55 9.5t-17 29.5v1173q0 40 72 40h37q28 0 44.5 -8t29.5 -26l568 -857 l53 -100v951q0 40 70 40h14q70 0 70 -40z" />
<glyph unicode="&#x1cb;" horiz-adv-x="1769" d="M160 0zM177 6.5q-17 9.5 -17 29.5v1173q0 40 72 40h37q28 0 44.5 -8t29.5 -26l568 -857l53 -100v951q0 40 70 40h14q70 0 70 -40v-1173q0 -20 -17 -29.5t-53 -9.5h-36q-25 0 -40 6t-23 19l-586 884l-48 92v-962q0 -39 -71 -39h-12q-38 0 -55 9.5zM1450 1193v105 q0 39 72 39h21q71 0 71 -39v-105q0 -39 -71 -39h-21q-72 0 -72 39zM1247 -324q0 10 4.5 30.5t13.5 37t20 16.5q6 0 25 -4.5t52 -4.5q44 0 69.5 28.5t25.5 102.5v1012q0 39 72 39h7q71 0 71 -39v-1025q0 -138 -70 -192t-159 -54q-131 0 -131 53z" />
<glyph unicode="&#xd1;" horiz-adv-x="1278" d="M160 0zM177 6.5q-17 9.5 -17 29.5v1173q0 40 72 40h37q28 0 44.5 -8t29.5 -26l568 -857l53 -100v951q0 40 70 40h14q70 0 70 -40v-1173q0 -20 -17 -29.5t-53 -9.5h-36q-25 0 -40 6t-23 19l-586 884l-48 92v-962q0 -39 -71 -39h-12q-38 0 -55 9.5zM350 1374q-17 7 -17 21 q0 12 6 23q28 66 67.5 94.5t96.5 28.5q36 0 74 -10.5t95 -30.5q47 -18 80 -27t60 -9q24 0 41.5 11.5t35.5 40.5q18 26 35 26q6 0 18 -5l14 -5q11 -4 16 -9t5 -13q0 -11 -8 -24q-28 -65 -67.5 -93t-94.5 -28q-38 0 -76.5 10.5t-100.5 31.5q-49 18 -80 26.5t-57 8.5 q-22 0 -39 -12.5t-36 -41.5q-9 -14 -16 -20t-16 -6q-6 0 -18 5z" />
<glyph unicode="O" horiz-adv-x="1300" d="M242 152q-140 162 -140 474q0 311 139.5 470.5t407.5 159.5q269 0 409 -159.5t140 -470.5q0 -312 -140 -474t-409 -162q-267 0 -407 162zM937 253.5q100 128.5 100 372.5t-99.5 369.5t-288.5 125.5q-188 0 -287 -125.5t-99 -369.5q0 -245 99 -373t287 -128t288 128.5z " />
<glyph unicode="&#xd3;" horiz-adv-x="1300" d="M102 0zM242 152q-140 162 -140 474q0 311 139.5 470.5t407.5 159.5q269 0 409 -159.5t140 -470.5q0 -312 -140 -474t-409 -162q-267 0 -407 162zM937 253.5q100 128.5 100 372.5t-99.5 369.5t-288.5 125.5q-188 0 -287 -125.5t-99 -369.5q0 -245 99 -373t287 -128 t288 128.5zM578 1372q0 12 18 46t86 152q14 24 40.5 35t69.5 11q45 0 65 -5t20 -19q0 -9 -8 -21t-38.5 -47t-77.5 -89l-43 -49q-14 -15 -38 -23t-53 -8q-41 0 -41 17z" />
<glyph unicode="&#x14e;" horiz-adv-x="1300" d="M102 0zM242 152q-140 162 -140 474q0 311 139.5 470.5t407.5 159.5q269 0 409 -159.5t140 -470.5q0 -312 -140 -474t-409 -162q-267 0 -407 162zM937 253.5q100 128.5 100 372.5t-99.5 369.5t-288.5 125.5q-188 0 -287 -125.5t-99 -369.5q0 -245 99 -373t287 -128 t288 128.5zM526.5 1378q-58.5 23 -95 69t-36.5 111q0 14 6 20.5t20 6.5q15 0 20.5 -5t10.5 -19t8 -20q19 -36 70.5 -53t121.5 -17t120.5 17t69.5 53l9 20q5 14 10.5 19t19.5 5q15 0 21 -6.5t6 -20.5q0 -65 -36.5 -111t-95 -69t-124.5 -23q-67 0 -125.5 23z" />
<glyph unicode="&#xd4;" horiz-adv-x="1300" d="M102 0zM242 152q-140 162 -140 474q0 311 139.5 470.5t407.5 159.5q269 0 409 -159.5t140 -470.5q0 -312 -140 -474t-409 -162q-267 0 -407 162zM937 253.5q100 128.5 100 372.5t-99.5 369.5t-288.5 125.5q-188 0 -287 -125.5t-99 -369.5q0 -245 99 -373t287 -128 t288 128.5zM435 1363q0 12 11 32l99 156q26 39 82 39h44q57 0 82 -39l102 -156q11 -17 11 -30q0 -27 -43 -27h-4q-17 0 -31 5.5t-28 18.5l-111 131l-109 -131q-24 -24 -60 -24h-4q-41 0 -41 25z" />
<glyph unicode="&#x1ed0;" horiz-adv-x="1300" d="M851.5 1469q-9.5 4 -9.5 14q0 11 16 44t69 135q26 46 96 46q30 0 42.5 -5t12.5 -18q0 -10 -11.5 -27t-61.5 -84l-59 -78q-23 -31 -63 -31q-22 0 -31.5 4zM442 1363q0 12 11 32l99 156q26 39 82 39h44q41 0 65 -39l92 -156q11 -17 11 -30q0 -27 -43 -27h-4q-18 0 -34 6 t-24 18l-85 131l-109 -131q-24 -24 -60 -24h-4q-41 0 -41 25zM242 152q-140 162 -140 474q0 311 139.5 470.5t407.5 159.5q269 0 409 -159.5t140 -470.5q0 -312 -140 -474t-409 -162q-267 0 -407 162zM937 253.5q100 128.5 100 372.5t-99.5 369.5t-288.5 125.5 q-188 0 -287 -125.5t-99 -369.5q0 -245 99 -373t287 -128t288 128.5z" />
<glyph unicode="&#x1ed8;" horiz-adv-x="1300" d="M102 0zM242 152q-140 162 -140 474q0 311 139.5 470.5t407.5 159.5q269 0 409 -159.5t140 -470.5q0 -312 -140 -474t-409 -162q-267 0 -407 162zM937 253.5q100 128.5 100 372.5t-99.5 369.5t-288.5 125.5q-188 0 -287 -125.5t-99 -369.5q0 -245 99 -373t287 -128 t288 128.5zM653 -141zM582 -272v91q0 18 19 29t60 11q71 0 71 -40v-91q0 -38 -78 -38q-72 0 -72 38zM435 1363q0 12 11 32l99 156q26 39 82 39h44q57 0 82 -39l102 -156q11 -17 11 -30q0 -27 -43 -27h-4q-17 0 -31 5.5t-28 18.5l-111 131l-109 -131q-24 -24 -60 -24h-4 q-41 0 -41 25z" />
<glyph unicode="&#x1ed2;" horiz-adv-x="1300" d="M900 1473.5q-18 8.5 -28 22.5l-68 105q-32 50 -39 62.5t-7 21.5q0 14 12.5 18.5t49.5 4.5q29 0 54 -11t35 -35q40 -95 53.5 -131t13.5 -48q0 -10 -9.5 -14t-31.5 -4q-17 0 -35 8.5zM442 1363q0 12 11 32l99 156q26 39 82 39h44q41 0 65 -39l92 -156q11 -17 11 -30 q0 -27 -43 -27h-4q-18 0 -34 6t-24 18l-85 131l-109 -131q-24 -24 -60 -24h-4q-41 0 -41 25zM242 152q-140 162 -140 474q0 311 139.5 470.5t407.5 159.5q269 0 409 -159.5t140 -470.5q0 -312 -140 -474t-409 -162q-267 0 -407 162zM937 253.5q100 128.5 100 372.5 t-99.5 369.5t-288.5 125.5q-188 0 -287 -125.5t-99 -369.5q0 -245 99 -373t287 -128t288 128.5z" />
<glyph unicode="&#x1ed4;" horiz-adv-x="1300" d="M861.5 1478q-19.5 11 -19.5 23q0 10 9.5 18t34.5 22q55 31 55 66q0 23 -19 35.5t-46 12.5q-26 0 -42 -5.5t-26.5 -12t-13.5 -6.5q-11 0 -27 22.5t-16 36.5q0 11 21.5 23t54.5 19.5t63 7.5q34 0 69 -12t59.5 -39t24.5 -70q0 -37 -17 -64t-46 -50q-17 -15 -40.5 -26.5 t-32.5 -11.5q-26 0 -45.5 11zM442 1363q0 12 11 32l99 156q26 39 82 39h44q41 0 65 -39l92 -156q11 -17 11 -30q0 -27 -43 -27h-4q-18 0 -34 6t-24 18l-85 131l-109 -131q-24 -24 -60 -24h-4q-41 0 -41 25zM242 152q-140 162 -140 474q0 311 139.5 470.5t407.5 159.5 q269 0 409 -159.5t140 -470.5q0 -312 -140 -474t-409 -162q-267 0 -407 162zM937 253.5q100 128.5 100 372.5t-99.5 369.5t-288.5 125.5q-188 0 -287 -125.5t-99 -369.5q0 -245 99 -373t287 -128t288 128.5z" />
<glyph unicode="&#x1ed6;" horiz-adv-x="1300" d="M380 1625q-15 7 -15 21q0 12 5 23q25 66 61.5 94.5t88.5 28.5q33 0 68 -10.5t86 -30.5q43 -18 72 -27t54 -9q22 0 38 11.5t33 40.5q8 14 15.5 20t16.5 6q6 0 16 -5l12 -5q11 -4 15.5 -9t4.5 -13q0 -10 -7 -24q-25 -65 -61 -93t-87 -28q-35 0 -69.5 10t-91.5 32 q-46 18 -73.5 26.5t-51.5 8.5q-20 0 -35.5 -12.5t-31.5 -41.5q-8 -14 -15 -20t-15 -6q-4 0 -16 5zM435 1363q0 12 11 32l99 114q22 20 39.5 29.5t42.5 9.5h44q25 0 44.5 -10t37.5 -29l102 -114q11 -17 11 -30q0 -27 -43 -27h-4q-16 0 -28.5 6t-30.5 18l-111 88l-109 -88 q-29 -24 -60 -24h-4q-41 0 -41 25zM242 152q-140 162 -140 474q0 311 139.5 470.5t407.5 159.5q269 0 409 -159.5t140 -470.5q0 -312 -140 -474t-409 -162q-267 0 -407 162zM937 253.5q100 128.5 100 372.5t-99.5 369.5t-288.5 125.5q-188 0 -287 -125.5t-99 -369.5 q0 -245 99 -373t287 -128t288 128.5z" />
<glyph unicode="&#xd6;" horiz-adv-x="1300" d="M102 0zM242 152q-140 162 -140 474q0 311 139.5 470.5t407.5 159.5q269 0 409 -159.5t140 -470.5q0 -312 -140 -474t-409 -162q-267 0 -407 162zM937 253.5q100 128.5 100 372.5t-99.5 369.5t-288.5 125.5q-188 0 -287 -125.5t-99 -369.5q0 -245 99 -373t287 -128 t288 128.5zM449 1432v91q0 40 78 40q71 0 71 -40v-91q0 -38 -78 -38q-71 0 -71 38zM705 1432v91q0 40 78 40q71 0 71 -40v-91q0 -38 -78 -38q-71 0 -71 38z" />
<glyph unicode="&#x1ecc;" horiz-adv-x="1300" d="M102 0zM242 152q-140 162 -140 474q0 311 139.5 470.5t407.5 159.5q269 0 409 -159.5t140 -470.5q0 -312 -140 -474t-409 -162q-267 0 -407 162zM937 253.5q100 128.5 100 372.5t-99.5 369.5t-288.5 125.5q-188 0 -287 -125.5t-99 -369.5q0 -245 99 -373t287 -128 t288 128.5zM653 -141zM582 -272v91q0 18 19 29t60 11q71 0 71 -40v-91q0 -38 -78 -38q-72 0 -72 38z" />
<glyph unicode="&#xd2;" horiz-adv-x="1300" d="M102 0zM242 152q-140 162 -140 474q0 311 139.5 470.5t407.5 159.5q269 0 409 -159.5t140 -470.5q0 -312 -140 -474t-409 -162q-267 0 -407 162zM937 253.5q100 128.5 100 372.5t-99.5 369.5t-288.5 125.5q-188 0 -287 -125.5t-99 -369.5q0 -245 99 -373t287 -128 t288 128.5zM646.5 1363q-23.5 8 -38.5 23l-72 82q-65 74 -80.5 93.5t-15.5 30.5q0 14 20.5 19t65.5 5q43 0 69 -10.5t41 -35.5q65 -113 84 -149.5t19 -48.5q0 -9 -9.5 -13t-31.5 -4q-28 0 -51.5 8z" />
<glyph unicode="&#x1ece;" horiz-adv-x="1300" d="M102 0zM242 152q-140 162 -140 474q0 311 139.5 470.5t407.5 159.5q269 0 409 -159.5t140 -470.5q0 -312 -140 -474t-409 -162q-267 0 -407 162zM937 253.5q100 128.5 100 372.5t-99.5 369.5t-288.5 125.5q-188 0 -287 -125.5t-99 -369.5q0 -245 99 -373t287 -128 t288 128.5zM626 1324.5q-22 9.5 -22 20.5q0 15 10.5 27.5t33.5 31.5q31 25 48.5 48.5t17.5 56.5q0 23 -18.5 35t-47.5 12q-26 0 -42 -5t-26.5 -11t-13.5 -6q-10 0 -26 22.5t-16 35.5q0 12 21.5 25t54 21.5t63.5 8.5q35 0 72 -12t63 -40t26 -73q0 -53 -33 -100t-73.5 -77 t-54.5 -30q-15 0 -37 9.5z" />
<glyph unicode="&#x1a0;" horiz-adv-x="1300" d="M1145 950.5q53 -134.5 53 -324.5q0 -312 -140 -474t-409 -162q-267 0 -407 162t-140 474q0 311 139.5 470.5t407.5 159.5q135 0 243 -43h28q53 0 75.5 17.5t22.5 42.5q3 24 -6 43t-26 41q-13 19 -15 25q0 19 15 29l43 29q10 7 22 7q19 0 36.5 -21.5t28 -53t10.5 -57.5 q0 -61 -34.5 -102t-103.5 -53q104 -75 157 -209.5zM937 253.5q100 128.5 100 372.5t-99.5 369.5t-288.5 125.5q-188 0 -287 -125.5t-99 -369.5q0 -245 99 -373t287 -128t288 128.5z" />
<glyph unicode="&#x1eda;" horiz-adv-x="1300" d="M578 1372q0 12 18 46t86 152q14 24 40.5 35t69.5 11q45 0 65 -5t20 -19q0 -9 -8 -21t-38.5 -47t-77.5 -89l-43 -49q-14 -15 -38 -23t-53 -8q-41 0 -41 17zM1145 950.5q53 -134.5 53 -324.5q0 -312 -140 -474t-409 -162q-267 0 -407 162t-140 474q0 311 139.5 470.5 t407.5 159.5q135 0 243 -43h28q53 0 75.5 17.5t22.5 42.5q3 24 -6 43t-26 41q-13 19 -15 25q0 19 15 29l43 29q10 7 22 7q19 0 36.5 -21.5t28 -53t10.5 -57.5q0 -61 -34.5 -102t-103.5 -53q104 -75 157 -209.5zM937 253.5q100 128.5 100 372.5t-99.5 369.5t-288.5 125.5 q-188 0 -287 -125.5t-99 -369.5q0 -245 99 -373t287 -128t288 128.5z" />
<glyph unicode="&#x1ee2;" horiz-adv-x="1300" d="M1145 950.5q53 -134.5 53 -324.5q0 -312 -140 -474t-409 -162q-267 0 -407 162t-140 474q0 311 139.5 470.5t407.5 159.5q135 0 243 -43h28q53 0 75.5 17.5t22.5 42.5q3 24 -6 43t-26 41q-13 19 -15 25q0 19 15 29l43 29q10 7 22 7q19 0 36.5 -21.5t28 -53t10.5 -57.5 q0 -61 -34.5 -102t-103.5 -53q104 -75 157 -209.5zM937 253.5q100 128.5 100 372.5t-99.5 369.5t-288.5 125.5q-188 0 -287 -125.5t-99 -369.5q0 -245 99 -373t287 -128t288 128.5zM732 -182v-90q0 -39 -78 -39q-72 0 -72 39v90q0 40 79 40q71 0 71 -40z" />
<glyph unicode="&#x1edc;" horiz-adv-x="1300" d="M646.5 1363q-23.5 8 -38.5 23l-72 82q-65 74 -80.5 93.5t-15.5 30.5q0 14 20.5 19t65.5 5q43 0 69 -10.5t41 -35.5q65 -113 84 -149.5t19 -48.5q0 -9 -9.5 -13t-31.5 -4q-28 0 -51.5 8zM1145 950.5q53 -134.5 53 -324.5q0 -312 -140 -474t-409 -162q-267 0 -407 162 t-140 474q0 311 139.5 470.5t407.5 159.5q135 0 243 -43h28q53 0 75.5 17.5t22.5 42.5q3 24 -6 43t-26 41q-13 19 -15 25q0 19 15 29l43 29q10 7 22 7q19 0 36.5 -21.5t28 -53t10.5 -57.5q0 -61 -34.5 -102t-103.5 -53q104 -75 157 -209.5zM937 253.5q100 128.5 100 372.5 t-99.5 369.5t-288.5 125.5q-188 0 -287 -125.5t-99 -369.5q0 -245 99 -373t287 -128t288 128.5z" />
<glyph unicode="&#x1ede;" horiz-adv-x="1300" d="M540 1556.5q-16 22.5 -16 35.5q0 12 21.5 25t54 21.5t63.5 8.5q35 0 72 -12t63 -40t26 -73q0 -53 -33 -100t-73.5 -77t-54.5 -30q-15 0 -37 9.5t-22 20.5q0 15 10.5 27.5t33.5 31.5q31 25 48.5 48.5t17.5 56.5q0 23 -18.5 35t-47.5 12q-26 0 -41.5 -5t-26.5 -11t-14 -6 q-10 0 -26 22.5zM1145 950.5q53 -134.5 53 -324.5q0 -312 -140 -474t-409 -162q-267 0 -407 162t-140 474q0 311 139.5 470.5t407.5 159.5q135 0 243 -43h28q53 0 75.5 17.5t22.5 42.5q3 24 -6 43t-26 41q-13 19 -15 25q0 19 15 29l43 29q10 7 22 7q19 0 36.5 -21.5t28 -53 t10.5 -57.5q0 -61 -34.5 -102t-103.5 -53q104 -75 157 -209.5zM937 253.5q100 128.5 100 372.5t-99.5 369.5t-288.5 125.5q-188 0 -287 -125.5t-99 -369.5q0 -245 99 -373t287 -128t288 128.5z" />
<glyph unicode="&#x1ee0;" horiz-adv-x="1300" d="M356 1395q0 12 5 23q25 66 61.5 94.5t88.5 28.5q33 0 68 -10.5t86 -30.5q43 -18 72 -27t54 -9q22 0 38 11.5t33 40.5q8 14 15.5 20t16.5 6q6 0 16 -5l12 -5q11 -4 15.5 -9t4.5 -13q0 -10 -7 -24q-25 -65 -61 -93t-87 -28q-35 0 -69.5 10t-91.5 32q-46 18 -73.5 26.5 t-51.5 8.5q-20 0 -35.5 -12.5t-31.5 -41.5q-8 -14 -15 -20t-15 -6q-4 0 -16 5l-17 7q-15 7 -15 21zM1145 950.5q53 -134.5 53 -324.5q0 -312 -140 -474t-409 -162q-267 0 -407 162t-140 474q0 311 139.5 470.5t407.5 159.5q135 0 243 -43h28q53 0 75.5 17.5t22.5 42.5 q3 24 -6 43t-26 41q-13 19 -15 25q0 19 15 29l43 29q10 7 22 7q19 0 36.5 -21.5t28 -53t10.5 -57.5q0 -61 -34.5 -102t-103.5 -53q104 -75 157 -209.5zM937 253.5q100 128.5 100 372.5t-99.5 369.5t-288.5 125.5q-188 0 -287 -125.5t-99 -369.5q0 -245 99 -373t287 -128 t288 128.5z" />
<glyph unicode="&#x150;" horiz-adv-x="1300" d="M102 0zM242 152q-140 162 -140 474q0 311 139.5 470.5t407.5 159.5q269 0 409 -159.5t140 -470.5q0 -312 -140 -474t-409 -162q-267 0 -407 162zM937 253.5q100 128.5 100 372.5t-99.5 369.5t-288.5 125.5q-188 0 -287 -125.5t-99 -369.5q0 -245 99 -373t287 -128 t288 128.5zM451 1372q0 12 19 48.5t84 149.5q15 25 41 35.5t70 10.5t64.5 -5t20.5 -19q0 -8 -7 -19.5t-33 -42t-67 -76.5l-60 -68q-30 -31 -91 -31q-41 0 -41 17zM722.5 1359q-9.5 4 -9.5 13q0 13 20 51t82 147q15 25 41 35.5t70 10.5t64.5 -5t20.5 -19q0 -8 -7 -19.5 t-33 -42t-67 -76.5l-60 -68q-30 -31 -90 -31q-22 0 -31.5 4z" />
<glyph unicode="&#x14c;" horiz-adv-x="1300" d="M102 0zM242 152q-140 162 -140 474q0 311 139.5 470.5t407.5 159.5q269 0 409 -159.5t140 -470.5q0 -312 -140 -474t-409 -162q-267 0 -407 162zM937 253.5q100 128.5 100 372.5t-99.5 369.5t-288.5 125.5q-188 0 -287 -125.5t-99 -369.5q0 -245 99 -373t287 -128 t288 128.5zM425.5 1415q-8.5 13 -8.5 41v17q0 28 8.5 41t27.5 13h397q18 0 26 -13t8 -41v-17q0 -29 -8 -41.5t-26 -12.5h-397q-19 0 -27.5 13z" />
<glyph unicode="&#x1ea;" horiz-adv-x="1300" d="M1094 199.5q-104 -157.5 -306 -196.5v-5q0 -13 -9 -40q-13 -46 -13 -69q0 -56 32.5 -73t78.5 -17q14 0 44 8q31 9 48 9q34 0 34 -44q0 -56 -37 -77t-109 -21q-123 0 -166 58.5t-43 122.5q0 92 35 136q-11 -1 -34 -1q-267 0 -407 162t-140 474q0 311 139.5 470.5 t407.5 159.5q269 0 409 -159.5t140 -470.5q0 -269 -104 -426.5zM937 253.5q100 128.5 100 372.5t-99.5 369.5t-288.5 125.5q-188 0 -287 -125.5t-99 -369.5q0 -245 99 -373t287 -128t288 128.5z" />
<glyph unicode="&#xd8;" horiz-adv-x="1300" d="M244 150l-119 -132q-13 -16 -25 -16t-25.5 13t-13.5 24q0 14 10 25l130 142q-99 159 -99 420q0 311 139.5 470.5t407.5 159.5q237 0 378 -130l99 108q14 15 24 15q12 0 25.5 -12.5t13.5 -23.5q0 -14 -10 -25l-104 -114q123 -161 123 -448q0 -312 -140 -474t-409 -162 q-267 0 -405 160zM923 1010q-99 111 -274 111q-188 0 -287 -125.5t-99 -369.5q0 -174 52 -293zM937 253.5q100 128.5 100 372.5q0 204 -71 327l-616 -684q95 -144 299 -144q188 0 288 128.5z" />
<glyph unicode="&#x1fe;" horiz-adv-x="1300" d="M61 0zM244 150l-119 -132q-13 -16 -25 -16t-25.5 13t-13.5 24q0 14 10 25l130 142q-99 159 -99 420q0 311 139.5 470.5t407.5 159.5q237 0 378 -130l99 108q14 15 24 15q12 0 25.5 -12.5t13.5 -23.5q0 -14 -10 -25l-104 -114q123 -161 123 -448q0 -312 -140 -474 t-409 -162q-267 0 -405 160zM923 1010q-99 111 -274 111q-188 0 -287 -125.5t-99 -369.5q0 -174 52 -293zM937 253.5q100 128.5 100 372.5q0 204 -71 327l-616 -684q95 -144 299 -144q188 0 288 128.5zM578 1372q0 12 18 46t86 152q14 24 40.5 35t69.5 11q45 0 65 -5t20 -19 q0 -9 -8 -21t-38.5 -47t-77.5 -89l-43 -49q-14 -15 -38 -23t-53 -8q-41 0 -41 17z" />
<glyph unicode="&#xd5;" horiz-adv-x="1300" d="M102 0zM242 152q-140 162 -140 474q0 311 139.5 470.5t407.5 159.5q269 0 409 -159.5t140 -470.5q0 -312 -140 -474t-409 -162q-267 0 -407 162zM937 253.5q100 128.5 100 372.5t-99.5 369.5t-288.5 125.5q-188 0 -287 -125.5t-99 -369.5q0 -245 99 -373t287 -128 t288 128.5zM360 1374q-17 7 -17 21q0 12 6 23q28 66 67.5 94.5t96.5 28.5q36 0 74 -10.5t95 -30.5q47 -18 80 -27t60 -9q24 0 41.5 11.5t35.5 40.5q18 26 35 26q6 0 18 -5l14 -5q11 -4 16 -9t5 -13q0 -11 -8 -24q-28 -65 -67.5 -93t-94.5 -28q-38 0 -76.5 10.5t-100.5 31.5 q-49 18 -80 26.5t-57 8.5q-22 0 -39 -12.5t-36 -41.5q-9 -14 -16 -20t-16 -6q-6 0 -18 5z" />
<glyph unicode="&#x152;" horiz-adv-x="1815" d="M1748 122.5q8 -12.5 8 -40.5v-29q0 -27 -8 -40t-27 -13h-627q-28 0 -40.5 13t-12.5 40v86q-136 -149 -392 -149q-267 0 -407 162t-140 474q0 311 139.5 470.5t407.5 159.5q255 0 392 -148v83q0 29 12.5 41t40.5 12h626q18 0 26 -12.5t8 -40.5v-29q0 -27 -8 -40t-26 -13 h-524v-405h470q19 0 27 -12.5t8 -41.5v-27q0 -28 -8 -40.5t-27 -12.5h-470v-435h525q19 0 27 -12.5zM937 253.5q100 128.5 100 372.5t-99.5 369.5t-288.5 125.5q-188 0 -287 -125.5t-99 -369.5q0 -245 99 -373t287 -128t288 128.5z" />
<glyph unicode="P" horiz-adv-x="1014" d="M168.5 6.5q-16.5 9.5 -16.5 29.5v1155q0 29 12.5 41t40.5 12h360q156 0 276.5 -74.5t120.5 -273.5q0 -148 -69 -229.5t-155 -109t-155 -27.5h-276v-494q0 -20 -17 -29.5t-53 -9.5h-15q-37 0 -53.5 9.5zM585 665q45 0 94 19.5t85 71t36 140.5q0 119 -70.5 166t-169.5 47 h-253v-444h278z" />
<glyph unicode="&#xde;" horiz-adv-x="1008" d="M168.5 6.5q-16.5 9.5 -16.5 29.5v1173q0 40 70 40h15q70 0 70 -40v-182h258q157 0 277 -74t120 -274q0 -147 -69 -228.5t-154.5 -109t-155.5 -27.5h-276v-278q0 -20 -17 -29.5t-53 -9.5h-15q-37 0 -53.5 9.5zM585 448q45 0 94 19.5t85 71t36 140.5q0 119 -70.5 166 t-169.5 47h-253v-444h278z" />
<glyph unicode="Q" horiz-adv-x="1300" d="M863 -158.5q-266 104.5 -324 127.5q-76 32 -102 41q-168 68 -251.5 218.5t-83.5 388.5q0 313 140 476t407 163q268 0 408.5 -163.5t140.5 -475.5q0 -252 -91.5 -406.5t-265.5 -201.5v-7l350 -111q25 -7 25 -26q0 -13 -11 -45t-28 -57.5t-35 -25.5q-13 0 -279 104.5z M936 247.5q101 128.5 101 369.5q0 161 -45.5 274t-132.5 171.5t-210 58.5q-122 0 -208.5 -58.5t-132 -171.5t-45.5 -274q0 -242 100.5 -370t285.5 -128q186 0 287 128.5z" />
<glyph unicode="R" horiz-adv-x="1085" d="M172 36v1155q0 28 13 40.5t41 12.5h299q213 0 320.5 -75t107.5 -239q0 -111 -53.5 -186.5t-150.5 -113.5v-7q52 -18 85.5 -69.5t74.5 -152.5l139 -351q5 -18 5 -25q0 -28 -75 -28h-18q-27 0 -46.5 7.5t-24.5 20.5l-135 349q-26 68 -61 106t-83 53t-121 15h-160v-512 q0 -39 -71 -39h-14q-72 0 -72 39zM563 683q63 0 115.5 30t83 80.5t30.5 107.5q0 105 -64 156.5t-177 51.5h-222v-426h234z" />
<glyph unicode="&#x154;" horiz-adv-x="1085" d="M172 0zM172 36v1155q0 28 13 40.5t41 12.5h299q213 0 320.5 -75t107.5 -239q0 -111 -53.5 -186.5t-150.5 -113.5v-7q52 -18 85.5 -69.5t74.5 -152.5l139 -351q5 -18 5 -25q0 -28 -75 -28h-18q-27 0 -46.5 7.5t-24.5 20.5l-135 349q-26 68 -61 106t-83 53t-121 15h-160 v-512q0 -39 -71 -39h-14q-72 0 -72 39zM563 683q63 0 115.5 30t83 80.5t30.5 107.5q0 105 -64 156.5t-177 51.5h-222v-426h234zM470 1372q0 12 18 46t86 152q14 24 40.5 35t69.5 11q45 0 65 -5t20 -19q0 -9 -8 -21t-38.5 -47t-77.5 -89l-43 -49q-14 -15 -38 -23t-53 -8 q-41 0 -41 17z" />
<glyph unicode="&#x158;" horiz-adv-x="1085" d="M172 0zM172 36v1155q0 28 13 40.5t41 12.5h299q213 0 320.5 -75t107.5 -239q0 -111 -53.5 -186.5t-150.5 -113.5v-7q52 -18 85.5 -69.5t74.5 -152.5l139 -351q5 -18 5 -25q0 -28 -75 -28h-18q-27 0 -46.5 7.5t-24.5 20.5l-135 349q-26 68 -61 106t-83 53t-121 15h-160 v-512q0 -39 -71 -39h-14q-72 0 -72 39zM563 683q63 0 115.5 30t83 80.5t30.5 107.5q0 105 -64 156.5t-177 51.5h-222v-426h234zM436 1388l-99 156q-10 17 -10 33q0 11 10.5 17.5t30.5 6.5h3q36 0 60 -23l109 -131l111 131q14 12 28 17.5t32 5.5h3q20 0 31.5 -7t11.5 -19 q0 -14 -11 -31l-101 -156q-28 -40 -82 -40h-45q-53 0 -82 40z" />
<glyph unicode="&#x156;" horiz-adv-x="1085" d="M172 0zM172 36v1155q0 28 13 40.5t41 12.5h299q213 0 320.5 -75t107.5 -239q0 -111 -53.5 -186.5t-150.5 -113.5v-7q52 -18 85.5 -69.5t74.5 -152.5l139 -351q5 -18 5 -25q0 -28 -75 -28h-18q-27 0 -46.5 7.5t-24.5 20.5l-135 349q-26 68 -61 106t-83 53t-121 15h-160 v-512q0 -39 -71 -39h-14q-72 0 -72 39zM563 683q63 0 115.5 30t83 80.5t30.5 107.5q0 105 -64 156.5t-177 51.5h-222v-426h234zM401.5 -412q-15.5 6 -15.5 21q0 10 5 22.5t17 32.5q24 46 38.5 88.5t14.5 99.5q0 26 18.5 41.5t53.5 15.5h16q33 0 52 -13.5t19 -36.5 q0 -79 -32 -142.5t-75.5 -99t-75.5 -35.5q-20 0 -35.5 6z" />
<glyph unicode="&#x1e5a;" horiz-adv-x="1085" d="M172 0zM172 36v1155q0 28 13 40.5t41 12.5h299q213 0 320.5 -75t107.5 -239q0 -111 -53.5 -186.5t-150.5 -113.5v-7q52 -18 85.5 -69.5t74.5 -152.5l139 -351q5 -18 5 -25q0 -28 -75 -28h-18q-27 0 -46.5 7.5t-24.5 20.5l-135 349q-26 68 -61 106t-83 53t-121 15h-160 v-512q0 -39 -71 -39h-14q-72 0 -72 39zM563 683q63 0 115.5 30t83 80.5t30.5 107.5q0 105 -64 156.5t-177 51.5h-222v-426h234zM542 -141zM471 -272v91q0 18 19 29t60 11q71 0 71 -40v-91q0 -38 -78 -38q-72 0 -72 38z" />
<glyph unicode="S" horiz-adv-x="889" d="M251.5 11.5q-84.5 21.5 -135 52t-50.5 55.5q0 14 11.5 37t26.5 41t24 18q8 0 35 -16q62 -32 123 -53t148 -21q68 0 121 26t82.5 73.5t29.5 109.5q0 66 -35.5 109.5t-86 69t-146.5 63.5q-104 40 -164.5 74.5t-103 100.5t-42.5 175q0 95 49 170.5t139 117.5t207 42 q53 0 121 -14.5t116.5 -39.5t48.5 -55q0 -13 -10.5 -35.5t-24.5 -40.5t-22 -18q-9 0 -36 15q-45 24 -89 38.5t-107 14.5q-103 0 -166.5 -53t-63.5 -148q0 -57 28 -94t71 -59t120 -51q5 -1 23 -8q106 -41 173.5 -79.5t115 -110.5t47.5 -184q0 -105 -48.5 -183t-138 -119.5 t-208.5 -41.5q-98 0 -182.5 21.5z" />
<glyph unicode="&#x15a;" horiz-adv-x="889" d="M66 0zM251.5 11.5q-84.5 21.5 -135 52t-50.5 55.5q0 14 11.5 37t26.5 41t24 18q8 0 35 -16q62 -32 123 -53t148 -21q68 0 121 26t82.5 73.5t29.5 109.5q0 66 -35.5 109.5t-86 69t-146.5 63.5q-104 40 -164.5 74.5t-103 100.5t-42.5 175q0 95 49 170.5t139 117.5t207 42 q53 0 121 -14.5t116.5 -39.5t48.5 -55q0 -13 -10.5 -35.5t-24.5 -40.5t-22 -18q-9 0 -36 15q-45 24 -89 38.5t-107 14.5q-103 0 -166.5 -53t-63.5 -148q0 -57 28 -94t71 -59t120 -51q5 -1 23 -8q106 -41 173.5 -79.5t115 -110.5t47.5 -184q0 -105 -48.5 -183t-138 -119.5 t-208.5 -41.5q-98 0 -182.5 21.5zM373 1372q0 12 18 46t86 152q14 24 40.5 35t69.5 11q45 0 65 -5t20 -19q0 -9 -8 -21t-38.5 -47t-77.5 -89l-43 -49q-14 -15 -38 -23t-53 -8q-41 0 -41 17z" />
<glyph unicode="&#x160;" horiz-adv-x="889" d="M66 0zM251.5 11.5q-84.5 21.5 -135 52t-50.5 55.5q0 14 11.5 37t26.5 41t24 18q8 0 35 -16q62 -32 123 -53t148 -21q68 0 121 26t82.5 73.5t29.5 109.5q0 66 -35.5 109.5t-86 69t-146.5 63.5q-104 40 -164.5 74.5t-103 100.5t-42.5 175q0 95 49 170.5t139 117.5t207 42 q53 0 121 -14.5t116.5 -39.5t48.5 -55q0 -13 -10.5 -35.5t-24.5 -40.5t-22 -18q-9 0 -36 15q-45 24 -89 38.5t-107 14.5q-103 0 -166.5 -53t-63.5 -148q0 -57 28 -94t71 -59t120 -51q5 -1 23 -8q106 -41 173.5 -79.5t115 -110.5t47.5 -184q0 -105 -48.5 -183t-138 -119.5 t-208.5 -41.5q-98 0 -182.5 21.5zM339 1388l-99 156q-10 17 -10 33q0 11 10.5 17.5t30.5 6.5h3q36 0 60 -23l109 -131l111 131q14 12 28 17.5t32 5.5h3q20 0 31.5 -7t11.5 -19q0 -14 -11 -31l-101 -156q-28 -40 -82 -40h-45q-53 0 -82 40z" />
<glyph unicode="&#x15e;" horiz-adv-x="889" d="M787 162q-42 -74 -119.5 -118t-182.5 -52l-23 -79h7q51 0 101 -27t50 -101q0 -93 -58.5 -126t-145.5 -33q-42 0 -90.5 9.5t-81.5 27t-33 40.5q0 19 8 32.5t26 13.5q9 0 23.5 -5t21.5 -7q29 -11 52.5 -17t49.5 -6q43 0 72.5 12t29.5 49q0 30 -18 43.5t-52 24.5 q-24 8 -35.5 15t-11.5 21q0 11 7 35.5t24 75.5q-92 3 -171 25t-125 51t-46 53q0 14 11.5 37t26.5 41t24 18q8 0 35 -16q62 -32 123 -53t148 -21q68 0 121 26t82.5 73.5t29.5 109.5q0 66 -35.5 109.5t-86 69t-146.5 63.5q-104 40 -164.5 74.5t-103 100.5t-42.5 175 q0 95 49 170.5t139 117.5t207 42q53 0 121 -14.5t116.5 -39.5t48.5 -55q0 -13 -10.5 -35.5t-24.5 -40.5t-22 -18q-9 0 -36 15q-45 24 -89 38.5t-107 14.5q-103 0 -166.5 -53t-63.5 -148q0 -57 28 -94t71 -59t120 -51q5 -1 23 -8q106 -41 173.5 -79.5t115 -110.5t47.5 -184 q0 -98 -42 -172z" />
<glyph unicode="&#x15c;" horiz-adv-x="889" d="M66 0zM251.5 11.5q-84.5 21.5 -135 52t-50.5 55.5q0 14 11.5 37t26.5 41t24 18q8 0 35 -16q62 -32 123 -53t148 -21q68 0 121 26t82.5 73.5t29.5 109.5q0 66 -35.5 109.5t-86 69t-146.5 63.5q-104 40 -164.5 74.5t-103 100.5t-42.5 175q0 95 49 170.5t139 117.5t207 42 q53 0 121 -14.5t116.5 -39.5t48.5 -55q0 -13 -10.5 -35.5t-24.5 -40.5t-22 -18q-9 0 -36 15q-45 24 -89 38.5t-107 14.5q-103 0 -166.5 -53t-63.5 -148q0 -57 28 -94t71 -59t120 -51q5 -1 23 -8q106 -41 173.5 -79.5t115 -110.5t47.5 -184q0 -105 -48.5 -183t-138 -119.5 t-208.5 -41.5q-98 0 -182.5 21.5zM229 1363q0 12 11 32l99 156q26 39 82 39h44q57 0 82 -39l102 -156q11 -17 11 -30q0 -27 -43 -27h-4q-17 0 -31 5.5t-28 18.5l-111 131l-109 -131q-24 -24 -60 -24h-4q-41 0 -41 25z" />
<glyph unicode="&#x218;" horiz-adv-x="889" d="M66 0zM251.5 11.5q-84.5 21.5 -135 52t-50.5 55.5q0 14 11.5 37t26.5 41t24 18q8 0 35 -16q62 -32 123 -53t148 -21q68 0 121 26t82.5 73.5t29.5 109.5q0 66 -35.5 109.5t-86 69t-146.5 63.5q-104 40 -164.5 74.5t-103 100.5t-42.5 175q0 95 49 170.5t139 117.5t207 42 q53 0 121 -14.5t116.5 -39.5t48.5 -55q0 -13 -10.5 -35.5t-24.5 -40.5t-22 -18q-9 0 -36 15q-45 24 -89 38.5t-107 14.5q-103 0 -166.5 -53t-63.5 -148q0 -57 28 -94t71 -59t120 -51q5 -1 23 -8q106 -41 173.5 -79.5t115 -110.5t47.5 -184q0 -105 -48.5 -183t-138 -119.5 t-208.5 -41.5q-98 0 -182.5 21.5zM304.5 -412q-15.5 6 -15.5 21q0 10 5 22.5t17 32.5q24 46 38.5 88.5t14.5 99.5q0 26 18.5 41.5t53.5 15.5h16q33 0 52 -13.5t19 -36.5q0 -79 -32 -142.5t-75.5 -99t-75.5 -35.5q-20 0 -35.5 6z" />
<glyph unicode="&#x1e62;" horiz-adv-x="889" d="M66 0zM251.5 11.5q-84.5 21.5 -135 52t-50.5 55.5q0 14 11.5 37t26.5 41t24 18q8 0 35 -16q62 -32 123 -53t148 -21q68 0 121 26t82.5 73.5t29.5 109.5q0 66 -35.5 109.5t-86 69t-146.5 63.5q-104 40 -164.5 74.5t-103 100.5t-42.5 175q0 95 49 170.5t139 117.5t207 42 q53 0 121 -14.5t116.5 -39.5t48.5 -55q0 -13 -10.5 -35.5t-24.5 -40.5t-22 -18q-9 0 -36 15q-45 24 -89 38.5t-107 14.5q-103 0 -166.5 -53t-63.5 -148q0 -57 28 -94t71 -59t120 -51q5 -1 23 -8q106 -41 173.5 -79.5t115 -110.5t47.5 -184q0 -105 -48.5 -183t-138 -119.5 t-208.5 -41.5q-98 0 -182.5 21.5zM445 -141zM374 -272v91q0 18 19 29t60 11q71 0 71 -40v-91q0 -38 -78 -38q-72 0 -72 38z" />
<glyph unicode="&#x1e9e;" horiz-adv-x="1244" d="M573.5 18q-68.5 28 -118.5 73q0 16 11.5 37t26.5 36t24 15q22 0 38.5 -6t44.5 -19q34 -17 66 -26.5t79 -9.5q65 0 127 22.5t104.5 77.5t42.5 145q0 129 -73.5 181.5t-211.5 52.5h-62q-12 0 -27 34t-15 60q0 16 5 22l270 370q-118 38 -250 38q-172 0 -253.5 -85.5 t-81.5 -272.5v-727q0 -20 -17 -29.5t-54 -9.5h-14q-71 0 -71 39v728q0 244 123.5 368.5t362.5 123.5q117 -4 225.5 -22t185.5 -41q11 -3 25.5 -35.5t14.5 -58.5q0 -13 -6 -22l-266 -364q160 -26 252.5 -112t92.5 -240q0 -129 -62.5 -212t-157.5 -121t-195 -38 q-117 0 -185.5 28z" />
<glyph unicode="&#x18f;" horiz-adv-x="1195" d="M193.5 131.5q-113.5 148.5 -113.5 441.5q0 16 21.5 44t36.5 28h741q-11 168 -51 274.5t-112.5 157.5t-181.5 51q-105 0 -179.5 -26.5t-144.5 -65.5q-4 -2 -20 -10.5t-23 -8.5q-11 0 -25.5 17.5t-25.5 39.5t-11 32q0 29 58 64.5t156 60.5t213 25q259 0 383 -162.5 t124 -503.5q0 -301 -126.5 -454t-376.5 -153q-229 0 -342.5 148.5zM783.5 213q85.5 101 95.5 304h-640q0 -205 74.5 -305t227.5 -100q157 0 242.5 101z" />
<glyph unicode="T" horiz-adv-x="976" d="M430 6.5q-17 9.5 -17 29.5v1073h-342q-19 0 -27 13t-8 40v29q0 28 8 40.5t27 12.5h834q19 0 27 -12.5t8 -40.5v-29q0 -27 -8 -40t-27 -13h-335v-1073q0 -39 -72 -39h-14q-37 0 -54 9.5z" />
<glyph unicode="&#x166;" horiz-adv-x="976" d="M932 1231.5q8 -12.5 8 -40.5v-29q0 -27 -8 -40t-27 -13h-335v-418h247q19 0 27.5 -12.5t8.5 -40.5v-18q0 -28 -8.5 -40.5t-27.5 -12.5h-247v-531q0 -39 -72 -39h-14q-37 0 -54 9.5t-17 29.5v531h-241q-18 0 -26.5 12.5t-8.5 40.5v18q0 28 8.5 40.5t26.5 12.5h241v418 h-342q-19 0 -27 13t-8 40v29q0 28 8 40.5t27 12.5h834q19 0 27 -12.5z" />
<glyph unicode="&#x164;" horiz-adv-x="976" d="M36 0zM430 6.5q-17 9.5 -17 29.5v1073h-342q-19 0 -27 13t-8 40v29q0 28 8 40.5t27 12.5h834q19 0 27 -12.5t8 -40.5v-29q0 -27 -8 -40t-27 -13h-335v-1073q0 -39 -72 -39h-14q-37 0 -54 9.5zM383 1388l-99 156q-10 17 -10 33q0 11 10.5 17.5t30.5 6.5h3q36 0 60 -23 l109 -131l111 131q14 12 28 17.5t32 5.5h3q20 0 31.5 -7t11.5 -19q0 -14 -11 -31l-101 -156q-28 -40 -82 -40h-45q-53 0 -82 40z" />
<glyph unicode="&#x162;" horiz-adv-x="976" d="M932 1231.5q8 -12.5 8 -40.5v-29q0 -27 -8 -40t-27 -13h-335v-1073q0 -29 -39 -36l-25 -87h7q51 0 101 -27t50 -101q0 -93 -58.5 -126t-145.5 -33q-42 0 -90.5 9.5t-81.5 27t-33 40.5q0 19 8 32.5t26 13.5q9 0 23.5 -5t21.5 -7q29 -11 52.5 -17t49.5 -6q43 0 72.5 12 t29.5 49q0 30 -18 43.5t-52 24.5q-24 8 -35.5 15t-11.5 21q0 11 6 32t28 88q-42 6 -42 37v1073h-342q-19 0 -27 13t-8 40v29q0 28 8 40.5t27 12.5h834q19 0 27 -12.5z" />
<glyph unicode="&#x21a;" horiz-adv-x="976" d="M36 0zM430 6.5q-17 9.5 -17 29.5v1073h-342q-19 0 -27 13t-8 40v29q0 28 8 40.5t27 12.5h834q19 0 27 -12.5t8 -40.5v-29q0 -27 -8 -40t-27 -13h-335v-1073q0 -39 -72 -39h-14q-37 0 -54 9.5zM348.5 -412q-15.5 6 -15.5 21q0 10 5 22.5t17 32.5q24 46 38.5 88.5 t14.5 99.5q0 26 18.5 41.5t53.5 15.5h16q33 0 52 -13.5t19 -36.5q0 -79 -32 -142.5t-75.5 -99t-75.5 -35.5q-20 0 -35.5 6z" />
<glyph unicode="&#x1e6c;" horiz-adv-x="976" d="M36 0zM430 6.5q-17 9.5 -17 29.5v1073h-342q-19 0 -27 13t-8 40v29q0 28 8 40.5t27 12.5h834q19 0 27 -12.5t8 -40.5v-29q0 -27 -8 -40t-27 -13h-335v-1073q0 -39 -72 -39h-14q-37 0 -54 9.5zM489 -141zM418 -272v91q0 18 19 29t60 11q71 0 71 -40v-91q0 -38 -78 -38 q-72 0 -72 38z" />
<glyph unicode="U" horiz-adv-x="1266" d="M369 38.5q-109 48.5 -165 140.5t-56 220v810q0 40 71 40h14q71 0 71 -40v-816q0 -78 43 -139t118 -95t168 -34q94 0 169 34.5t117.5 95.5t42.5 138v816q0 40 71 40h15q70 0 70 -40v-810q0 -128 -56 -220t-165 -140.5t-264 -48.5t-264 48.5z" />
<glyph unicode="&#xda;" horiz-adv-x="1266" d="M148 0zM369 38.5q-109 48.5 -165 140.5t-56 220v810q0 40 71 40h14q71 0 71 -40v-816q0 -78 43 -139t118 -95t168 -34q94 0 169 34.5t117.5 95.5t42.5 138v816q0 40 71 40h15q70 0 70 -40v-810q0 -128 -56 -220t-165 -140.5t-264 -48.5t-264 48.5zM561 1372q0 12 18 46 t86 152q14 24 40.5 35t69.5 11q45 0 65 -5t20 -19q0 -9 -8 -21t-38.5 -47t-77.5 -89l-43 -49q-14 -15 -38 -23t-53 -8q-41 0 -41 17z" />
<glyph unicode="&#x16c;" horiz-adv-x="1266" d="M148 0zM369 38.5q-109 48.5 -165 140.5t-56 220v810q0 40 71 40h14q71 0 71 -40v-816q0 -78 43 -139t118 -95t168 -34q94 0 169 34.5t117.5 95.5t42.5 138v816q0 40 71 40h15q70 0 70 -40v-810q0 -128 -56 -220t-165 -140.5t-264 -48.5t-264 48.5zM509.5 1378 q-58.5 23 -95 69t-36.5 111q0 14 6 20.5t20 6.5q15 0 20.5 -5t10.5 -19t8 -20q19 -36 70.5 -53t121.5 -17t120.5 17t69.5 53l9 20q5 14 10.5 19t19.5 5q15 0 21 -6.5t6 -20.5q0 -65 -36.5 -111t-95 -69t-124.5 -23q-67 0 -125.5 23z" />
<glyph unicode="&#xdb;" horiz-adv-x="1266" d="M148 0zM369 38.5q-109 48.5 -165 140.5t-56 220v810q0 40 71 40h14q71 0 71 -40v-816q0 -78 43 -139t118 -95t168 -34q94 0 169 34.5t117.5 95.5t42.5 138v816q0 40 71 40h15q70 0 70 -40v-810q0 -128 -56 -220t-165 -140.5t-264 -48.5t-264 48.5zM418 1363q0 12 11 32 l99 156q26 39 82 39h44q57 0 82 -39l102 -156q11 -17 11 -30q0 -27 -43 -27h-4q-17 0 -31 5.5t-28 18.5l-111 131l-109 -131q-24 -24 -60 -24h-4q-41 0 -41 25z" />
<glyph unicode="&#xdc;" horiz-adv-x="1266" d="M148 0zM369 38.5q-109 48.5 -165 140.5t-56 220v810q0 40 71 40h14q71 0 71 -40v-816q0 -78 43 -139t118 -95t168 -34q94 0 169 34.5t117.5 95.5t42.5 138v816q0 40 71 40h15q70 0 70 -40v-810q0 -128 -56 -220t-165 -140.5t-264 -48.5t-264 48.5zM432 1432v91 q0 40 78 40q71 0 71 -40v-91q0 -38 -78 -38q-71 0 -71 38zM688 1432v91q0 40 78 40q71 0 71 -40v-91q0 -38 -78 -38q-71 0 -71 38z" />
<glyph unicode="&#x1ee4;" horiz-adv-x="1266" d="M148 0zM369 38.5q-109 48.5 -165 140.5t-56 220v810q0 40 71 40h14q71 0 71 -40v-816q0 -78 43 -139t118 -95t168 -34q94 0 169 34.5t117.5 95.5t42.5 138v816q0 40 71 40h15q70 0 70 -40v-810q0 -128 -56 -220t-165 -140.5t-264 -48.5t-264 48.5zM635 -141zM564 -272v91 q0 18 19 29t60 11q71 0 71 -40v-91q0 -38 -78 -38q-72 0 -72 38z" />
<glyph unicode="&#xd9;" horiz-adv-x="1266" d="M148 0zM369 38.5q-109 48.5 -165 140.5t-56 220v810q0 40 71 40h14q71 0 71 -40v-816q0 -78 43 -139t118 -95t168 -34q94 0 169 34.5t117.5 95.5t42.5 138v816q0 40 71 40h15q70 0 70 -40v-810q0 -128 -56 -220t-165 -140.5t-264 -48.5t-264 48.5zM629.5 1363 q-23.5 8 -38.5 23l-72 82q-65 74 -80.5 93.5t-15.5 30.5q0 14 20.5 19t65.5 5q43 0 69 -10.5t41 -35.5q65 -113 84 -149.5t19 -48.5q0 -9 -9.5 -13t-31.5 -4q-28 0 -51.5 8z" />
<glyph unicode="&#x1ee6;" horiz-adv-x="1266" d="M148 0zM369 38.5q-109 48.5 -165 140.5t-56 220v810q0 40 71 40h14q71 0 71 -40v-816q0 -78 43 -139t118 -95t168 -34q94 0 169 34.5t117.5 95.5t42.5 138v816q0 40 71 40h15q70 0 70 -40v-810q0 -128 -56 -220t-165 -140.5t-264 -48.5t-264 48.5zM609 1324.5 q-22 9.5 -22 20.5q0 15 10.5 27.5t33.5 31.5q31 25 48.5 48.5t17.5 56.5q0 23 -18.5 35t-47.5 12q-26 0 -42 -5t-26.5 -11t-13.5 -6q-10 0 -26 22.5t-16 35.5q0 12 21.5 25t54 21.5t63.5 8.5q35 0 72 -12t63 -40t26 -73q0 -53 -33 -100t-73.5 -77t-54.5 -30q-15 0 -37 9.5z " />
<glyph unicode="&#x1af;" horiz-adv-x="1266" d="M1256.5 1237.5q-45.5 -42.5 -138.5 -46.5v-792q0 -128 -56 -220t-165 -140.5t-264 -48.5t-264 48.5t-165 140.5t-56 220v810q0 40 71 40h14q71 0 71 -40v-816q0 -78 43 -139t118 -95t168 -34q94 0 169 34.5t117.5 95.5t42.5 138v816q0 40 71 40h63q53 0 75.5 17.5 t22.5 42.5q3 24 -6 43t-26 41q-13 19 -15 25q0 19 15 29l43 29q10 7 22 7q19 0 36.5 -21.5t28 -53t10.5 -57.5q0 -71 -45.5 -113.5z" />
<glyph unicode="&#x1ee8;" horiz-adv-x="1266" d="M561 1372q0 12 18 46t86 152q14 24 40.5 35t69.5 11q45 0 65 -5t20 -19q0 -9 -8 -21t-38.5 -47t-77.5 -89l-43 -49q-14 -15 -38 -23t-53 -8q-41 0 -41 17zM1256.5 1237.5q-45.5 -42.5 -138.5 -46.5v-792q0 -128 -56 -220t-165 -140.5t-264 -48.5t-264 48.5t-165 140.5 t-56 220v810q0 40 71 40h14q71 0 71 -40v-816q0 -78 43 -139t118 -95t168 -34q94 0 169 34.5t117.5 95.5t42.5 138v816q0 40 71 40h63q53 0 75.5 17.5t22.5 42.5q3 24 -6 43t-26 41q-13 19 -15 25q0 19 15 29l43 29q10 7 22 7q19 0 36.5 -21.5t28 -53t10.5 -57.5 q0 -71 -45.5 -113.5z" />
<glyph unicode="&#x1ef0;" horiz-adv-x="1266" d="M1256.5 1237.5q-45.5 -42.5 -138.5 -46.5v-792q0 -128 -56 -220t-165 -140.5t-264 -48.5t-264 48.5t-165 140.5t-56 220v810q0 40 71 40h14q71 0 71 -40v-816q0 -78 43 -139t118 -95t168 -34q94 0 169 34.5t117.5 95.5t42.5 138v816q0 40 71 40h63q53 0 75.5 17.5 t22.5 42.5q3 24 -6 43t-26 41q-13 19 -15 25q0 19 15 29l43 29q10 7 22 7q19 0 36.5 -21.5t28 -53t10.5 -57.5q0 -71 -45.5 -113.5zM714 -182v-90q0 -39 -78 -39q-72 0 -72 39v90q0 40 79 40q71 0 71 -40z" />
<glyph unicode="&#x1eea;" horiz-adv-x="1266" d="M629.5 1363q-23.5 8 -38.5 23l-72 82q-65 74 -80.5 93.5t-15.5 30.5q0 14 20.5 19t65.5 5q43 0 69 -10.5t41 -35.5q65 -113 84 -149.5t19 -48.5q0 -9 -9.5 -13t-31.5 -4q-28 0 -51.5 8zM1256.5 1237.5q-45.5 -42.5 -138.5 -46.5v-792q0 -128 -56 -220t-165 -140.5 t-264 -48.5t-264 48.5t-165 140.5t-56 220v810q0 40 71 40h14q71 0 71 -40v-816q0 -78 43 -139t118 -95t168 -34q94 0 169 34.5t117.5 95.5t42.5 138v816q0 40 71 40h63q53 0 75.5 17.5t22.5 42.5q3 24 -6 43t-26 41q-13 19 -15 25q0 19 15 29l43 29q10 7 22 7 q19 0 36.5 -21.5t28 -53t10.5 -57.5q0 -71 -45.5 -113.5z" />
<glyph unicode="&#x1eec;" horiz-adv-x="1266" d="M523 1556.5q-16 22.5 -16 35.5q0 12 21.5 25t54 21.5t63.5 8.5q35 0 72 -12t63 -40t26 -73q0 -53 -33 -100t-73.5 -77t-54.5 -30q-15 0 -37 9.5t-22 20.5q0 15 10.5 27.5t33.5 31.5q31 25 48.5 48.5t17.5 56.5q0 23 -18.5 35t-47.5 12q-26 0 -41.5 -5t-26.5 -11t-14 -6 q-10 0 -26 22.5zM1256.5 1237.5q-45.5 -42.5 -138.5 -46.5v-792q0 -128 -56 -220t-165 -140.5t-264 -48.5t-264 48.5t-165 140.5t-56 220v810q0 40 71 40h14q71 0 71 -40v-816q0 -78 43 -139t118 -95t168 -34q94 0 169 34.5t117.5 95.5t42.5 138v816q0 40 71 40h63 q53 0 75.5 17.5t22.5 42.5q3 24 -6 43t-26 41q-13 19 -15 25q0 19 15 29l43 29q10 7 22 7q19 0 36.5 -21.5t28 -53t10.5 -57.5q0 -71 -45.5 -113.5z" />
<glyph unicode="&#x1eee;" horiz-adv-x="1266" d="M326 1395q0 12 6 23q28 66 67.5 94.5t96.5 28.5q36 0 74 -10.5t95 -30.5q47 -18 80 -27t60 -9q24 0 41.5 11.5t35.5 40.5q18 26 35 26q6 0 18 -5l14 -5q11 -4 16 -9t5 -13q0 -11 -8 -24q-28 -65 -67.5 -93t-94.5 -28q-38 0 -76.5 10.5t-100.5 31.5q-49 18 -80 26.5 t-57 8.5q-22 0 -39 -12.5t-36 -41.5q-9 -14 -16 -20t-16 -6q-6 0 -18 5l-18 7q-17 7 -17 21zM1256.5 1237.5q-45.5 -42.5 -138.5 -46.5v-792q0 -128 -56 -220t-165 -140.5t-264 -48.5t-264 48.5t-165 140.5t-56 220v810q0 40 71 40h14q71 0 71 -40v-816q0 -78 43 -139 t118 -95t168 -34q94 0 169 34.5t117.5 95.5t42.5 138v816q0 40 71 40h63q53 0 75.5 17.5t22.5 42.5q3 24 -6 43t-26 41q-13 19 -15 25q0 19 15 29l43 29q10 7 22 7q19 0 36.5 -21.5t28 -53t10.5 -57.5q0 -71 -45.5 -113.5z" />
<glyph unicode="&#x170;" horiz-adv-x="1266" d="M148 0zM369 38.5q-109 48.5 -165 140.5t-56 220v810q0 40 71 40h14q71 0 71 -40v-816q0 -78 43 -139t118 -95t168 -34q94 0 169 34.5t117.5 95.5t42.5 138v816q0 40 71 40h15q70 0 70 -40v-810q0 -128 -56 -220t-165 -140.5t-264 -48.5t-264 48.5zM434 1372q0 12 19 48.5 t84 149.5q15 25 41 35.5t70 10.5t64.5 -5t20.5 -19q0 -8 -7 -19.5t-33 -42t-67 -76.5l-60 -68q-30 -31 -91 -31q-41 0 -41 17zM705.5 1359q-9.5 4 -9.5 13q0 13 20 51t82 147q15 25 41 35.5t70 10.5t64.5 -5t20.5 -19q0 -8 -7 -19.5t-33 -42t-67 -76.5l-60 -68 q-30 -31 -90 -31q-22 0 -31.5 4z" />
<glyph unicode="&#x16a;" horiz-adv-x="1266" d="M148 0zM369 38.5q-109 48.5 -165 140.5t-56 220v810q0 40 71 40h14q71 0 71 -40v-816q0 -78 43 -139t118 -95t168 -34q94 0 169 34.5t117.5 95.5t42.5 138v816q0 40 71 40h15q70 0 70 -40v-810q0 -128 -56 -220t-165 -140.5t-264 -48.5t-264 48.5zM408.5 1415 q-8.5 13 -8.5 41v17q0 28 8.5 41t27.5 13h397q18 0 26 -13t8 -41v-17q0 -29 -8 -41.5t-26 -12.5h-397q-19 0 -27.5 13z" />
<glyph unicode="&#x172;" horiz-adv-x="1266" d="M1118 1209v-810q0 -163 -90.5 -266.5t-260.5 -131.5v-3q0 -13 -9 -40q-13 -46 -13 -69q0 -56 32.5 -73t78.5 -17q14 0 44 8q31 9 48 9q34 0 34 -44q0 -56 -37 -77t-109 -21q-123 0 -166 58.5t-43 122.5q0 91 35 135h-29q-155 0 -264 48.5t-165 140.5t-56 220v810 q0 40 71 40h14q71 0 71 -40v-816q0 -78 43 -139t118 -95t168 -34q94 0 169 34.5t117.5 95.5t42.5 138v816q0 40 71 40h15q70 0 70 -40z" />
<glyph unicode="&#x16e;" horiz-adv-x="1266" d="M148 0zM369 38.5q-109 48.5 -165 140.5t-56 220v810q0 40 71 40h14q71 0 71 -40v-816q0 -78 43 -139t118 -95t168 -34q94 0 169 34.5t117.5 95.5t42.5 138v816q0 40 71 40h15q70 0 70 -40v-810q0 -128 -56 -220t-165 -140.5t-264 -48.5t-264 48.5zM557.5 1336.5 q-34.5 19.5 -54.5 54t-20 75.5t20 76t54.5 55t75.5 20t75.5 -20t54.5 -55t20 -76t-20 -75.5t-54.5 -54t-75.5 -19.5t-75.5 19.5zM696 1404q26 25 26 62t-26 63t-63 26t-62 -25.5t-25 -63.5q0 -37 25 -62t62 -25t63 25z" />
<glyph unicode="&#x168;" horiz-adv-x="1266" d="M148 0zM369 38.5q-109 48.5 -165 140.5t-56 220v810q0 40 71 40h14q71 0 71 -40v-816q0 -78 43 -139t118 -95t168 -34q94 0 169 34.5t117.5 95.5t42.5 138v816q0 40 71 40h15q70 0 70 -40v-810q0 -128 -56 -220t-165 -140.5t-264 -48.5t-264 48.5zM343 1374q-17 7 -17 21 q0 12 6 23q28 66 67.5 94.5t96.5 28.5q36 0 74 -10.5t95 -30.5q47 -18 80 -27t60 -9q24 0 41.5 11.5t35.5 40.5q18 26 35 26q6 0 18 -5l14 -5q11 -4 16 -9t5 -13q0 -11 -8 -24q-28 -65 -67.5 -93t-94.5 -28q-38 0 -76.5 10.5t-100.5 31.5q-49 18 -80 26.5t-57 8.5 q-22 0 -39 -12.5t-36 -41.5q-9 -14 -16 -20t-16 -6q-6 0 -18 5z" />
<glyph unicode="V" horiz-adv-x="1097" d="M450 25l-407 1170q-6 12 -6 23q0 14 19.5 22.5t57.5 8.5h16q61 0 71 -29l329 -949l18 -93h5l20 95l328 947q11 29 72 29h10q77 0 77 -31q0 -10 -6 -25l-407 -1168q-9 -28 -71 -28h-55q-62 0 -71 28z" />
<glyph unicode="W" horiz-adv-x="1568" d="M336 25l-304 1168q-1 5 -3 13t-2 12q0 14 19 22.5t58 8.5h17q29 0 48 -7t23 -22l226 -875q6 -26 26 -133q5 -31 6 -33q22 92 43 171l215 868q7 31 69 31h28q63 0 70 -31l220 -875q10 -39 19.5 -93t11.5 -71q21 86 43 169l215 872q7 29 70 29h11q76 0 76 -31q0 -7 -5 -25 l-307 -1168q-8 -28 -72 -28h-72q-65 0 -71 28l-195 724l-36 231l-38 -231l-194 -724q-6 -28 -70 -28h-73q-66 0 -72 28z" />
<glyph unicode="&#x1e82;" horiz-adv-x="1568" d="M27 0zM336 25l-304 1168q-1 5 -3 13t-2 12q0 14 19 22.5t58 8.5h17q29 0 48 -7t23 -22l226 -875q6 -26 26 -133q5 -31 6 -33q22 92 43 171l215 868q7 31 69 31h28q63 0 70 -31l220 -875q10 -39 19.5 -93t11.5 -71q21 86 43 169l215 872q7 29 70 29h11q76 0 76 -31 q0 -7 -5 -25l-307 -1168q-8 -28 -72 -28h-72q-65 0 -71 28l-195 724l-36 231l-38 -231l-194 -724q-6 -28 -70 -28h-73q-66 0 -72 28zM713 1372q0 12 18 46t86 152q14 24 40.5 35t69.5 11q45 0 65 -5t20 -19q0 -9 -8 -21t-38.5 -47t-77.5 -89l-43 -49q-14 -15 -38 -23t-53 -8 q-41 0 -41 17z" />
<glyph unicode="&#x174;" horiz-adv-x="1568" d="M27 0zM336 25l-304 1168q-1 5 -3 13t-2 12q0 14 19 22.5t58 8.5h17q29 0 48 -7t23 -22l226 -875q6 -26 26 -133q5 -31 6 -33q22 92 43 171l215 868q7 31 69 31h28q63 0 70 -31l220 -875q10 -39 19.5 -93t11.5 -71q21 86 43 169l215 872q7 29 70 29h11q76 0 76 -31 q0 -7 -5 -25l-307 -1168q-8 -28 -72 -28h-72q-65 0 -71 28l-195 724l-36 231l-38 -231l-194 -724q-6 -28 -70 -28h-73q-66 0 -72 28zM569 1363q0 12 11 32l99 156q26 39 82 39h44q57 0 82 -39l102 -156q11 -17 11 -30q0 -27 -43 -27h-4q-17 0 -31 5.5t-28 18.5l-111 131 l-109 -131q-24 -24 -60 -24h-4q-41 0 -41 25z" />
<glyph unicode="&#x1e84;" horiz-adv-x="1568" d="M27 0zM336 25l-304 1168q-1 5 -3 13t-2 12q0 14 19 22.5t58 8.5h17q29 0 48 -7t23 -22l226 -875q6 -26 26 -133q5 -31 6 -33q22 92 43 171l215 868q7 31 69 31h28q63 0 70 -31l220 -875q10 -39 19.5 -93t11.5 -71q21 86 43 169l215 872q7 29 70 29h11q76 0 76 -31 q0 -7 -5 -25l-307 -1168q-8 -28 -72 -28h-72q-65 0 -71 28l-195 724l-36 231l-38 -231l-194 -724q-6 -28 -70 -28h-73q-66 0 -72 28zM583 1432v91q0 40 78 40q71 0 71 -40v-91q0 -38 -78 -38q-71 0 -71 38zM839 1432v91q0 40 78 40q71 0 71 -40v-91q0 -38 -78 -38 q-71 0 -71 38z" />
<glyph unicode="&#x1e80;" horiz-adv-x="1568" d="M27 0zM336 25l-304 1168q-1 5 -3 13t-2 12q0 14 19 22.5t58 8.5h17q29 0 48 -7t23 -22l226 -875q6 -26 26 -133q5 -31 6 -33q22 92 43 171l215 868q7 31 69 31h28q63 0 70 -31l220 -875q10 -39 19.5 -93t11.5 -71q21 86 43 169l215 872q7 29 70 29h11q76 0 76 -31 q0 -7 -5 -25l-307 -1168q-8 -28 -72 -28h-72q-65 0 -71 28l-195 724l-36 231l-38 -231l-194 -724q-6 -28 -70 -28h-73q-66 0 -72 28zM781.5 1363q-23.5 8 -38.5 23l-72 82q-65 74 -80.5 93.5t-15.5 30.5q0 14 20.5 19t65.5 5q43 0 69 -10.5t41 -35.5q65 -113 84 -149.5 t19 -48.5q0 -9 -9.5 -13t-31.5 -4q-28 0 -51.5 8z" />
<glyph unicode="X" horiz-adv-x="1087" d="M55 4q-19 7 -19 23q0 12 14 32l398 590l-356 537q-14 21 -14 32q0 31 82 31h26q56 0 75 -27l285 -429l293 430q9 13 30 19.5t47 6.5h10q44 0 63 -7.5t19 -23.5q0 -6 -4.5 -14.5t-9.5 -17.5l-356 -528l401 -599q14 -20 14 -32q0 -15 -19 -22.5t-63 -7.5h-29q-30 0 -48 5.5 t-28 21.5l-327 488l-331 -490q-15 -25 -77 -25h-13q-44 0 -63 7z" />
<glyph unicode="Y" horiz-adv-x="994" d="M418 36v602l-372 548q-14 19 -14 32q0 31 82 31h19q30 0 48.5 -6t28.5 -21l292 -437l298 438q16 26 80 26h12q37 -2 53.5 -9.5t16.5 -21.5q0 -9 -15 -32l-372 -553v-597q0 -39 -72 -39h-14q-71 0 -71 39z" />
<glyph unicode="&#xdd;" horiz-adv-x="994" d="M32 0zM418 36v602l-372 548q-14 19 -14 32q0 31 82 31h19q30 0 48.5 -6t28.5 -21l292 -437l298 438q16 26 80 26h12q37 -2 53.5 -9.5t16.5 -21.5q0 -9 -15 -32l-372 -553v-597q0 -39 -72 -39h-14q-71 0 -71 39zM426 1372q0 12 18 46t86 152q14 24 40.5 35t69.5 11 q45 0 65 -5t20 -19q0 -9 -8 -21t-38.5 -47t-77.5 -89l-43 -49q-14 -15 -38 -23t-53 -8q-41 0 -41 17z" />
<glyph unicode="&#x176;" horiz-adv-x="994" d="M32 0zM418 36v602l-372 548q-14 19 -14 32q0 31 82 31h19q30 0 48.5 -6t28.5 -21l292 -437l298 438q16 26 80 26h12q37 -2 53.5 -9.5t16.5 -21.5q0 -9 -15 -32l-372 -553v-597q0 -39 -72 -39h-14q-71 0 -71 39zM282 1363q0 12 11 32l99 156q26 39 82 39h44q57 0 82 -39 l102 -156q11 -17 11 -30q0 -27 -43 -27h-4q-17 0 -31 5.5t-28 18.5l-111 131l-109 -131q-24 -24 -60 -24h-4q-41 0 -41 25z" />
<glyph unicode="&#x178;" horiz-adv-x="994" d="M32 0zM418 36v602l-372 548q-14 19 -14 32q0 31 82 31h19q30 0 48.5 -6t28.5 -21l292 -437l298 438q16 26 80 26h12q37 -2 53.5 -9.5t16.5 -21.5q0 -9 -15 -32l-372 -553v-597q0 -39 -72 -39h-14q-71 0 -71 39zM296 1432v91q0 40 78 40q71 0 71 -40v-91q0 -38 -78 -38 q-71 0 -71 38zM552 1432v91q0 40 78 40q71 0 71 -40v-91q0 -38 -78 -38q-71 0 -71 38z" />
<glyph unicode="&#x1ef4;" horiz-adv-x="994" d="M32 0zM418 36v602l-372 548q-14 19 -14 32q0 31 82 31h19q30 0 48.5 -6t28.5 -21l292 -437l298 438q16 26 80 26h12q37 -2 53.5 -9.5t16.5 -21.5q0 -9 -15 -32l-372 -553v-597q0 -39 -72 -39h-14q-71 0 -71 39zM496 -141zM425 -272v91q0 18 19 29t60 11q71 0 71 -40v-91 q0 -38 -78 -38q-72 0 -72 38z" />
<glyph unicode="&#x1ef2;" horiz-adv-x="994" d="M32 0zM418 36v602l-372 548q-14 19 -14 32q0 31 82 31h19q30 0 48.5 -6t28.5 -21l292 -437l298 438q16 26 80 26h12q37 -2 53.5 -9.5t16.5 -21.5q0 -9 -15 -32l-372 -553v-597q0 -39 -72 -39h-14q-71 0 -71 39zM494.5 1363q-23.5 8 -38.5 23l-72 82q-65 74 -80.5 93.5 t-15.5 30.5q0 14 20.5 19t65.5 5q43 0 69 -10.5t41 -35.5q65 -113 84 -149.5t19 -48.5q0 -9 -9.5 -13t-31.5 -4q-28 0 -51.5 8z" />
<glyph unicode="&#x1ef6;" horiz-adv-x="994" d="M32 0zM418 36v602l-372 548q-14 19 -14 32q0 31 82 31h19q30 0 48.5 -6t28.5 -21l292 -437l298 438q16 26 80 26h12q37 -2 53.5 -9.5t16.5 -21.5q0 -9 -15 -32l-372 -553v-597q0 -39 -72 -39h-14q-71 0 -71 39zM474 1324.5q-22 9.5 -22 20.5q0 15 10.5 27.5t33.5 31.5 q31 25 48.5 48.5t17.5 56.5q0 23 -18.5 35t-47.5 12q-26 0 -42 -5t-26.5 -11t-13.5 -6q-10 0 -26 22.5t-16 35.5q0 12 21.5 25t54 21.5t63.5 8.5q35 0 72 -12t63 -40t26 -73q0 -53 -33 -100t-73.5 -77t-54.5 -30q-15 0 -37 9.5z" />
<glyph unicode="&#x1ef8;" horiz-adv-x="994" d="M32 0zM418 36v602l-372 548q-14 19 -14 32q0 31 82 31h19q30 0 48.5 -6t28.5 -21l292 -437l298 438q16 26 80 26h12q37 -2 53.5 -9.5t16.5 -21.5q0 -9 -15 -32l-372 -553v-597q0 -39 -72 -39h-14q-71 0 -71 39zM207 1374q-17 7 -17 21q0 12 6 23q28 66 67.5 94.5 t96.5 28.5q36 0 74 -10.5t95 -30.5q47 -18 80 -27t60 -9q24 0 41.5 11.5t35.5 40.5q18 26 35 26q6 0 18 -5l14 -5q11 -4 16 -9t5 -13q0 -11 -8 -24q-28 -65 -67.5 -93t-94.5 -28q-38 0 -76.5 10.5t-100.5 31.5q-49 18 -80 26.5t-57 8.5q-22 0 -39 -12.5t-36 -41.5 q-9 -14 -16 -20t-16 -6q-6 0 -18 5z" />
<glyph unicode="Z" horiz-adv-x="1095" d="M82.5 33.5q-14.5 33.5 -14.5 60.5q0 14 5 22l729 993h-640q-19 0 -27.5 14.5t-8.5 46.5v14q0 32 8.5 46t27.5 14h814q6 0 15.5 -16t16.5 -38t7 -40q0 -13 -5 -21l-729 -994h695q19 0 27.5 -14t8.5 -46v-14q0 -32 -8.5 -46.5t-27.5 -14.5h-865q-14 0 -28.5 33.5z" />
<glyph unicode="&#x179;" horiz-adv-x="1095" d="M68 0zM82.5 33.5q-14.5 33.5 -14.5 60.5q0 14 5 22l729 993h-640q-19 0 -27.5 14.5t-8.5 46.5v14q0 32 8.5 46t27.5 14h814q6 0 15.5 -16t16.5 -38t7 -40q0 -13 -5 -21l-729 -994h695q19 0 27.5 -14t8.5 -46v-14q0 -32 -8.5 -46.5t-27.5 -14.5h-865q-14 0 -28.5 33.5z M476 1372q0 12 18 46t86 152q14 24 40.5 35t69.5 11q45 0 65 -5t20 -19q0 -9 -8 -21t-38.5 -47t-77.5 -89l-43 -49q-14 -15 -38 -23t-53 -8q-41 0 -41 17z" />
<glyph unicode="&#x17d;" horiz-adv-x="1095" d="M68 0zM82.5 33.5q-14.5 33.5 -14.5 60.5q0 14 5 22l729 993h-640q-19 0 -27.5 14.5t-8.5 46.5v14q0 32 8.5 46t27.5 14h814q6 0 15.5 -16t16.5 -38t7 -40q0 -13 -5 -21l-729 -994h695q19 0 27.5 -14t8.5 -46v-14q0 -32 -8.5 -46.5t-27.5 -14.5h-865q-14 0 -28.5 33.5z M443 1388l-99 156q-10 17 -10 33q0 11 10.5 17.5t30.5 6.5h3q36 0 60 -23l109 -131l111 131q14 12 28 17.5t32 5.5h3q20 0 31.5 -7t11.5 -19q0 -14 -11 -31l-101 -156q-28 -40 -82 -40h-45q-53 0 -82 40z" />
<glyph unicode="&#x17b;" horiz-adv-x="1095" d="M68 0zM82.5 33.5q-14.5 33.5 -14.5 60.5q0 14 5 22l729 993h-640q-19 0 -27.5 14.5t-8.5 46.5v14q0 32 8.5 46t27.5 14h814q6 0 15.5 -16t16.5 -38t7 -40q0 -13 -5 -21l-729 -994h695q19 0 27.5 -14t8.5 -46v-14q0 -32 -8.5 -46.5t-27.5 -14.5h-865q-14 0 -28.5 33.5z M474 1432v91q0 18 19 29t60 11q71 0 71 -40v-91q0 -38 -78 -38q-72 0 -72 38z" />
<glyph unicode="&#x1e92;" horiz-adv-x="1095" d="M68 0zM82.5 33.5q-14.5 33.5 -14.5 60.5q0 14 5 22l729 993h-640q-19 0 -27.5 14.5t-8.5 46.5v14q0 32 8.5 46t27.5 14h814q6 0 15.5 -16t16.5 -38t7 -40q0 -13 -5 -21l-729 -994h695q19 0 27.5 -14t8.5 -46v-14q0 -32 -8.5 -46.5t-27.5 -14.5h-865q-14 0 -28.5 33.5z M565 -141zM494 -272v91q0 18 19 29t60 11q71 0 71 -40v-91q0 -38 -78 -38q-72 0 -72 38z" />
<glyph horiz-adv-x="1217" d="M172 0zM172 0zM172 36v1173q0 40 72 40h14q71 0 71 -40v-1173q0 -39 -71 -39h-14q-72 0 -72 39zM179 1372q0 12 18 46t86 152q14 24 40.5 35t69.5 11q45 0 65 -5t20 -19q0 -9 -8 -21t-38.5 -47t-77.5 -89l-43 -49q-14 -15 -38 -23t-53 -8q-41 0 -41 17zM567.5 2 q-55.5 12 -55.5 44q0 7 5 32t13.5 46t21.5 21q2 0 22 -4q26 -6 45.5 -9.5t44.5 -3.5q132 0 190.5 52t58.5 167v862q0 40 71 40h14q72 0 72 -40v-844q0 -177 -90.5 -276t-286.5 -99q-70 0 -125.5 12zM912 1372q0 12 18 46t86 152q14 24 40.5 35t69.5 11q45 0 65 -5t20 -19 q0 -9 -8 -21t-38.5 -47t-77.5 -89l-43 -49q-14 -15 -38 -23t-53 -8q-41 0 -41 17z" />
<glyph horiz-adv-x="994" d="M870 1209v-670q0 -211 -37.5 -331.5t-115 -171.5t-207.5 -51q-101 0 -185 17t-134 42.5t-54 49.5q-2 18 -2 44q0 54 18 54q7 0 36 -13q62 -27 132.5 -46t174.5 -19q79 0 127.5 38t71.5 121.5t25 222.5q-60 -57 -133.5 -89t-149.5 -32q-95 0 -164 34.5t-106 100t-37 154.5 v545q0 40 71 40h7q72 0 72 -40v-532q0 -81 52.5 -126.5t145.5 -45.5q65 0 130 33.5t112 91.5v579q0 40 72 40h6q72 0 72 -40z" />
<glyph horiz-adv-x="994" d="M130 0zM870 1209v-670q0 -211 -37.5 -331.5t-115 -171.5t-207.5 -51q-101 0 -185 17t-134 42.5t-54 49.5q-2 18 -2 44q0 54 18 54q7 0 36 -13q62 -27 132.5 -46t174.5 -19q79 0 127.5 38t71.5 121.5t25 222.5q-60 -57 -133.5 -89t-149.5 -32q-95 0 -164 34.5t-106 100 t-37 154.5v545q0 40 71 40h7q72 0 72 -40v-532q0 -81 52.5 -126.5t145.5 -45.5q65 0 130 33.5t112 91.5v579q0 40 72 40h6q72 0 72 -40zM426 1372q0 12 18 46t86 152q14 24 40.5 35t69.5 11q45 0 65 -5t20 -19q0 -9 -8 -21t-38.5 -47t-77.5 -89l-43 -49q-14 -15 -38 -23 t-53 -8q-41 0 -41 17z" />
<glyph horiz-adv-x="994" d="M130 0zM870 1209v-670q0 -211 -37.5 -331.5t-115 -171.5t-207.5 -51q-101 0 -185 17t-134 42.5t-54 49.5q-2 18 -2 44q0 54 18 54q7 0 36 -13q62 -27 132.5 -46t174.5 -19q79 0 127.5 38t71.5 121.5t25 222.5q-60 -57 -133.5 -89t-149.5 -32q-95 0 -164 34.5t-106 100 t-37 154.5v545q0 40 71 40h7q72 0 72 -40v-532q0 -81 52.5 -126.5t145.5 -45.5q65 0 130 33.5t112 91.5v579q0 40 72 40h6q72 0 72 -40zM282 1363q0 12 11 32l99 156q26 39 82 39h44q57 0 82 -39l102 -156q11 -17 11 -30q0 -27 -43 -27h-4q-17 0 -31 5.5t-28 18.5l-111 131 l-109 -131q-24 -24 -60 -24h-4q-41 0 -41 25z" />
<glyph horiz-adv-x="994" d="M130 0zM870 1209v-670q0 -211 -37.5 -331.5t-115 -171.5t-207.5 -51q-101 0 -185 17t-134 42.5t-54 49.5q-2 18 -2 44q0 54 18 54q7 0 36 -13q62 -27 132.5 -46t174.5 -19q79 0 127.5 38t71.5 121.5t25 222.5q-60 -57 -133.5 -89t-149.5 -32q-95 0 -164 34.5t-106 100 t-37 154.5v545q0 40 71 40h7q72 0 72 -40v-532q0 -81 52.5 -126.5t145.5 -45.5q65 0 130 33.5t112 91.5v579q0 40 72 40h6q72 0 72 -40zM296 1432v91q0 40 78 40q71 0 71 -40v-91q0 -38 -78 -38q-71 0 -71 38zM552 1432v91q0 40 78 40q71 0 71 -40v-91q0 -38 -78 -38 q-71 0 -71 38z" />
<glyph horiz-adv-x="994" d="M130 0zM870 1209v-670q0 -211 -37.5 -331.5t-115 -171.5t-207.5 -51q-101 0 -185 17t-134 42.5t-54 49.5q-2 18 -2 44q0 54 18 54q7 0 36 -13q62 -27 132.5 -46t174.5 -19q79 0 127.5 38t71.5 121.5t25 222.5q-60 -57 -133.5 -89t-149.5 -32q-95 0 -164 34.5t-106 100 t-37 154.5v545q0 40 71 40h7q72 0 72 -40v-532q0 -81 52.5 -126.5t145.5 -45.5q65 0 130 33.5t112 91.5v579q0 40 72 40h6q72 0 72 -40zM482 -141zM411 -272v91q0 18 19 29t60 11q71 0 71 -40v-91q0 -38 -78 -38q-72 0 -72 38z" />
<glyph horiz-adv-x="994" d="M130 0zM870 1209v-670q0 -211 -37.5 -331.5t-115 -171.5t-207.5 -51q-101 0 -185 17t-134 42.5t-54 49.5q-2 18 -2 44q0 54 18 54q7 0 36 -13q62 -27 132.5 -46t174.5 -19q79 0 127.5 38t71.5 121.5t25 222.5q-60 -57 -133.5 -89t-149.5 -32q-95 0 -164 34.5t-106 100 t-37 154.5v545q0 40 71 40h7q72 0 72 -40v-532q0 -81 52.5 -126.5t145.5 -45.5q65 0 130 33.5t112 91.5v579q0 40 72 40h6q72 0 72 -40zM494.5 1363q-23.5 8 -38.5 23l-72 82q-65 74 -80.5 93.5t-15.5 30.5q0 14 20.5 19t65.5 5q43 0 69 -10.5t41 -35.5q65 -113 84 -149.5 t19 -48.5q0 -9 -9.5 -13t-31.5 -4q-28 0 -51.5 8z" />
<glyph horiz-adv-x="994" d="M130 0zM870 1209v-670q0 -211 -37.5 -331.5t-115 -171.5t-207.5 -51q-101 0 -185 17t-134 42.5t-54 49.5q-2 18 -2 44q0 54 18 54q7 0 36 -13q62 -27 132.5 -46t174.5 -19q79 0 127.5 38t71.5 121.5t25 222.5q-60 -57 -133.5 -89t-149.5 -32q-95 0 -164 34.5t-106 100 t-37 154.5v545q0 40 71 40h7q72 0 72 -40v-532q0 -81 52.5 -126.5t145.5 -45.5q65 0 130 33.5t112 91.5v579q0 40 72 40h6q72 0 72 -40zM474 1324.5q-22 9.5 -22 20.5q0 15 10.5 27.5t33.5 31.5q31 25 48.5 48.5t17.5 56.5q0 23 -18.5 35t-47.5 12q-26 0 -42 -5t-26.5 -11 t-13.5 -6q-10 0 -26 22.5t-16 35.5q0 12 21.5 25t54 21.5t63.5 8.5q35 0 72 -12t63 -40t26 -73q0 -53 -33 -100t-73.5 -77t-54.5 -30q-15 0 -37 9.5z" />
<glyph horiz-adv-x="994" d="M130 0zM870 1209v-670q0 -211 -37.5 -331.5t-115 -171.5t-207.5 -51q-101 0 -185 17t-134 42.5t-54 49.5q-2 18 -2 44q0 54 18 54q7 0 36 -13q62 -27 132.5 -46t174.5 -19q79 0 127.5 38t71.5 121.5t25 222.5q-60 -57 -133.5 -89t-149.5 -32q-95 0 -164 34.5t-106 100 t-37 154.5v545q0 40 71 40h7q72 0 72 -40v-532q0 -81 52.5 -126.5t145.5 -45.5q65 0 130 33.5t112 91.5v579q0 40 72 40h6q72 0 72 -40zM207 1374q-17 7 -17 21q0 12 6 23q28 66 67.5 94.5t96.5 28.5q36 0 74 -10.5t95 -30.5q47 -18 80 -27t60 -9q24 0 41.5 11.5t35.5 40.5 q18 26 35 26q6 0 18 -5l14 -5q11 -4 16 -9t5 -13q0 -11 -8 -24q-28 -65 -67.5 -93t-94.5 -28q-38 0 -76.5 10.5t-100.5 31.5q-49 18 -80 26.5t-57 8.5q-22 0 -39 -12.5t-36 -41.5q-9 -14 -16 -20t-16 -6q-6 0 -18 5z" />
<glyph horiz-adv-x="1101" d="M102 0zM242 144q-140 154 -140 479q0 633 575 633q84 0 163 -17.5t128 -43.5t49 -50q0 -15 -10.5 -40t-24.5 -44t-25 -19q-5 0 -28 13q-52 28 -109 47t-139 19q-215 0 -316.5 -119.5t-101.5 -380.5q0 -255 100.5 -375.5t310.5 -120.5q88 0 151 21t121 52q28 15 34 15 q11 0 25.5 -19t25.5 -42.5t11 -33.5q0 -25 -50.5 -55.5t-135 -51.5t-182.5 -21q-292 0 -432 154zM575.5 1359q-9.5 4 -9.5 13q0 12 12.5 60.5t36.5 137.5q8 26 36 36t74 10q45 0 65 -5t20 -19t-21.5 -53t-91.5 -153q-11 -16 -35 -23.5t-55 -7.5q-22 0 -31.5 4z" />
<glyph horiz-adv-x="1278" d="M160 0zM177 6.5q-17 9.5 -17 29.5v1173q0 40 72 40h37q28 0 44.5 -8t29.5 -26l568 -857l53 -100v951q0 40 70 40h14q70 0 70 -40v-1173q0 -20 -17 -29.5t-53 -9.5h-36q-25 0 -40 6t-23 19l-586 884l-48 92v-962q0 -39 -71 -39h-12q-38 0 -55 9.5zM584.5 1359 q-9.5 4 -9.5 13q0 12 12.5 60.5t36.5 137.5q8 26 36 36t74 10q45 0 65 -5t20 -19t-21.5 -53t-91.5 -153q-11 -16 -35 -23.5t-55 -7.5q-22 0 -31.5 4z" />
<glyph horiz-adv-x="1300" d="M102 0zM242 152q-140 162 -140 474q0 311 139.5 470.5t407.5 159.5q269 0 409 -159.5t140 -470.5q0 -312 -140 -474t-409 -162q-267 0 -407 162zM937 253.5q100 128.5 100 372.5t-99.5 369.5t-288.5 125.5q-188 0 -287 -125.5t-99 -369.5q0 -245 99 -373t287 -128 t288 128.5zM594.5 1359q-9.5 4 -9.5 13q0 12 12.5 60.5t36.5 137.5q8 26 36 36t74 10q45 0 65 -5t20 -19t-21.5 -53t-91.5 -153q-11 -16 -35 -23.5t-55 -7.5q-22 0 -31.5 4z" />
<glyph horiz-adv-x="889" d="M66 0zM251.5 11.5q-84.5 21.5 -135 52t-50.5 55.5q0 14 11.5 37t26.5 41t24 18q8 0 35 -16q62 -32 123 -53t148 -21q68 0 121 26t82.5 73.5t29.5 109.5q0 66 -35.5 109.5t-86 69t-146.5 63.5q-104 40 -164.5 74.5t-103 100.5t-42.5 175q0 95 49 170.5t139 117.5t207 42 q53 0 121 -14.5t116.5 -39.5t48.5 -55q0 -13 -10.5 -35.5t-24.5 -40.5t-22 -18q-9 0 -36 15q-45 24 -89 38.5t-107 14.5q-103 0 -166.5 -53t-63.5 -148q0 -57 28 -94t71 -59t120 -51q5 -1 23 -8q106 -41 173.5 -79.5t115 -110.5t47.5 -184q0 -105 -48.5 -183t-138 -119.5 t-208.5 -41.5q-98 0 -182.5 21.5zM389.5 1359q-9.5 4 -9.5 13q0 12 12.5 60.5t36.5 137.5q8 26 36 36t74 10q45 0 65 -5t20 -19t-21.5 -53t-91.5 -153q-11 -16 -35 -23.5t-55 -7.5q-22 0 -31.5 4z" />
<glyph horiz-adv-x="1095" d="M68 0zM82.5 33.5q-14.5 33.5 -14.5 60.5q0 14 5 22l729 993h-640q-19 0 -27.5 14.5t-8.5 46.5v14q0 32 8.5 46t27.5 14h814q6 0 15.5 -16t16.5 -38t7 -40q0 -13 -5 -21l-729 -994h695q19 0 27.5 -14t8.5 -46v-14q0 -32 -8.5 -46.5t-27.5 -14.5h-865q-14 0 -28.5 33.5z M492.5 1359q-9.5 4 -9.5 13q0 12 12.5 60.5t36.5 137.5q8 26 36 36t74 10q45 0 65 -5t20 -19t-21.5 -53t-91.5 -153q-11 -16 -35 -23.5t-55 -7.5q-22 0 -31.5 4z" />
<glyph unicode="a" horiz-adv-x="969" d="M171 57q-84 67 -84 199q0 139 85 209.5t207.5 91t297.5 23.5v84q0 67 -45.5 107.5t-149.5 40.5q-79 0 -138.5 -18.5t-111.5 -44.5q-22 -11 -27 -11q-12 0 -26.5 17.5t-25 39.5t-10.5 32q0 23 47.5 50t124.5 45t161 18q167 0 259 -73t92 -205v-399q0 -116 10.5 -167.5 t10.5 -56.5q0 -22 -33.5 -31.5t-62.5 -9.5q-24 0 -35.5 27t-22.5 78l-4 20q-55 -61 -129.5 -97t-169.5 -36q-136 0 -220 67zM549 151q62 32 128 91v210q-132 -1 -217 -11t-149 -50.5t-64 -125.5q0 -71 38.5 -108.5t113.5 -37.5q88 0 150 32z" />
<glyph unicode="&#xe1;" horiz-adv-x="969" d="M87 0zM171 57q-84 67 -84 199q0 139 85 209.5t207.5 91t297.5 23.5v84q0 67 -45.5 107.5t-149.5 40.5q-79 0 -138.5 -18.5t-111.5 -44.5q-22 -11 -27 -11q-12 0 -26.5 17.5t-25 39.5t-10.5 32q0 23 47.5 50t124.5 45t161 18q167 0 259 -73t92 -205v-399 q0 -116 10.5 -167.5t10.5 -56.5q0 -22 -33.5 -31.5t-62.5 -9.5q-24 0 -35.5 27t-22.5 78l-4 20q-55 -61 -129.5 -97t-169.5 -36q-136 0 -220 67zM549 151q62 32 128 91v210q-132 -1 -217 -11t-149 -50.5t-64 -125.5q0 -71 38.5 -108.5t113.5 -37.5q88 0 150 32zM414 1058 q0 12 18 46t86 152q14 24 40.5 35t69.5 11q45 0 65 -5t20 -19q0 -9 -8 -21t-38.5 -47t-77.5 -89l-43 -49q-14 -15 -38 -23t-53 -8q-41 0 -41 17z" />
<glyph unicode="&#x103;" horiz-adv-x="969" d="M87 0zM171 57q-84 67 -84 199q0 139 85 209.5t207.5 91t297.5 23.5v84q0 67 -45.5 107.5t-149.5 40.5q-79 0 -138.5 -18.5t-111.5 -44.5q-22 -11 -27 -11q-12 0 -26.5 17.5t-25 39.5t-10.5 32q0 23 47.5 50t124.5 45t161 18q167 0 259 -73t92 -205v-399 q0 -116 10.5 -167.5t10.5 -56.5q0 -22 -33.5 -31.5t-62.5 -9.5q-24 0 -35.5 27t-22.5 78l-4 20q-55 -61 -129.5 -97t-169.5 -36q-136 0 -220 67zM549 151q62 32 128 91v210q-132 -1 -217 -11t-149 -50.5t-64 -125.5q0 -71 38.5 -108.5t113.5 -37.5q88 0 150 32zM361.5 1064 q-58.5 23 -95 69t-36.5 111q0 14 6 20.5t20 6.5q15 0 20.5 -5t10.5 -19t8 -20q19 -36 70.5 -53t121.5 -17t120.5 17t69.5 53l9 20q5 14 10.5 19t19.5 5q15 0 21 -6.5t6 -20.5q0 -65 -36.5 -111t-95 -69t-124.5 -23q-67 0 -125.5 23z" />
<glyph unicode="&#x1eaf;" horiz-adv-x="969" d="M87 0zM171 57q-84 67 -84 199q0 139 85 209.5t207.5 91t297.5 23.5v84q0 67 -45.5 107.5t-149.5 40.5q-79 0 -138.5 -18.5t-111.5 -44.5q-22 -11 -27 -11q-12 0 -26.5 17.5t-25 39.5t-10.5 32q0 23 47.5 50t124.5 45t161 18q167 0 259 -73t92 -205v-399 q0 -116 10.5 -167.5t10.5 -56.5q0 -22 -33.5 -31.5t-62.5 -9.5q-24 0 -35.5 27t-22.5 78l-4 20q-55 -61 -129.5 -97t-169.5 -36q-136 0 -220 67zM549 151q62 32 128 91v210q-132 -1 -217 -11t-149 -50.5t-64 -125.5q0 -71 38.5 -108.5t113.5 -37.5q88 0 150 32zM361.5 1064 q-58.5 23 -95 69t-36.5 111q0 14 6 20.5t20 6.5q15 0 20.5 -5t10.5 -19t8 -20q19 -36 70.5 -53t121.5 -17t120.5 17t69.5 53l9 20q5 14 10.5 19t19.5 5q15 0 21 -6.5t6 -20.5q0 -65 -36.5 -111t-95 -69t-124.5 -23q-67 0 -125.5 23zM415 1321q0 12 18 46t86 152 q14 24 40.5 35t69.5 11q45 0 65 -5t20 -19q0 -9 -8 -21t-38.5 -47t-77.5 -89l-43 -49q-14 -15 -38 -23t-53 -8q-41 0 -41 17z" />
<glyph unicode="&#x1eb7;" horiz-adv-x="969" d="M87 0zM171 57q-84 67 -84 199q0 139 85 209.5t207.5 91t297.5 23.5v84q0 67 -45.5 107.5t-149.5 40.5q-79 0 -138.5 -18.5t-111.5 -44.5q-22 -11 -27 -11q-12 0 -26.5 17.5t-25 39.5t-10.5 32q0 23 47.5 50t124.5 45t161 18q167 0 259 -73t92 -205v-399 q0 -116 10.5 -167.5t10.5 -56.5q0 -22 -33.5 -31.5t-62.5 -9.5q-24 0 -35.5 27t-22.5 78l-4 20q-55 -61 -129.5 -97t-169.5 -36q-136 0 -220 67zM549 151q62 32 128 91v210q-132 -1 -217 -11t-149 -50.5t-64 -125.5q0 -71 38.5 -108.5t113.5 -37.5q88 0 150 32zM464 -141z M393 -272v91q0 18 19 29t60 11q71 0 71 -40v-91q0 -38 -78 -38q-72 0 -72 38zM361.5 1064q-58.5 23 -95 69t-36.5 111q0 14 6 20.5t20 6.5q15 0 20.5 -5t10.5 -19t8 -20q19 -36 70.5 -53t121.5 -17t120.5 17t69.5 53l9 20q5 14 10.5 19t19.5 5q15 0 21 -6.5t6 -20.5 q0 -65 -36.5 -111t-95 -69t-124.5 -23q-67 0 -125.5 23z" />
<glyph unicode="&#x1eb1;" horiz-adv-x="969" d="M87 0zM171 57q-84 67 -84 199q0 139 85 209.5t207.5 91t297.5 23.5v84q0 67 -45.5 107.5t-149.5 40.5q-79 0 -138.5 -18.5t-111.5 -44.5q-22 -11 -27 -11q-12 0 -26.5 17.5t-25 39.5t-10.5 32q0 23 47.5 50t124.5 45t161 18q167 0 259 -73t92 -205v-399 q0 -116 10.5 -167.5t10.5 -56.5q0 -22 -33.5 -31.5t-62.5 -9.5q-24 0 -35.5 27t-22.5 78l-4 20q-55 -61 -129.5 -97t-169.5 -36q-136 0 -220 67zM549 151q62 32 128 91v210q-132 -1 -217 -11t-149 -50.5t-64 -125.5q0 -71 38.5 -108.5t113.5 -37.5q88 0 150 32zM361.5 1064 q-58.5 23 -95 69t-36.5 111q0 14 6 20.5t20 6.5q15 0 20.5 -5t10.5 -19t8 -20q19 -36 70.5 -53t121.5 -17t120.5 17t69.5 53l9 20q5 14 10.5 19t19.5 5q15 0 21 -6.5t6 -20.5q0 -65 -36.5 -111t-95 -69t-124.5 -23q-67 0 -125.5 23zM483.5 1312q-23.5 8 -38.5 23l-72 82 q-65 74 -80.5 93.5t-15.5 30.5q0 14 20.5 19t65.5 5q43 0 69 -10.5t41 -35.5q65 -113 84 -149.5t19 -48.5q0 -9 -9.5 -13t-31.5 -4q-28 0 -51.5 8z" />
<glyph unicode="&#x1eb3;" horiz-adv-x="969" d="M87 0zM171 57q-84 67 -84 199q0 139 85 209.5t207.5 91t297.5 23.5v84q0 67 -45.5 107.5t-149.5 40.5q-79 0 -138.5 -18.5t-111.5 -44.5q-22 -11 -27 -11q-12 0 -26.5 17.5t-25 39.5t-10.5 32q0 23 47.5 50t124.5 45t161 18q167 0 259 -73t92 -205v-399 q0 -116 10.5 -167.5t10.5 -56.5q0 -22 -33.5 -31.5t-62.5 -9.5q-24 0 -35.5 27t-22.5 78l-4 20q-55 -61 -129.5 -97t-169.5 -36q-136 0 -220 67zM549 151q62 32 128 91v210q-132 -1 -217 -11t-149 -50.5t-64 -125.5q0 -71 38.5 -108.5t113.5 -37.5q88 0 150 32zM361.5 1064 q-58.5 23 -95 69t-36.5 111q0 14 6 20.5t20 6.5q15 0 20.5 -5t10.5 -19t8 -20q19 -36 70.5 -53t121.5 -17t120.5 17t69.5 53l9 20q5 14 10.5 19t19.5 5q15 0 21 -6.5t6 -20.5q0 -65 -36.5 -111t-95 -69t-124.5 -23q-67 0 -125.5 23zM463 1273.5q-22 9.5 -22 20.5 q0 15 10.5 27.5t33.5 31.5q31 25 48.5 48.5t17.5 56.5q0 23 -18.5 35t-47.5 12q-26 0 -42 -5t-26.5 -11t-13.5 -6q-10 0 -26 22.5t-16 35.5q0 12 21.5 25t54 21.5t63.5 8.5q35 0 72 -12t63 -40t26 -73q0 -53 -33 -100t-73.5 -77t-54.5 -30q-15 0 -37 9.5z" />
<glyph unicode="&#x1eb5;" horiz-adv-x="969" d="M207 1323q-15 7 -15 21q0 12 5 23q25 66 61.5 94.5t88.5 28.5q33 0 68 -10.5t86 -30.5q43 -18 72 -27t54 -9q22 0 38 11.5t33 40.5q8 14 15.5 20t16.5 6q6 0 16 -5l12 -5q11 -4 15.5 -9t4.5 -13q0 -10 -7 -24q-25 -65 -61 -93t-87 -28q-35 0 -69.5 10t-91.5 32 q-46 18 -73.5 26.5t-51.5 8.5q-20 0 -35.5 -12.5t-31.5 -41.5q-8 -14 -15 -20t-15 -6q-4 0 -16 5zM361.5 1064q-58.5 23 -95 69t-36.5 111q0 14 6 20.5t20 6.5q15 0 20.5 -5t10.5 -19t8 -20q19 -36 70.5 -53t121.5 -17t120.5 17t69.5 53l9 20q5 14 10.5 19t19.5 5 q15 0 21 -6.5t6 -20.5q0 -65 -36.5 -111t-95 -69t-124.5 -23q-67 0 -125.5 23zM171 57q-84 67 -84 199q0 139 85 209.5t207.5 91t297.5 23.5v84q0 67 -45.5 107.5t-149.5 40.5q-79 0 -138.5 -18.5t-111.5 -44.5q-22 -11 -27 -11q-12 0 -26.5 17.5t-25 39.5t-10.5 32 q0 23 47.5 50t124.5 45t161 18q167 0 259 -73t92 -205v-399q0 -116 10.5 -167.5t10.5 -56.5q0 -22 -33.5 -31.5t-62.5 -9.5q-24 0 -35.5 27t-22.5 78l-4 20q-55 -61 -129.5 -97t-169.5 -36q-136 0 -220 67zM549 151q62 32 128 91v210q-132 -1 -217 -11t-149 -50.5 t-64 -125.5q0 -71 38.5 -108.5t113.5 -37.5q88 0 150 32z" />
<glyph unicode="&#xe2;" horiz-adv-x="969" d="M87 0zM171 57q-84 67 -84 199q0 139 85 209.5t207.5 91t297.5 23.5v84q0 67 -45.5 107.5t-149.5 40.5q-79 0 -138.5 -18.5t-111.5 -44.5q-22 -11 -27 -11q-12 0 -26.5 17.5t-25 39.5t-10.5 32q0 23 47.5 50t124.5 45t161 18q167 0 259 -73t92 -205v-399 q0 -116 10.5 -167.5t10.5 -56.5q0 -22 -33.5 -31.5t-62.5 -9.5q-24 0 -35.5 27t-22.5 78l-4 20q-55 -61 -129.5 -97t-169.5 -36q-136 0 -220 67zM549 151q62 32 128 91v210q-132 -1 -217 -11t-149 -50.5t-64 -125.5q0 -71 38.5 -108.5t113.5 -37.5q88 0 150 32zM270 1049 q0 12 11 32l99 156q26 39 82 39h44q57 0 82 -39l102 -156q11 -17 11 -30q0 -27 -43 -27h-4q-17 0 -31 5.5t-28 18.5l-111 131l-109 -131q-24 -24 -60 -24h-4q-41 0 -41 25z" />
<glyph unicode="&#x1ea5;" horiz-adv-x="969" d="M663 1287q0 12 18 46t86 152q14 24 40.5 35t69.5 11q45 0 65 -5t20 -19q0 -9 -8 -21t-38.5 -47t-77.5 -89l-43 -49q-14 -15 -38 -23t-53 -8q-41 0 -41 17zM277 1049q0 12 11 32l99 156q26 39 82 39h44q41 0 65 -39l92 -156q11 -17 11 -30q0 -27 -43 -27h-4q-18 0 -34 6 t-24 18l-85 131l-109 -131q-24 -24 -60 -24h-4q-41 0 -41 25zM171 57q-84 67 -84 199q0 139 85 209.5t207.5 91t297.5 23.5v84q0 67 -45.5 107.5t-149.5 40.5q-79 0 -138.5 -18.5t-111.5 -44.5q-22 -11 -27 -11q-12 0 -26.5 17.5t-25 39.5t-10.5 32q0 23 47.5 50t124.5 45 t161 18q167 0 259 -73t92 -205v-399q0 -116 10.5 -167.5t10.5 -56.5q0 -22 -33.5 -31.5t-62.5 -9.5q-24 0 -35.5 27t-22.5 78l-4 20q-55 -61 -129.5 -97t-169.5 -36q-136 0 -220 67zM549 151q62 32 128 91v210q-132 -1 -217 -11t-149 -50.5t-64 -125.5q0 -71 38.5 -108.5 t113.5 -37.5q88 0 150 32z" />
<glyph unicode="&#x1ead;" horiz-adv-x="969" d="M87 0zM171 57q-84 67 -84 199q0 139 85 209.5t207.5 91t297.5 23.5v84q0 67 -45.5 107.5t-149.5 40.5q-79 0 -138.5 -18.5t-111.5 -44.5q-22 -11 -27 -11q-12 0 -26.5 17.5t-25 39.5t-10.5 32q0 23 47.5 50t124.5 45t161 18q167 0 259 -73t92 -205v-399 q0 -116 10.5 -167.5t10.5 -56.5q0 -22 -33.5 -31.5t-62.5 -9.5q-24 0 -35.5 27t-22.5 78l-4 20q-55 -61 -129.5 -97t-169.5 -36q-136 0 -220 67zM549 151q62 32 128 91v210q-132 -1 -217 -11t-149 -50.5t-64 -125.5q0 -71 38.5 -108.5t113.5 -37.5q88 0 150 32zM464 -141z M393 -272v91q0 18 19 29t60 11q71 0 71 -40v-91q0 -38 -78 -38q-72 0 -72 38zM270 1049q0 12 11 32l99 156q26 39 82 39h44q57 0 82 -39l102 -156q11 -17 11 -30q0 -27 -43 -27h-4q-17 0 -31 5.5t-28 18.5l-111 131l-109 -131q-24 -24 -60 -24h-4q-41 0 -41 25z" />
<glyph unicode="&#x1ea7;" horiz-adv-x="969" d="M731.5 1278q-23.5 8 -38.5 23l-72 82q-65 74 -80.5 93.5t-15.5 30.5q0 14 20.5 19t65.5 5q43 0 69 -10.5t41 -35.5q65 -113 84 -149.5t19 -48.5q0 -9 -9.5 -13t-31.5 -4q-28 0 -51.5 8zM277 1049q0 12 11 32l99 156q26 39 82 39h44q41 0 65 -39l92 -156q11 -17 11 -30 q0 -27 -43 -27h-4q-18 0 -34 6t-24 18l-85 131l-109 -131q-24 -24 -60 -24h-4q-41 0 -41 25zM171 57q-84 67 -84 199q0 139 85 209.5t207.5 91t297.5 23.5v84q0 67 -45.5 107.5t-149.5 40.5q-79 0 -138.5 -18.5t-111.5 -44.5q-22 -11 -27 -11q-12 0 -26.5 17.5t-25 39.5 t-10.5 32q0 23 47.5 50t124.5 45t161 18q167 0 259 -73t92 -205v-399q0 -116 10.5 -167.5t10.5 -56.5q0 -22 -33.5 -31.5t-62.5 -9.5q-24 0 -35.5 27t-22.5 78l-4 20q-55 -61 -129.5 -97t-169.5 -36q-136 0 -220 67zM549 151q62 32 128 91v210q-132 -1 -217 -11t-149 -50.5 t-64 -125.5q0 -71 38.5 -108.5t113.5 -37.5q88 0 150 32z" />
<glyph unicode="&#x1ea9;" horiz-adv-x="969" d="M711 1239.5q-22 9.5 -22 20.5q0 15 10.5 27.5t33.5 31.5q31 25 48.5 48.5t17.5 56.5q0 23 -18.5 35t-47.5 12q-26 0 -41.5 -5t-26.5 -11t-14 -6q-10 0 -26 22.5t-16 35.5q0 12 21.5 25t54 21.5t63.5 8.5q35 0 72 -12t63 -40t26 -73q0 -53 -33 -100t-73.5 -77t-54.5 -30 q-15 0 -37 9.5zM277 1049q0 12 11 32l99 156q26 39 82 39h44q41 0 65 -39l92 -156q11 -17 11 -30q0 -27 -43 -27h-4q-18 0 -34 6t-24 18l-85 131l-109 -131q-24 -24 -60 -24h-4q-41 0 -41 25zM171 57q-84 67 -84 199q0 139 85 209.5t207.5 91t297.5 23.5v84 q0 67 -45.5 107.5t-149.5 40.5q-79 0 -138.5 -18.5t-111.5 -44.5q-22 -11 -27 -11q-12 0 -26.5 17.5t-25 39.5t-10.5 32q0 23 47.5 50t124.5 45t161 18q167 0 259 -73t92 -205v-399q0 -116 10.5 -167.5t10.5 -56.5q0 -22 -33.5 -31.5t-62.5 -9.5q-24 0 -35.5 27t-22.5 78 l-4 20q-55 -61 -129.5 -97t-169.5 -36q-136 0 -220 67zM549 151q62 32 128 91v210q-132 -1 -217 -11t-149 -50.5t-64 -125.5q0 -71 38.5 -108.5t113.5 -37.5q88 0 150 32z" />
<glyph unicode="&#x1eab;" horiz-adv-x="969" d="M213 1398q-15 7 -15 21q0 12 5 23q25 66 61.5 94.5t88.5 28.5q33 0 68 -10.5t86 -30.5q43 -18 72 -27t54 -9q22 0 38 11.5t33 40.5q8 14 15.5 20t16.5 6q6 0 16 -5l12 -5q11 -4 15.5 -9t4.5 -13q0 -10 -7 -24q-25 -65 -61 -93t-87 -28q-35 0 -69.5 10t-91.5 32 q-46 18 -73.5 26.5t-51.5 8.5q-20 0 -35.5 -12.5t-31.5 -41.5q-8 -14 -15 -20t-15 -6q-4 0 -16 5zM270 1049q0 12 11 32l99 156q26 39 82 39h44q57 0 82 -39l102 -156q11 -17 11 -30q0 -27 -43 -27h-4q-17 0 -31 5.5t-28 18.5l-111 131l-109 -131q-24 -24 -60 -24h-4 q-41 0 -41 25zM171 57q-84 67 -84 199q0 139 85 209.5t207.5 91t297.5 23.5v84q0 67 -45.5 107.5t-149.5 40.5q-79 0 -138.5 -18.5t-111.5 -44.5q-22 -11 -27 -11q-12 0 -26.5 17.5t-25 39.5t-10.5 32q0 23 47.5 50t124.5 45t161 18q167 0 259 -73t92 -205v-399 q0 -116 10.5 -167.5t10.5 -56.5q0 -22 -33.5 -31.5t-62.5 -9.5q-24 0 -35.5 27t-22.5 78l-4 20q-55 -61 -129.5 -97t-169.5 -36q-136 0 -220 67zM549 151q62 32 128 91v210q-132 -1 -217 -11t-149 -50.5t-64 -125.5q0 -71 38.5 -108.5t113.5 -37.5q88 0 150 32z" />
<glyph unicode="&#xe4;" horiz-adv-x="969" d="M87 0zM171 57q-84 67 -84 199q0 139 85 209.5t207.5 91t297.5 23.5v84q0 67 -45.5 107.5t-149.5 40.5q-79 0 -138.5 -18.5t-111.5 -44.5q-22 -11 -27 -11q-12 0 -26.5 17.5t-25 39.5t-10.5 32q0 23 47.5 50t124.5 45t161 18q167 0 259 -73t92 -205v-399 q0 -116 10.5 -167.5t10.5 -56.5q0 -22 -33.5 -31.5t-62.5 -9.5q-24 0 -35.5 27t-22.5 78l-4 20q-55 -61 -129.5 -97t-169.5 -36q-136 0 -220 67zM549 151q62 32 128 91v210q-132 -1 -217 -11t-149 -50.5t-64 -125.5q0 -71 38.5 -108.5t113.5 -37.5q88 0 150 32zM284 1118v91 q0 40 78 40q71 0 71 -40v-91q0 -38 -78 -38q-71 0 -71 38zM540 1118v91q0 40 78 40q71 0 71 -40v-91q0 -38 -78 -38q-71 0 -71 38z" />
<glyph unicode="&#x1ea1;" horiz-adv-x="969" d="M87 0zM171 57q-84 67 -84 199q0 139 85 209.5t207.5 91t297.5 23.5v84q0 67 -45.5 107.5t-149.5 40.5q-79 0 -138.5 -18.5t-111.5 -44.5q-22 -11 -27 -11q-12 0 -26.5 17.5t-25 39.5t-10.5 32q0 23 47.5 50t124.5 45t161 18q167 0 259 -73t92 -205v-399 q0 -116 10.5 -167.5t10.5 -56.5q0 -22 -33.5 -31.5t-62.5 -9.5q-24 0 -35.5 27t-22.5 78l-4 20q-55 -61 -129.5 -97t-169.5 -36q-136 0 -220 67zM549 151q62 32 128 91v210q-132 -1 -217 -11t-149 -50.5t-64 -125.5q0 -71 38.5 -108.5t113.5 -37.5q88 0 150 32zM464 -141z M393 -272v91q0 18 19 29t60 11q71 0 71 -40v-91q0 -38 -78 -38q-72 0 -72 38z" />
<glyph unicode="&#xe0;" horiz-adv-x="969" d="M87 0zM171 57q-84 67 -84 199q0 139 85 209.5t207.5 91t297.5 23.5v84q0 67 -45.5 107.5t-149.5 40.5q-79 0 -138.5 -18.5t-111.5 -44.5q-22 -11 -27 -11q-12 0 -26.5 17.5t-25 39.5t-10.5 32q0 23 47.5 50t124.5 45t161 18q167 0 259 -73t92 -205v-399 q0 -116 10.5 -167.5t10.5 -56.5q0 -22 -33.5 -31.5t-62.5 -9.5q-24 0 -35.5 27t-22.5 78l-4 20q-55 -61 -129.5 -97t-169.5 -36q-136 0 -220 67zM549 151q62 32 128 91v210q-132 -1 -217 -11t-149 -50.5t-64 -125.5q0 -71 38.5 -108.5t113.5 -37.5q88 0 150 32zM482.5 1049 q-23.5 8 -38.5 23l-72 82q-65 74 -80.5 93.5t-15.5 30.5q0 14 20.5 19t65.5 5q43 0 69 -10.5t41 -35.5q65 -113 84 -149.5t19 -48.5q0 -9 -9.5 -13t-31.5 -4q-28 0 -51.5 8z" />
<glyph unicode="&#x1ea3;" horiz-adv-x="969" d="M87 0zM171 57q-84 67 -84 199q0 139 85 209.5t207.5 91t297.5 23.5v84q0 67 -45.5 107.5t-149.5 40.5q-79 0 -138.5 -18.5t-111.5 -44.5q-22 -11 -27 -11q-12 0 -26.5 17.5t-25 39.5t-10.5 32q0 23 47.5 50t124.5 45t161 18q167 0 259 -73t92 -205v-399 q0 -116 10.5 -167.5t10.5 -56.5q0 -22 -33.5 -31.5t-62.5 -9.5q-24 0 -35.5 27t-22.5 78l-4 20q-55 -61 -129.5 -97t-169.5 -36q-136 0 -220 67zM549 151q62 32 128 91v210q-132 -1 -217 -11t-149 -50.5t-64 -125.5q0 -71 38.5 -108.5t113.5 -37.5q88 0 150 32zM462 1010.5 q-22 9.5 -22 20.5q0 15 10.5 27.5t33.5 31.5q31 25 48.5 48.5t17.5 56.5q0 23 -18.5 35t-47.5 12q-26 0 -42 -5t-26.5 -11t-13.5 -6q-10 0 -26 22.5t-16 35.5q0 12 21.5 25t54 21.5t63.5 8.5q35 0 72 -12t63 -40t26 -73q0 -53 -33 -100t-73.5 -77t-54.5 -30q-15 0 -37 9.5z " />
<glyph unicode="&#x101;" horiz-adv-x="969" d="M87 0zM171 57q-84 67 -84 199q0 139 85 209.5t207.5 91t297.5 23.5v84q0 67 -45.5 107.5t-149.5 40.5q-79 0 -138.5 -18.5t-111.5 -44.5q-22 -11 -27 -11q-12 0 -26.5 17.5t-25 39.5t-10.5 32q0 23 47.5 50t124.5 45t161 18q167 0 259 -73t92 -205v-399 q0 -116 10.5 -167.5t10.5 -56.5q0 -22 -33.5 -31.5t-62.5 -9.5q-24 0 -35.5 27t-22.5 78l-4 20q-55 -61 -129.5 -97t-169.5 -36q-136 0 -220 67zM549 151q62 32 128 91v210q-132 -1 -217 -11t-149 -50.5t-64 -125.5q0 -71 38.5 -108.5t113.5 -37.5q88 0 150 32zM260.5 1101 q-8.5 13 -8.5 41v17q0 28 8.5 41t27.5 13h397q18 0 26 -13t8 -41v-17q0 -29 -8 -41.5t-26 -12.5h-397q-19 0 -27.5 13z" />
<glyph unicode="&#x105;" horiz-adv-x="969" d="M1061 -197q0 -56 -37 -77t-109 -21q-123 0 -166 58.5t-43 122.5q0 76 25 120q-15 12 -23 37.5t-12.5 49t-5.5 30.5q-55 -61 -129.5 -97t-169.5 -36q-136 0 -220 67t-84 199q0 139 85 209.5t207.5 91t297.5 23.5v84q0 67 -45.5 107.5t-149.5 40.5q-79 0 -138.5 -18.5 t-111.5 -44.5q-22 -11 -27 -11q-12 0 -26.5 17.5t-25 39.5t-10.5 32q0 23 47.5 50t124.5 45t161 18q167 0 259 -73t92 -205v-399q0 -116 10.5 -167.5t10.5 -56.5q0 -3 -2 -9v-1q0 -12 -9 -39q-13 -46 -13 -70q0 -56 32.5 -73t78.5 -17q14 0 44 8q31 9 48 9q34 0 34 -44z M677 452q-132 -1 -217 -11t-149 -50.5t-64 -125.5q0 -71 38.5 -108.5t113.5 -37.5q88 0 150 32t128 91v210z" />
<glyph unicode="&#xe5;" horiz-adv-x="969" d="M87 0zM171 57q-84 67 -84 199q0 139 85 209.5t207.5 91t297.5 23.5v84q0 67 -45.5 107.5t-149.5 40.5q-79 0 -138.5 -18.5t-111.5 -44.5q-22 -11 -27 -11q-12 0 -26.5 17.5t-25 39.5t-10.5 32q0 23 47.5 50t124.5 45t161 18q167 0 259 -73t92 -205v-399 q0 -116 10.5 -167.5t10.5 -56.5q0 -22 -33.5 -31.5t-62.5 -9.5q-24 0 -35.5 27t-22.5 78l-4 20q-55 -61 -129.5 -97t-169.5 -36q-136 0 -220 67zM549 151q62 32 128 91v210q-132 -1 -217 -11t-149 -50.5t-64 -125.5q0 -71 38.5 -108.5t113.5 -37.5q88 0 150 32z M409.5 1022.5q-34.5 19.5 -54.5 54t-20 75.5t20 76t54.5 55t75.5 20t75.5 -20t54.5 -55t20 -76t-20 -75.5t-54.5 -54t-75.5 -19.5t-75.5 19.5zM548 1090q26 25 26 62t-26 63t-63 26t-62 -25.5t-25 -63.5q0 -37 25 -62t62 -25t63 25z" />
<glyph unicode="&#x1fb;" horiz-adv-x="969" d="M87 0zM171 57q-84 67 -84 199q0 139 85 209.5t207.5 91t297.5 23.5v84q0 67 -45.5 107.5t-149.5 40.5q-79 0 -138.5 -18.5t-111.5 -44.5q-22 -11 -27 -11q-12 0 -26.5 17.5t-25 39.5t-10.5 32q0 23 47.5 50t124.5 45t161 18q167 0 259 -73t92 -205v-399 q0 -116 10.5 -167.5t10.5 -56.5q0 -22 -33.5 -31.5t-62.5 -9.5q-24 0 -35.5 27t-22.5 78l-4 20q-55 -61 -129.5 -97t-169.5 -36q-136 0 -220 67zM549 151q62 32 128 91v210q-132 -1 -217 -11t-149 -50.5t-64 -125.5q0 -71 38.5 -108.5t113.5 -37.5q88 0 150 32z M409.5 1022.5q-34.5 19.5 -54.5 54t-20 75.5t20 76t54.5 55t75.5 20t75.5 -20t54.5 -55t20 -76t-20 -75.5t-54.5 -54t-75.5 -19.5t-75.5 19.5zM548 1090q26 25 26 62t-26 63t-63 26t-62 -25.5t-25 -63.5q0 -37 25 -62t62 -25t63 25zM430 1396q0 12 18 46t86 152 q14 24 40.5 35t69.5 11q45 0 65 -5t20 -19q0 -9 -8 -21t-38.5 -47t-77.5 -89l-43 -49q-14 -15 -38 -23t-53 -8q-41 0 -41 17z" />
<glyph unicode="&#xe3;" horiz-adv-x="969" d="M87 0zM171 57q-84 67 -84 199q0 139 85 209.5t207.5 91t297.5 23.5v84q0 67 -45.5 107.5t-149.5 40.5q-79 0 -138.5 -18.5t-111.5 -44.5q-22 -11 -27 -11q-12 0 -26.5 17.5t-25 39.5t-10.5 32q0 23 47.5 50t124.5 45t161 18q167 0 259 -73t92 -205v-399 q0 -116 10.5 -167.5t10.5 -56.5q0 -22 -33.5 -31.5t-62.5 -9.5q-24 0 -35.5 27t-22.5 78l-4 20q-55 -61 -129.5 -97t-169.5 -36q-136 0 -220 67zM549 151q62 32 128 91v210q-132 -1 -217 -11t-149 -50.5t-64 -125.5q0 -71 38.5 -108.5t113.5 -37.5q88 0 150 32zM195 1060 q-17 7 -17 21q0 12 6 23q28 66 67.5 94.5t96.5 28.5q36 0 74 -10.5t95 -30.5q47 -18 80 -27t60 -9q24 0 41.5 11.5t35.5 40.5q18 26 35 26q6 0 18 -5l14 -5q11 -4 16 -9t5 -13q0 -11 -8 -24q-28 -65 -67.5 -93t-94.5 -28q-38 0 -76.5 10.5t-100.5 31.5q-49 18 -80 26.5 t-57 8.5q-22 0 -39 -12.5t-36 -41.5q-9 -14 -16 -20t-16 -6q-6 0 -18 5z" />
<glyph unicode="&#xe6;" horiz-adv-x="1474" d="M164 57q-84 67 -84 199q0 119 72.5 183.5t184.5 88t264 27.5q13 112 49 185q-44 72 -175 72q-79 0 -138.5 -18.5t-111.5 -44.5q-22 -11 -27 -11q-12 0 -26.5 17.5t-25.5 39.5t-11 32q0 23 47.5 50t125 45t161.5 18q178 0 271 -85q98 85 270 85q182 0 274.5 -112 t92.5 -326q0 -10 -10.5 -28t-25 -32t-24.5 -14h-561q11 -161 76 -235.5t197 -74.5q75 0 129 18t104 44q22 12 27 12q12 0 26.5 -17t25 -39t10.5 -32q0 -22 -44 -49t-117.5 -46t-158.5 -19q-219 0 -325 112q-60 -50 -142.5 -81t-179.5 -31q-136 0 -220 67zM1218 556 q0 127 -53.5 191.5t-159.5 64.5q-231 0 -249 -256h462zM524.5 143.5q57.5 24.5 111.5 68.5q-39 95 -40 215q-104 -2 -180 -14.5t-126 -47.5t-50 -100q0 -71 38.5 -108.5t112.5 -37.5q76 0 133.5 24.5z" />
<glyph unicode="&#x1fd;" horiz-adv-x="1474" d="M80 0zM164 57q-84 67 -84 199q0 119 72.5 183.5t184.5 88t264 27.5q13 112 49 185q-44 72 -175 72q-79 0 -138.5 -18.5t-111.5 -44.5q-22 -11 -27 -11q-12 0 -26.5 17.5t-25.5 39.5t-11 32q0 23 47.5 50t125 45t161.5 18q178 0 271 -85q98 85 270 85q182 0 274.5 -112 t92.5 -326q0 -10 -10.5 -28t-25 -32t-24.5 -14h-561q11 -161 76 -235.5t197 -74.5q75 0 129 18t104 44q22 12 27 12q12 0 26.5 -17t25 -39t10.5 -32q0 -22 -44 -49t-117.5 -46t-158.5 -19q-219 0 -325 112q-60 -50 -142.5 -81t-179.5 -31q-136 0 -220 67zM1218 556 q0 127 -53.5 191.5t-159.5 64.5q-231 0 -249 -256h462zM524.5 143.5q57.5 24.5 111.5 68.5q-39 95 -40 215q-104 -2 -180 -14.5t-126 -47.5t-50 -100q0 -71 38.5 -108.5t112.5 -37.5q76 0 133.5 24.5zM666 1058q0 12 18 46t86 152q14 24 40.5 35t69.5 11q45 0 65 -5t20 -19 q0 -9 -8 -21t-38.5 -47t-77.5 -89l-43 -49q-14 -15 -38 -23t-53 -8q-41 0 -41 17z" />
<glyph unicode="b" horiz-adv-x="1012" d="M288 123q-8 -55 -29 -105q-4 -12 -15.5 -16.5t-31.5 -4.5h-7q-28 0 -40.5 9.5t-12.5 29.5v1262q0 39 70 39h8q70 0 70 -39v-448q58 44 118 67t137 23q106 0 188 -55t127.5 -162t45.5 -257q0 -138 -42 -246.5t-120 -169t-183 -60.5q-156 0 -283 133zM702.5 212.5 q56.5 93.5 56.5 265.5q0 160 -60 244t-178 87q-59 0 -116 -20t-105 -60v-487q55 -59 118 -91t123 -32q105 0 161.5 93.5z" />
<glyph unicode="c" horiz-adv-x="862" d="M200.5 103.5q-108.5 113.5 -108.5 365.5q0 255 121 363t301 108q67 0 129 -11.5t100 -30.5t38 -40q0 -14 -9.5 -37t-23 -40.5t-24.5 -17.5q-3 0 -9 2.5t-11 4.5q-90 42 -194 42q-123 0 -190 -80.5t-67 -258.5q0 -126 27 -203.5t87.5 -114.5t161.5 -37q111 0 200 46 q9 2 13.5 4.5t6.5 2.5q11 0 25 -17t24.5 -39t10.5 -35q0 -21 -38 -42t-102.5 -34.5t-138.5 -13.5q-221 0 -329.5 113.5z" />
<glyph unicode="&#x107;" horiz-adv-x="862" d="M92 0zM200.5 103.5q-108.5 113.5 -108.5 365.5q0 255 121 363t301 108q67 0 129 -11.5t100 -30.5t38 -40q0 -14 -9.5 -37t-23 -40.5t-24.5 -17.5q-3 0 -9 2.5t-11 4.5q-90 42 -194 42q-123 0 -190 -80.5t-67 -258.5q0 -126 27 -203.5t87.5 -114.5t161.5 -37q111 0 200 46 q9 2 13.5 4.5t6.5 2.5q11 0 25 -17t24.5 -39t10.5 -35q0 -21 -38 -42t-102.5 -34.5t-138.5 -13.5q-221 0 -329.5 113.5zM421 1058q0 12 18 46t86 152q14 24 40.5 35t69.5 11q45 0 65 -5t20 -19q0 -9 -8 -21t-38.5 -47t-77.5 -89l-43 -49q-14 -15 -38 -23t-53 -8 q-41 0 -41 17z" />
<glyph unicode="&#x10d;" horiz-adv-x="862" d="M92 0zM200.5 103.5q-108.5 113.5 -108.5 365.5q0 255 121 363t301 108q67 0 129 -11.5t100 -30.5t38 -40q0 -14 -9.5 -37t-23 -40.5t-24.5 -17.5q-3 0 -9 2.5t-11 4.5q-90 42 -194 42q-123 0 -190 -80.5t-67 -258.5q0 -126 27 -203.5t87.5 -114.5t161.5 -37q111 0 200 46 q9 2 13.5 4.5t6.5 2.5q11 0 25 -17t24.5 -39t10.5 -35q0 -21 -38 -42t-102.5 -34.5t-138.5 -13.5q-221 0 -329.5 113.5zM387 1074l-99 156q-10 17 -10 33q0 11 10.5 17.5t30.5 6.5h3q36 0 60 -23l109 -131l111 131q14 12 28 17.5t32 5.5h3q20 0 31.5 -7t11.5 -19 q0 -14 -11 -31l-101 -156q-28 -40 -82 -40h-45q-53 0 -82 40z" />
<glyph unicode="&#xe7;" horiz-adv-x="862" d="M773.5 40q-35.5 -20 -95.5 -34t-130 -16l-22 -77h7q51 0 101 -27t50 -101q0 -93 -58.5 -126t-145.5 -33q-42 0 -90.5 9.5t-81.5 27t-33 40.5q0 19 8 32.5t26 13.5q9 0 23.5 -5t21.5 -7q29 -11 52.5 -17t49.5 -6q43 0 72.5 12t29.5 49q0 30 -18 43.5t-52 24.5 q-24 8 -35.5 15t-11.5 21q0 11 7 36t24 77q-191 14 -285.5 128t-94.5 349q0 255 121 363t301 108q67 0 129 -11.5t100 -30.5t38 -40q0 -14 -9.5 -37t-23 -40.5t-24.5 -17.5q-3 0 -9 2.5t-11 4.5q-90 42 -194 42q-123 0 -190 -80.5t-67 -258.5q0 -126 27 -203.5t87.5 -114.5 t161.5 -37q111 0 200 46q9 2 13.5 4.5t6.5 2.5q11 0 25 -17t24.5 -39t10.5 -35q0 -20 -35.5 -40z" />
<glyph unicode="&#x109;" horiz-adv-x="862" d="M92 0zM200.5 103.5q-108.5 113.5 -108.5 365.5q0 255 121 363t301 108q67 0 129 -11.5t100 -30.5t38 -40q0 -14 -9.5 -37t-23 -40.5t-24.5 -17.5q-3 0 -9 2.5t-11 4.5q-90 42 -194 42q-123 0 -190 -80.5t-67 -258.5q0 -126 27 -203.5t87.5 -114.5t161.5 -37q111 0 200 46 q9 2 13.5 4.5t6.5 2.5q11 0 25 -17t24.5 -39t10.5 -35q0 -21 -38 -42t-102.5 -34.5t-138.5 -13.5q-221 0 -329.5 113.5zM277 1049q0 12 11 32l99 156q26 39 82 39h44q57 0 82 -39l102 -156q11 -17 11 -30q0 -27 -43 -27h-4q-17 0 -31 5.5t-28 18.5l-111 131l-109 -131 q-24 -24 -60 -24h-4q-41 0 -41 25z" />
<glyph unicode="&#x10b;" horiz-adv-x="862" d="M92 0zM200.5 103.5q-108.5 113.5 -108.5 365.5q0 255 121 363t301 108q67 0 129 -11.5t100 -30.5t38 -40q0 -14 -9.5 -37t-23 -40.5t-24.5 -17.5q-3 0 -9 2.5t-11 4.5q-90 42 -194 42q-123 0 -190 -80.5t-67 -258.5q0 -126 27 -203.5t87.5 -114.5t161.5 -37q111 0 200 46 q9 2 13.5 4.5t6.5 2.5q11 0 25 -17t24.5 -39t10.5 -35q0 -21 -38 -42t-102.5 -34.5t-138.5 -13.5q-221 0 -329.5 113.5zM418 1118v91q0 18 19 29t60 11q71 0 71 -40v-91q0 -38 -78 -38q-72 0 -72 38z" />
<glyph unicode="d" horiz-adv-x="1005" d="M255 50.5q-78 60.5 -120.5 168.5t-42.5 245q0 151 45.5 258.5t127.5 162.5t189 55q77 0 136.5 -23t117.5 -67v448q0 39 70 39h8q71 0 71 -39v-1035q0 -116 11 -167.5t11 -56.5q0 -22 -33.5 -31.5t-62.5 -9.5q-20 0 -32 19t-16.5 38.5t-14.5 67.5q-127 -133 -283 -133 q-104 0 -182 60.5zM590.5 151q63.5 32 117.5 91v487q-96 80 -219 80q-119 -3 -179.5 -87t-60.5 -244q0 -172 56.5 -265.5t162.5 -93.5q59 0 122.5 32z" />
<glyph unicode="&#xf0;" horiz-adv-x="1012" d="M203.5 110.5q-105.5 120.5 -105.5 350.5t107 354.5t305 124.5q77 0 143 -20q-35 74 -82 160q-161 -22 -153 -22q-18 0 -32 18.5t-14 37.5q0 20 27 24l128 17q-25 37 -35.5 55.5t-10.5 30.5q0 21 27 25q26 4 48 4q28 0 47 -21q17 -21 59 -75l138 19q15 0 25.5 -11.5 t15 -25t4.5 -20.5q0 -9 -7 -15.5t-20 -7.5l-107 -14q95 -147 149 -309.5t54 -328.5q0 -231 -102.5 -351t-301.5 -120q-201 0 -306.5 120.5zM697 202.5q62 84.5 62 261.5q0 178 -62 263t-192 85q-129 0 -191.5 -84.5t-62.5 -263.5q0 -177 62 -261.5t192 -84.5t192 84.5z" />
<glyph unicode="&#x10f;" horiz-adv-x="1005" d="M92 0zM255 50.5q-78 60.5 -120.5 168.5t-42.5 245q0 151 45.5 258.5t127.5 162.5t189 55q77 0 136.5 -23t117.5 -67v448q0 39 70 39h8q71 0 71 -39v-1035q0 -116 11 -167.5t11 -56.5q0 -22 -33.5 -31.5t-62.5 -9.5q-20 0 -32 19t-16.5 38.5t-14.5 67.5 q-127 -133 -283 -133q-104 0 -182 60.5zM590.5 151q63.5 32 117.5 91v487q-96 80 -219 80q-119 -3 -179.5 -87t-60.5 -244q0 -172 56.5 -265.5t162.5 -93.5q59 0 122.5 32zM959 941q-16 6 -16 21q0 14 7 51q8 50 12 86t4 89q0 26 18 41t53 15h16q33 0 52 -13t19 -36 q0 -75 -22.5 -134t-53 -92.5t-53.5 -33.5q-20 0 -36 6z" />
<glyph unicode="&#x111;" horiz-adv-x="1005" d="M964 1177q8 -13 8 -41v-17q0 -29 -8 -41.5t-26 -12.5h-81v-802q0 -116 11 -167.5t11 -56.5q0 -22 -33.5 -31.5t-62.5 -9.5q-20 0 -32 19t-16.5 38.5t-14.5 67.5q-127 -133 -283 -133q-104 0 -182 60.5t-120.5 168.5t-42.5 245q0 151 45.5 258.5t127.5 162.5t189 55 q77 0 136.5 -23t117.5 -67v215h-167q-19 0 -27.5 13t-8.5 41v17q0 28 8.5 41t27.5 13h167v108q0 39 70 39h8q71 0 71 -39v-108h81q18 0 26 -13zM708 729q-96 80 -219 80q-119 -3 -179.5 -87t-60.5 -244q0 -172 56.5 -265.5t162.5 -93.5q59 0 122.5 32t117.5 91v487z" />
<glyph unicode="&#x1e0d;" horiz-adv-x="1005" d="M92 0zM255 50.5q-78 60.5 -120.5 168.5t-42.5 245q0 151 45.5 258.5t127.5 162.5t189 55q77 0 136.5 -23t117.5 -67v448q0 39 70 39h8q71 0 71 -39v-1035q0 -116 11 -167.5t11 -56.5q0 -22 -33.5 -31.5t-62.5 -9.5q-20 0 -32 19t-16.5 38.5t-14.5 67.5 q-127 -133 -283 -133q-104 0 -182 60.5zM590.5 151q63.5 32 117.5 91v487q-96 80 -219 80q-119 -3 -179.5 -87t-60.5 -244q0 -172 56.5 -265.5t162.5 -93.5q59 0 122.5 32zM500 -141zM429 -272v91q0 18 19 29t60 11q71 0 71 -40v-91q0 -38 -78 -38q-72 0 -72 38z" />
<glyph unicode="&#x1f3;" horiz-adv-x="1874" d="M92 0zM255 50.5q-78 60.5 -120.5 168.5t-42.5 245q0 151 45.5 258.5t127.5 162.5t189 55q77 0 136.5 -23t117.5 -67v448q0 39 70 39h8q71 0 71 -39v-1035q0 -116 11 -167.5t11 -56.5q0 -22 -33.5 -31.5t-62.5 -9.5q-20 0 -32 19t-16.5 38.5t-14.5 67.5 q-127 -133 -283 -133q-104 0 -182 60.5zM590.5 151q63.5 32 117.5 91v487q-96 80 -219 80q-119 -3 -179.5 -87t-60.5 -244q0 -172 56.5 -265.5t162.5 -93.5q59 0 122.5 32zM1085 32.5q-14 32.5 -14 58.5q0 10 5 20l521 691h-455q-19 0 -27 12.5t-8 40.5v22q0 28 8 40.5 t27 12.5h624q12 0 24 -33t12 -59q0 -9 -4 -19l-519 -691h489q19 0 27 -12.5t8 -40.5v-22q0 -27 -8 -40t-27 -13h-658q-11 0 -25 32.5z" />
<glyph unicode="&#x1c6;" horiz-adv-x="1874" d="M92 0zM255 50.5q-78 60.5 -120.5 168.5t-42.5 245q0 151 45.5 258.5t127.5 162.5t189 55q77 0 136.5 -23t117.5 -67v448q0 39 70 39h8q71 0 71 -39v-1035q0 -116 11 -167.5t11 -56.5q0 -22 -33.5 -31.5t-62.5 -9.5q-20 0 -32 19t-16.5 38.5t-14.5 67.5 q-127 -133 -283 -133q-104 0 -182 60.5zM590.5 151q63.5 32 117.5 91v487q-96 80 -219 80q-119 -3 -179.5 -87t-60.5 -244q0 -172 56.5 -265.5t162.5 -93.5q59 0 122.5 32zM1085 32.5q-14 32.5 -14 58.5q0 10 5 20l521 691h-455q-19 0 -27 12.5t-8 40.5v22q0 28 8 40.5 t27 12.5h624q12 0 24 -33t12 -59q0 -9 -4 -19l-519 -691h489q19 0 27 -12.5t8 -40.5v-22q0 -27 -8 -40t-27 -13h-658q-11 0 -25 32.5zM1335 1074l-99 156q-10 17 -10 33q0 11 10.5 17.5t30.5 6.5h3q36 0 60 -23l109 -131l111 131q14 12 28 17.5t32 5.5h3q20 0 31.5 -7 t11.5 -19q0 -14 -11 -31l-101 -156q-28 -40 -82 -40h-45q-53 0 -82 40z" />
<glyph unicode="e" horiz-adv-x="959" d="M205.5 105.5q-107.5 115.5 -107.5 353.5q0 236 105 358.5t309 122.5q182 0 274.5 -118t92.5 -346q0 -10 -10.5 -27.5t-25 -31t-24.5 -13.5h-561q11 -149 76.5 -217.5t197.5 -68.5q74 0 127.5 18t103.5 44q5 2 15 7t14 5q11 0 25.5 -17.5t25 -39t10.5 -31.5q0 -22 -44 -49 t-117.5 -46t-157.5 -19q-221 0 -328.5 115.5zM720 532q0 280 -213 280q-229 0 -249 -280h462z" />
<glyph unicode="&#xe9;" horiz-adv-x="959" d="M98 0zM205.5 105.5q-107.5 115.5 -107.5 353.5q0 236 105 358.5t309 122.5q182 0 274.5 -118t92.5 -346q0 -10 -10.5 -27.5t-25 -31t-24.5 -13.5h-561q11 -149 76.5 -217.5t197.5 -68.5q74 0 127.5 18t103.5 44q5 2 15 7t14 5q11 0 25.5 -17.5t25 -39t10.5 -31.5 q0 -22 -44 -49t-117.5 -46t-157.5 -19q-221 0 -328.5 115.5zM720 532q0 280 -213 280q-229 0 -249 -280h462zM409 1058q0 12 18 46t86 152q14 24 40.5 35t69.5 11q45 0 65 -5t20 -19q0 -9 -8 -21t-38.5 -47t-77.5 -89l-43 -49q-14 -15 -38 -23t-53 -8q-41 0 -41 17z" />
<glyph unicode="&#x115;" horiz-adv-x="959" d="M98 0zM205.5 105.5q-107.5 115.5 -107.5 353.5q0 236 105 358.5t309 122.5q182 0 274.5 -118t92.5 -346q0 -10 -10.5 -27.5t-25 -31t-24.5 -13.5h-561q11 -149 76.5 -217.5t197.5 -68.5q74 0 127.5 18t103.5 44q5 2 15 7t14 5q11 0 25.5 -17.5t25 -39t10.5 -31.5 q0 -22 -44 -49t-117.5 -46t-157.5 -19q-221 0 -328.5 115.5zM720 532q0 280 -213 280q-229 0 -249 -280h462zM356.5 1064q-58.5 23 -95 69t-36.5 111q0 14 6 20.5t20 6.5q15 0 20.5 -5t10.5 -19t8 -20q19 -36 70.5 -53t121.5 -17t120.5 17t69.5 53l9 20q5 14 10.5 19t19.5 5 q15 0 21 -6.5t6 -20.5q0 -65 -36.5 -111t-95 -69t-124.5 -23q-67 0 -125.5 23z" />
<glyph unicode="&#x11b;" horiz-adv-x="959" d="M98 0zM205.5 105.5q-107.5 115.5 -107.5 353.5q0 236 105 358.5t309 122.5q182 0 274.5 -118t92.5 -346q0 -10 -10.5 -27.5t-25 -31t-24.5 -13.5h-561q11 -149 76.5 -217.5t197.5 -68.5q74 0 127.5 18t103.5 44q5 2 15 7t14 5q11 0 25.5 -17.5t25 -39t10.5 -31.5 q0 -22 -44 -49t-117.5 -46t-157.5 -19q-221 0 -328.5 115.5zM720 532q0 280 -213 280q-229 0 -249 -280h462zM375 1074l-99 156q-10 17 -10 33q0 11 10.5 17.5t30.5 6.5h3q36 0 60 -23l109 -131l111 131q14 12 28 17.5t32 5.5h3q20 0 31.5 -7t11.5 -19q0 -14 -11 -31 l-101 -156q-28 -40 -82 -40h-45q-53 0 -82 40z" />
<glyph unicode="&#xea;" horiz-adv-x="959" d="M98 0zM205.5 105.5q-107.5 115.5 -107.5 353.5q0 236 105 358.5t309 122.5q182 0 274.5 -118t92.5 -346q0 -10 -10.5 -27.5t-25 -31t-24.5 -13.5h-561q11 -149 76.5 -217.5t197.5 -68.5q74 0 127.5 18t103.5 44q5 2 15 7t14 5q11 0 25.5 -17.5t25 -39t10.5 -31.5 q0 -22 -44 -49t-117.5 -46t-157.5 -19q-221 0 -328.5 115.5zM720 532q0 280 -213 280q-229 0 -249 -280h462zM265 1049q0 12 11 32l99 156q26 39 82 39h44q57 0 82 -39l102 -156q11 -17 11 -30q0 -27 -43 -27h-4q-17 0 -31 5.5t-28 18.5l-111 131l-109 -131q-24 -24 -60 -24 h-4q-41 0 -41 25z" />
<glyph unicode="&#x1ebf;" horiz-adv-x="959" d="M658 1287q0 12 18 46t86 152q14 24 40.5 35t69.5 11q45 0 65 -5t20 -19q0 -9 -8 -21t-38.5 -47t-77.5 -89l-43 -49q-14 -15 -38 -23t-53 -8q-41 0 -41 17zM272 1049q0 12 11 32l99 156q26 39 82 39h44q41 0 65 -39l92 -156q11 -17 11 -30q0 -27 -43 -27h-4q-18 0 -34 6 t-24 18l-85 131l-109 -131q-24 -24 -60 -24h-4q-41 0 -41 25zM205.5 105.5q-107.5 115.5 -107.5 353.5q0 236 105 358.5t309 122.5q182 0 274.5 -118t92.5 -346q0 -10 -10.5 -27.5t-25 -31t-24.5 -13.5h-561q11 -149 76.5 -217.5t197.5 -68.5q74 0 127.5 18t103.5 44 q5 2 15 7t14 5q11 0 25.5 -17.5t25 -39t10.5 -31.5q0 -22 -44 -49t-117.5 -46t-157.5 -19q-221 0 -328.5 115.5zM720 532q0 280 -213 280q-229 0 -249 -280h462z" />
<glyph unicode="&#x1ec7;" horiz-adv-x="959" d="M98 0zM205.5 105.5q-107.5 115.5 -107.5 353.5q0 236 105 358.5t309 122.5q182 0 274.5 -118t92.5 -346q0 -10 -10.5 -27.5t-25 -31t-24.5 -13.5h-561q11 -149 76.5 -217.5t197.5 -68.5q74 0 127.5 18t103.5 44q5 2 15 7t14 5q11 0 25.5 -17.5t25 -39t10.5 -31.5 q0 -22 -44 -49t-117.5 -46t-157.5 -19q-221 0 -328.5 115.5zM720 532q0 280 -213 280q-229 0 -249 -280h462zM481 -141zM410 -272v91q0 18 19 29t60 11q71 0 71 -40v-91q0 -38 -78 -38q-72 0 -72 38zM265 1049q0 12 11 32l99 156q26 39 82 39h44q57 0 82 -39l102 -156 q11 -17 11 -30q0 -27 -43 -27h-4q-17 0 -31 5.5t-28 18.5l-111 131l-109 -131q-24 -24 -60 -24h-4q-41 0 -41 25z" />
<glyph unicode="&#x1ec1;" horiz-adv-x="959" d="M726.5 1278q-23.5 8 -38.5 23l-72 82q-65 74 -80.5 93.5t-15.5 30.5q0 14 20.5 19t65.5 5q43 0 69 -10.5t41 -35.5q65 -113 84 -149.5t19 -48.5q0 -9 -9.5 -13t-31.5 -4q-28 0 -51.5 8zM272 1049q0 12 11 32l99 156q26 39 82 39h44q41 0 65 -39l92 -156q11 -17 11 -30 q0 -27 -43 -27h-4q-18 0 -34 6t-24 18l-85 131l-109 -131q-24 -24 -60 -24h-4q-41 0 -41 25zM205.5 105.5q-107.5 115.5 -107.5 353.5q0 236 105 358.5t309 122.5q182 0 274.5 -118t92.5 -346q0 -10 -10.5 -27.5t-25 -31t-24.5 -13.5h-561q11 -149 76.5 -217.5t197.5 -68.5 q74 0 127.5 18t103.5 44q5 2 15 7t14 5q11 0 25.5 -17.5t25 -39t10.5 -31.5q0 -22 -44 -49t-117.5 -46t-157.5 -19q-221 0 -328.5 115.5zM720 532q0 280 -213 280q-229 0 -249 -280h462z" />
<glyph unicode="&#x1ec3;" horiz-adv-x="959" d="M706 1239.5q-22 9.5 -22 20.5q0 15 10.5 27.5t33.5 31.5q31 25 48.5 48.5t17.5 56.5q0 23 -18.5 35t-47.5 12q-26 0 -41.5 -5t-26.5 -11t-14 -6q-10 0 -26 22.5t-16 35.5q0 12 21.5 25t54 21.5t63.5 8.5q35 0 72 -12t63 -40t26 -73q0 -53 -33 -100t-73.5 -77t-54.5 -30 q-15 0 -37 9.5zM272 1049q0 12 11 32l99 156q26 39 82 39h44q41 0 65 -39l92 -156q11 -17 11 -30q0 -27 -43 -27h-4q-18 0 -34 6t-24 18l-85 131l-109 -131q-24 -24 -60 -24h-4q-41 0 -41 25zM205.5 105.5q-107.5 115.5 -107.5 353.5q0 236 105 358.5t309 122.5 q182 0 274.5 -118t92.5 -346q0 -10 -10.5 -27.5t-25 -31t-24.5 -13.5h-561q11 -149 76.5 -217.5t197.5 -68.5q74 0 127.5 18t103.5 44q5 2 15 7t14 5q11 0 25.5 -17.5t25 -39t10.5 -31.5q0 -22 -44 -49t-117.5 -46t-157.5 -19q-221 0 -328.5 115.5zM720 532q0 280 -213 280 q-229 0 -249 -280h462z" />
<glyph unicode="&#x1ec5;" horiz-adv-x="959" d="M208 1398q-15 7 -15 21q0 12 5 23q25 66 61.5 94.5t88.5 28.5q33 0 68 -10.5t86 -30.5q43 -18 72 -27t54 -9q22 0 38 11.5t33 40.5q8 14 15.5 20t16.5 6q6 0 16 -5l12 -5q11 -4 15.5 -9t4.5 -13q0 -10 -7 -24q-25 -65 -61 -93t-87 -28q-35 0 -69.5 10t-91.5 32 q-46 18 -73.5 26.5t-51.5 8.5q-20 0 -35.5 -12.5t-31.5 -41.5q-8 -14 -15 -20t-15 -6q-4 0 -16 5zM265 1049q0 12 11 32l99 156q26 39 82 39h44q57 0 82 -39l102 -156q11 -17 11 -30q0 -27 -43 -27h-4q-17 0 -31 5.5t-28 18.5l-111 131l-109 -131q-24 -24 -60 -24h-4 q-41 0 -41 25zM205.5 105.5q-107.5 115.5 -107.5 353.5q0 236 105 358.5t309 122.5q182 0 274.5 -118t92.5 -346q0 -10 -10.5 -27.5t-25 -31t-24.5 -13.5h-561q11 -149 76.5 -217.5t197.5 -68.5q74 0 127.5 18t103.5 44q5 2 15 7t14 5q11 0 25.5 -17.5t25 -39t10.5 -31.5 q0 -22 -44 -49t-117.5 -46t-157.5 -19q-221 0 -328.5 115.5zM720 532q0 280 -213 280q-229 0 -249 -280h462z" />
<glyph unicode="&#xeb;" horiz-adv-x="959" d="M98 0zM205.5 105.5q-107.5 115.5 -107.5 353.5q0 236 105 358.5t309 122.5q182 0 274.5 -118t92.5 -346q0 -10 -10.5 -27.5t-25 -31t-24.5 -13.5h-561q11 -149 76.5 -217.5t197.5 -68.5q74 0 127.5 18t103.5 44q5 2 15 7t14 5q11 0 25.5 -17.5t25 -39t10.5 -31.5 q0 -22 -44 -49t-117.5 -46t-157.5 -19q-221 0 -328.5 115.5zM720 532q0 280 -213 280q-229 0 -249 -280h462zM279 1118v91q0 40 78 40q71 0 71 -40v-91q0 -38 -78 -38q-71 0 -71 38zM535 1118v91q0 40 78 40q71 0 71 -40v-91q0 -38 -78 -38q-71 0 -71 38z" />
<glyph unicode="&#x117;" horiz-adv-x="959" d="M98 0zM205.5 105.5q-107.5 115.5 -107.5 353.5q0 236 105 358.5t309 122.5q182 0 274.5 -118t92.5 -346q0 -10 -10.5 -27.5t-25 -31t-24.5 -13.5h-561q11 -149 76.5 -217.5t197.5 -68.5q74 0 127.5 18t103.5 44q5 2 15 7t14 5q11 0 25.5 -17.5t25 -39t10.5 -31.5 q0 -22 -44 -49t-117.5 -46t-157.5 -19q-221 0 -328.5 115.5zM720 532q0 280 -213 280q-229 0 -249 -280h462zM406 1118v91q0 18 19 29t60 11q71 0 71 -40v-91q0 -38 -78 -38q-72 0 -72 38z" />
<glyph unicode="&#x1eb9;" horiz-adv-x="959" d="M98 0zM205.5 105.5q-107.5 115.5 -107.5 353.5q0 236 105 358.5t309 122.5q182 0 274.5 -118t92.5 -346q0 -10 -10.5 -27.5t-25 -31t-24.5 -13.5h-561q11 -149 76.5 -217.5t197.5 -68.5q74 0 127.5 18t103.5 44q5 2 15 7t14 5q11 0 25.5 -17.5t25 -39t10.5 -31.5 q0 -22 -44 -49t-117.5 -46t-157.5 -19q-221 0 -328.5 115.5zM720 532q0 280 -213 280q-229 0 -249 -280h462zM481 -141zM410 -272v91q0 18 19 29t60 11q71 0 71 -40v-91q0 -38 -78 -38q-72 0 -72 38z" />
<glyph unicode="&#xe8;" horiz-adv-x="959" d="M98 0zM205.5 105.5q-107.5 115.5 -107.5 353.5q0 236 105 358.5t309 122.5q182 0 274.5 -118t92.5 -346q0 -10 -10.5 -27.5t-25 -31t-24.5 -13.5h-561q11 -149 76.5 -217.5t197.5 -68.5q74 0 127.5 18t103.5 44q5 2 15 7t14 5q11 0 25.5 -17.5t25 -39t10.5 -31.5 q0 -22 -44 -49t-117.5 -46t-157.5 -19q-221 0 -328.5 115.5zM720 532q0 280 -213 280q-229 0 -249 -280h462zM477.5 1049q-23.5 8 -38.5 23l-72 82q-65 74 -80.5 93.5t-15.5 30.5q0 14 20.5 19t65.5 5q43 0 69 -10.5t41 -35.5q65 -113 84 -149.5t19 -48.5q0 -9 -9.5 -13 t-31.5 -4q-28 0 -51.5 8z" />
<glyph unicode="&#x1ebb;" horiz-adv-x="959" d="M98 0zM205.5 105.5q-107.5 115.5 -107.5 353.5q0 236 105 358.5t309 122.5q182 0 274.5 -118t92.5 -346q0 -10 -10.5 -27.5t-25 -31t-24.5 -13.5h-561q11 -149 76.5 -217.5t197.5 -68.5q74 0 127.5 18t103.5 44q5 2 15 7t14 5q11 0 25.5 -17.5t25 -39t10.5 -31.5 q0 -22 -44 -49t-117.5 -46t-157.5 -19q-221 0 -328.5 115.5zM720 532q0 280 -213 280q-229 0 -249 -280h462zM457 1010.5q-22 9.5 -22 20.5q0 15 10.5 27.5t33.5 31.5q31 25 48.5 48.5t17.5 56.5q0 23 -18.5 35t-47.5 12q-26 0 -42 -5t-26.5 -11t-13.5 -6q-10 0 -26 22.5 t-16 35.5q0 12 21.5 25t54 21.5t63.5 8.5q35 0 72 -12t63 -40t26 -73q0 -53 -33 -100t-73.5 -77t-54.5 -30q-15 0 -37 9.5z" />
<glyph unicode="&#x113;" horiz-adv-x="959" d="M98 0zM205.5 105.5q-107.5 115.5 -107.5 353.5q0 236 105 358.5t309 122.5q182 0 274.5 -118t92.5 -346q0 -10 -10.5 -27.5t-25 -31t-24.5 -13.5h-561q11 -149 76.5 -217.5t197.5 -68.5q74 0 127.5 18t103.5 44q5 2 15 7t14 5q11 0 25.5 -17.5t25 -39t10.5 -31.5 q0 -22 -44 -49t-117.5 -46t-157.5 -19q-221 0 -328.5 115.5zM720 532q0 280 -213 280q-229 0 -249 -280h462zM255.5 1101q-8.5 13 -8.5 41v17q0 28 8.5 41t27.5 13h397q18 0 26 -13t8 -41v-17q0 -29 -8 -41.5t-26 -12.5h-397q-19 0 -27.5 13z" />
<glyph unicode="&#x119;" horiz-adv-x="959" d="M986 -210q0 -56 -37 -77t-109 -21q-123 0 -166 58.5t-43 122.5q0 84 30 129q-67 -12 -127 -12q-221 0 -328.5 115.5t-107.5 353.5q0 236 105 358.5t309 122.5q182 0 274.5 -118t92.5 -346q0 -10 -10.5 -27.5t-25 -31t-24.5 -13.5h-561q11 -149 76.5 -217.5t197.5 -68.5 q74 0 127.5 18t103.5 44q5 2 15 7t14 5q11 0 25.5 -17.5t25 -39t10.5 -31.5q0 -16 -23 -35t-63 -36q4 -5 4 -17q0 -13 -9 -40q-13 -46 -13 -69q0 -56 32.5 -73t78.5 -17q14 0 44 8q31 9 48 9q34 0 34 -44zM258 532h462q0 280 -213 280q-229 0 -249 -280z" />
<glyph unicode="&#x1ebd;" horiz-adv-x="959" d="M98 0zM205.5 105.5q-107.5 115.5 -107.5 353.5q0 236 105 358.5t309 122.5q182 0 274.5 -118t92.5 -346q0 -10 -10.5 -27.5t-25 -31t-24.5 -13.5h-561q11 -149 76.5 -217.5t197.5 -68.5q74 0 127.5 18t103.5 44q5 2 15 7t14 5q11 0 25.5 -17.5t25 -39t10.5 -31.5 q0 -22 -44 -49t-117.5 -46t-157.5 -19q-221 0 -328.5 115.5zM720 532q0 280 -213 280q-229 0 -249 -280h462zM190 1060q-17 7 -17 21q0 12 6 23q28 66 67.5 94.5t96.5 28.5q36 0 74 -10.5t95 -30.5q47 -18 80 -27t60 -9q24 0 41.5 11.5t35.5 40.5q18 26 35 26q6 0 18 -5 l14 -5q11 -4 16 -9t5 -13q0 -11 -8 -24q-28 -65 -67.5 -93t-94.5 -28q-38 0 -76.5 10.5t-100.5 31.5q-49 18 -80 26.5t-57 8.5q-22 0 -39 -12.5t-36 -41.5q-9 -14 -16 -20t-16 -6q-6 0 -18 5z" />
<glyph unicode="f" horiz-adv-x="578" d="M209 6.5q-17 9.5 -17 29.5v766h-71q-36 0 -36 53v22q0 53 36 53h71v169q0 140 69.5 192.5t159.5 52.5q130 0 130 -54q0 -9 -4.5 -29.5t-13 -36.5t-19.5 -16q-6 0 -25 4t-52 4q-30 0 -50.5 -9t-33 -38t-12.5 -84v-155h155q19 0 27.5 -12.5t8.5 -40.5v-22q0 -28 -8.5 -40.5 t-27.5 -12.5h-155v-766q0 -20 -17 -29.5t-53 -9.5h-8q-37 0 -54 9.5z" />
<glyph unicode="g" horiz-adv-x="971" d="M181 -324q-99 53 -99 167q0 78 45 136t117 87l2 4q-35 27 -53.5 62t-18.5 83q0 116 100 186q-75 36 -114 101.5t-39 147.5t40.5 148t119.5 104t190 38q59 0 105 -10h323q19 0 27.5 -12.5t8.5 -40.5v-22q0 -28 -8.5 -40.5t-27.5 -12.5q-67 0 -124 5l-2 -3 q23 -32 34.5 -71.5t11.5 -82.5q0 -82 -40.5 -148t-119 -104t-190.5 -38q-84 -3 -126.5 -31t-42.5 -92q0 -47 30.5 -72t76.5 -35t128 -19l52 -6q83 -11 139 -30t92.5 -63t36.5 -121q0 -129 -103 -198.5t-302 -69.5q-170 0 -269 53zM625 518q58 40 58 131q0 172 -214 172 q-211 0 -211 -172q0 -91 57.5 -131t153.5 -40q98 0 156 40zM653 -223.5q60 32.5 60 98.5q0 43 -32 66.5t-78.5 33t-122.5 17.5q-52 6 -85.5 11t-61.5 14q-118 -50 -118 -145q0 -128 254 -128q124 0 184 32.5z" />
<glyph unicode="&#x11f;" horiz-adv-x="971" d="M82 0zM181 -324q-99 53 -99 167q0 78 45 136t117 87l2 4q-35 27 -53.5 62t-18.5 83q0 116 100 186q-75 36 -114 101.5t-39 147.5t40.5 148t119.5 104t190 38q59 0 105 -10h323q19 0 27.5 -12.5t8.5 -40.5v-22q0 -28 -8.5 -40.5t-27.5 -12.5q-67 0 -124 5l-2 -3 q23 -32 34.5 -71.5t11.5 -82.5q0 -82 -40.5 -148t-119 -104t-190.5 -38q-84 -3 -126.5 -31t-42.5 -92q0 -47 30.5 -72t76.5 -35t128 -19l52 -6q83 -11 139 -30t92.5 -63t36.5 -121q0 -129 -103 -198.5t-302 -69.5q-170 0 -269 53zM625 518q58 40 58 131q0 172 -214 172 q-211 0 -211 -172q0 -91 57.5 -131t153.5 -40q98 0 156 40zM653 -223.5q60 32.5 60 98.5q0 43 -32 66.5t-78.5 33t-122.5 17.5q-52 6 -85.5 11t-61.5 14q-118 -50 -118 -145q0 -128 254 -128q124 0 184 32.5zM361.5 1064q-58.5 23 -95 69t-36.5 111q0 14 6 20.5t20 6.5 q15 0 20.5 -5t10.5 -19t8 -20q19 -36 70.5 -53t121.5 -17t120.5 17t69.5 53l9 20q5 14 10.5 19t19.5 5q15 0 21 -6.5t6 -20.5q0 -65 -36.5 -111t-95 -69t-124.5 -23q-67 0 -125.5 23z" />
<glyph unicode="&#x11d;" horiz-adv-x="971" d="M82 0zM181 -324q-99 53 -99 167q0 78 45 136t117 87l2 4q-35 27 -53.5 62t-18.5 83q0 116 100 186q-75 36 -114 101.5t-39 147.5t40.5 148t119.5 104t190 38q59 0 105 -10h323q19 0 27.5 -12.5t8.5 -40.5v-22q0 -28 -8.5 -40.5t-27.5 -12.5q-67 0 -124 5l-2 -3 q23 -32 34.5 -71.5t11.5 -82.5q0 -82 -40.5 -148t-119 -104t-190.5 -38q-84 -3 -126.5 -31t-42.5 -92q0 -47 30.5 -72t76.5 -35t128 -19l52 -6q83 -11 139 -30t92.5 -63t36.5 -121q0 -129 -103 -198.5t-302 -69.5q-170 0 -269 53zM625 518q58 40 58 131q0 172 -214 172 q-211 0 -211 -172q0 -91 57.5 -131t153.5 -40q98 0 156 40zM653 -223.5q60 32.5 60 98.5q0 43 -32 66.5t-78.5 33t-122.5 17.5q-52 6 -85.5 11t-61.5 14q-118 -50 -118 -145q0 -128 254 -128q124 0 184 32.5zM270 1049q0 12 11 32l99 156q26 39 82 39h44q57 0 82 -39 l102 -156q11 -17 11 -30q0 -27 -43 -27h-4q-17 0 -31 5.5t-28 18.5l-111 131l-109 -131q-24 -24 -60 -24h-4q-41 0 -41 25z" />
<glyph unicode="&#x123;" horiz-adv-x="971" d="M629 1361q16 -6 16 -21q0 -9 -5.5 -21.5t-10 -21t-6.5 -12.5q-25 -48 -39.5 -89.5t-14.5 -98.5q0 -26 -18 -41.5t-54 -15.5h-16q-33 0 -52 13.5t-19 36.5q0 79 32 142.5t76 99t76 35.5q19 0 35 -6zM181 -324q-99 53 -99 167q0 78 45 136t117 87l2 4q-35 27 -53.5 62 t-18.5 83q0 116 100 186q-75 36 -114 101.5t-39 147.5t40.5 148t119.5 104t190 38q59 0 105 -10h323q19 0 27.5 -12.5t8.5 -40.5v-22q0 -28 -8.5 -40.5t-27.5 -12.5q-67 0 -124 5l-2 -3q23 -32 34.5 -71.5t11.5 -82.5q0 -82 -40.5 -148t-119 -104t-190.5 -38 q-84 -3 -126.5 -31t-42.5 -92q0 -47 30.5 -72t76.5 -35t128 -19l52 -6q83 -11 139 -30t92.5 -63t36.5 -121q0 -129 -103 -198.5t-302 -69.5q-170 0 -269 53zM625 518q58 40 58 131q0 172 -214 172q-211 0 -211 -172q0 -91 57.5 -131t153.5 -40q98 0 156 40zM653 -223.5 q60 32.5 60 98.5q0 43 -32 66.5t-78.5 33t-122.5 17.5q-52 6 -85.5 11t-61.5 14q-118 -50 -118 -145q0 -128 254 -128q124 0 184 32.5z" />
<glyph unicode="&#x121;" horiz-adv-x="971" d="M82 0zM181 -324q-99 53 -99 167q0 78 45 136t117 87l2 4q-35 27 -53.5 62t-18.5 83q0 116 100 186q-75 36 -114 101.5t-39 147.5t40.5 148t119.5 104t190 38q59 0 105 -10h323q19 0 27.5 -12.5t8.5 -40.5v-22q0 -28 -8.5 -40.5t-27.5 -12.5q-67 0 -124 5l-2 -3 q23 -32 34.5 -71.5t11.5 -82.5q0 -82 -40.5 -148t-119 -104t-190.5 -38q-84 -3 -126.5 -31t-42.5 -92q0 -47 30.5 -72t76.5 -35t128 -19l52 -6q83 -11 139 -30t92.5 -63t36.5 -121q0 -129 -103 -198.5t-302 -69.5q-170 0 -269 53zM625 518q58 40 58 131q0 172 -214 172 q-211 0 -211 -172q0 -91 57.5 -131t153.5 -40q98 0 156 40zM653 -223.5q60 32.5 60 98.5q0 43 -32 66.5t-78.5 33t-122.5 17.5q-52 6 -85.5 11t-61.5 14q-118 -50 -118 -145q0 -128 254 -128q124 0 184 32.5zM411 1118v91q0 18 19 29t60 11q71 0 71 -40v-91q0 -38 -78 -38 q-72 0 -72 38z" />
<glyph unicode="h" horiz-adv-x="1005" d="M164 36v1262q0 39 71 39h7q72 0 72 -39v-480q52 53 122 87.5t149 34.5q112 0 197.5 -63t85.5 -224v-617q0 -39 -71 -39h-7q-72 0 -72 39v602q0 81 -46 127t-135 46q-59 0 -108.5 -28t-82 -60.5t-32.5 -36.5v-650q0 -39 -72 -39h-7q-71 0 -71 39z" />
<glyph unicode="&#x127;" horiz-adv-x="1005" d="M782.5 877q85.5 -63 85.5 -224v-617q0 -39 -71 -39h-7q-72 0 -72 39v602q0 81 -46 127t-135 46q-59 0 -108.5 -28t-82 -60.5t-32.5 -36.5v-650q0 -39 -72 -39h-7q-71 0 -71 39v1029h-66q-19 0 -27.5 13t-8.5 41v17q0 28 8.5 41t27.5 13h66v108q0 39 71 39h7q72 0 72 -39 v-108h181q18 0 26 -13t8 -41v-17q0 -29 -8 -41.5t-26 -12.5h-181v-247q52 53 122 87.5t149 34.5q112 0 197.5 -63z" />
<glyph unicode="&#x125;" horiz-adv-x="1005" d="M23 0zM164 36v1262q0 39 71 39h7q72 0 72 -39v-480q52 53 122 87.5t149 34.5q112 0 197.5 -63t85.5 -224v-617q0 -39 -71 -39h-7q-72 0 -72 39v602q0 81 -46 127t-135 46q-59 0 -108.5 -28t-82 -60.5t-32.5 -36.5v-650q0 -39 -72 -39h-7q-71 0 -71 39zM23 1417 q0 12 11 32l99 156q26 39 82 39h44q57 0 82 -39l102 -156q11 -17 11 -30q0 -27 -43 -27h-4q-17 0 -31 5.5t-28 18.5l-111 131l-109 -131q-24 -24 -60 -24h-4q-41 0 -41 25z" />
<glyph unicode="&#x1e25;" horiz-adv-x="1005" d="M164 0zM164 36v1262q0 39 71 39h7q72 0 72 -39v-480q52 53 122 87.5t149 34.5q112 0 197.5 -63t85.5 -224v-617q0 -39 -71 -39h-7q-72 0 -72 39v602q0 81 -46 127t-135 46q-59 0 -108.5 -28t-82 -60.5t-32.5 -36.5v-650q0 -39 -72 -39h-7q-71 0 -71 39zM502 -141z M431 -272v91q0 18 19 29t60 11q71 0 71 -40v-91q0 -38 -78 -38q-72 0 -72 38z" />
<glyph unicode="i" horiz-adv-x="471" d="M155 1193v105q0 39 71 39h21q72 0 72 -39v-105q0 -39 -72 -39h-21q-71 0 -71 39zM162 36v858q0 39 71 39h7q72 0 72 -39v-858q0 -39 -72 -39h-7q-71 0 -71 39z" />
<glyph unicode="&#x131;" horiz-adv-x="471" d="M162 36v858q0 39 71 39h7q72 0 72 -39v-858q0 -39 -72 -39h-7q-71 0 -71 39z" />
<glyph unicode="&#xed;" horiz-adv-x="471" d="M162 0zM162 36v858q0 39 71 39h7q72 0 72 -39v-858q0 -39 -72 -39h-7q-71 0 -71 39zM165 1058q0 12 18 46t86 152q14 24 40.5 35t69.5 11q45 0 65 -5t20 -19q0 -9 -8 -21t-38.5 -47t-77.5 -89l-43 -49q-14 -15 -38 -23t-53 -8q-41 0 -41 17z" />
<glyph unicode="&#x12d;" horiz-adv-x="471" d="M0 0zM162 36v858q0 39 71 39h7q72 0 72 -39v-858q0 -39 -72 -39h-7q-71 0 -71 39zM112.5 1064q-58.5 23 -95 69t-36.5 111q0 14 6 20.5t20 6.5q15 0 20.5 -5t10.5 -19t8 -20q19 -36 70.5 -53t121.5 -17t120.5 17t69.5 53l9 20q5 14 10.5 19t19.5 5q15 0 21 -6.5t6 -20.5 q0 -65 -36.5 -111t-95 -69t-124.5 -23q-67 0 -125.5 23z" />
<glyph unicode="&#xee;" horiz-adv-x="471" d="M21 0zM162 36v858q0 39 71 39h7q72 0 72 -39v-858q0 -39 -72 -39h-7q-71 0 -71 39zM21 1049q0 12 11 32l99 156q26 39 82 39h44q57 0 82 -39l102 -156q11 -17 11 -30q0 -27 -43 -27h-4q-17 0 -31 5.5t-28 18.5l-111 131l-109 -131q-24 -24 -60 -24h-4q-41 0 -41 25z" />
<glyph unicode="&#xef;" horiz-adv-x="471" d="M35 0zM162 36v858q0 39 71 39h7q72 0 72 -39v-858q0 -39 -72 -39h-7q-71 0 -71 39zM35 1118v91q0 40 78 40q71 0 71 -40v-91q0 -38 -78 -38q-71 0 -71 38zM291 1118v91q0 40 78 40q71 0 71 -40v-91q0 -38 -78 -38q-71 0 -71 38z" />
<glyph horiz-adv-x="471" d="M162 0zM162 36v858q0 39 71 39h7q72 0 72 -39v-858q0 -39 -72 -39h-7q-71 0 -71 39zM162 1118v91q0 18 19 29t60 11q71 0 71 -40v-91q0 -38 -78 -38q-72 0 -72 38z" />
<glyph unicode="&#x1ecb;" horiz-adv-x="471" d="M155 0zM155 1193v105q0 39 71 39h21q72 0 72 -39v-105q0 -39 -72 -39h-21q-71 0 -71 39zM162 36v858q0 39 71 39h7q72 0 72 -39v-858q0 -39 -72 -39h-7q-71 0 -71 39zM233 -141zM162 -272v91q0 18 19 29t60 11q71 0 71 -40v-91q0 -38 -78 -38q-72 0 -72 38z" />
<glyph unicode="&#xec;" horiz-adv-x="471" d="M26 0zM162 36v858q0 39 71 39h7q72 0 72 -39v-858q0 -39 -72 -39h-7q-71 0 -71 39zM232.5 1049q-23.5 8 -38.5 23l-72 82q-65 74 -80.5 93.5t-15.5 30.5q0 14 20.5 19t65.5 5q43 0 69 -10.5t41 -35.5q65 -113 84 -149.5t19 -48.5q0 -9 -9.5 -13t-31.5 -4q-28 0 -51.5 8z " />
<glyph unicode="&#x1ec9;" horiz-adv-x="471" d="M111 0zM162 36v858q0 39 71 39h7q72 0 72 -39v-858q0 -39 -72 -39h-7q-71 0 -71 39zM213 1010.5q-22 9.5 -22 20.5q0 15 10.5 27.5t33.5 31.5q31 25 48.5 48.5t17.5 56.5q0 23 -18.5 35t-47.5 12q-26 0 -42 -5t-26.5 -11t-13.5 -6q-10 0 -26 22.5t-16 35.5q0 12 21.5 25 t54 21.5t63.5 8.5q35 0 72 -12t63 -40t26 -73q0 -53 -33 -100t-73.5 -77t-54.5 -30q-15 0 -37 9.5z" />
<glyph unicode="&#x133;" horiz-adv-x="962" d="M155 0zM155 1193v105q0 39 71 39h21q72 0 72 -39v-105q0 -39 -72 -39h-21q-71 0 -71 39zM162 36v858q0 39 71 39h7q72 0 72 -39v-858q0 -39 -72 -39h-7q-71 0 -71 39zM643 1193v105q0 39 72 39h21q71 0 71 -39v-105q0 -39 -71 -39h-21q-72 0 -72 39zM440 -324 q0 10 4.5 30.5t13.5 37t20 16.5q6 0 25 -4.5t52 -4.5q44 0 69.5 28.5t25.5 102.5v1012q0 39 72 39h7q71 0 71 -39v-1025q0 -138 -70 -192t-159 -54q-131 0 -131 53z" />
<glyph unicode="&#x12b;" horiz-adv-x="471" d="M3 0zM162 36v858q0 39 71 39h7q72 0 72 -39v-858q0 -39 -72 -39h-7q-71 0 -71 39zM11.5 1101q-8.5 13 -8.5 41v17q0 28 8.5 41t27.5 13h397q18 0 26 -13t8 -41v-17q0 -29 -8 -41.5t-26 -12.5h-397q-19 0 -27.5 13z" />
<glyph unicode="&#x12f;" horiz-adv-x="471" d="M155 1193v105q0 39 71 39h21q72 0 72 -39v-105q0 -39 -72 -39h-21q-71 0 -71 39zM496 -228q0 -56 -37 -77t-109 -21q-123 0 -166 58.5t-43 122.5q0 41 9.5 82.5t37.5 65.5q-26 9 -26 33v858q0 39 71 39h7q72 0 72 -39v-858q0 -26 -31 -35v-3q0 -13 -9 -40 q-13 -46 -13 -69q0 -56 32.5 -73t78.5 -17q14 0 44 8q31 9 48 9q34 0 34 -44z" />
<glyph unicode="&#x129;" horiz-adv-x="471" d="M312 894v-858q0 -39 -72 -39h-7q-71 0 -71 39v858q0 39 71 39h7q72 0 72 -39z" />
<glyph unicode="j" horiz-adv-x="491" d="M172 1193v105q0 39 72 39h21q71 0 71 -39v-105q0 -39 -71 -39h-21q-72 0 -72 39zM-31 -324q0 10 4.5 30.5t13.5 37t20 16.5q6 0 25 -4.5t52 -4.5q44 0 69.5 28.5t25.5 102.5v1012q0 39 72 39h7q71 0 71 -39v-1025q0 -138 -70 -192t-159 -54q-131 0 -131 53z" />
<glyph unicode="&#x237;" horiz-adv-x="491" d="M-31 -324q0 10 4.5 30.5t13.5 37t20 16.5q6 0 25 -4.5t52 -4.5q44 0 69.5 28.5t25.5 102.5v1012q0 39 72 39h7q71 0 71 -39v-1025q0 -138 -70 -192t-159 -54q-131 0 -131 53z" />
<glyph unicode="&#x135;" horiz-adv-x="491" d="M0 0zM-31 -324q0 10 4.5 30.5t13.5 37t20 16.5q6 0 25 -4.5t52 -4.5q44 0 69.5 28.5t25.5 102.5v1012q0 39 72 39h7q71 0 71 -39v-1025q0 -138 -70 -192t-159 -54q-131 0 -131 53zM38 1049q0 12 11 32l99 156q26 39 82 39h44q57 0 82 -39l102 -156q11 -17 11 -30 q0 -27 -43 -27h-4q-17 0 -31 5.5t-28 18.5l-111 131l-109 -131q-24 -24 -60 -24h-4q-41 0 -41 25z" />
<glyph unicode="k" horiz-adv-x="926" d="M167 36v1262q0 39 72 39h7q71 0 71 -39v-795h7l340 406q19 24 94 24h6q31 0 47 -6t16 -16q0 -15 -18 -36l-331 -391l367 -434q15 -17 15 -28q0 -15 -17 -20t-60 -5h-8q-37 0 -60 4t-36 19l-355 422h-7v-406q0 -39 -71 -39h-7q-72 0 -72 39z" />
<glyph unicode="&#x137;" horiz-adv-x="926" d="M167 0zM167 36v1262q0 39 72 39h7q71 0 71 -39v-795h7l340 406q19 24 94 24h6q31 0 47 -6t16 -16q0 -15 -18 -36l-331 -391l367 -434q15 -17 15 -28q0 -15 -17 -20t-60 -5h-8q-37 0 -60 4t-36 19l-355 422h-7v-406q0 -39 -71 -39h-7q-72 0 -72 39zM323.5 -412 q-15.5 6 -15.5 21q0 10 5 22.5t17 32.5q24 46 38.5 88.5t14.5 99.5q0 26 18.5 41.5t53.5 15.5h16q33 0 52 -13.5t19 -36.5q0 -79 -32 -142.5t-75.5 -99t-75.5 -35.5q-20 0 -35.5 6z" />
<glyph unicode="&#x138;" horiz-adv-x="926" d="M167 36v860q0 39 72 39h7q71 0 71 -39v-393h7l340 406q19 24 94 24h6q31 0 47 -6t16 -16q0 -15 -18 -36l-331 -391l367 -434q15 -17 15 -28q0 -15 -17 -20t-60 -5h-8q-37 0 -60 4t-36 19l-355 422h-7v-406q0 -39 -71 -39h-7q-72 0 -72 39z" />
<glyph unicode="l" horiz-adv-x="529" d="M216 44q-70 54 -70 191v1063q0 39 71 39h8q70 0 70 -39v-1049q0 -73 26 -102t70 -29q33 0 52 4t25 4q16 0 26.5 -32t10.5 -51q0 -53 -130 -53q-89 0 -159 54z" />
<glyph unicode="&#x13a;" horiz-adv-x="529" d="M146 0zM216 44q-70 54 -70 191v1063q0 39 71 39h8q70 0 70 -39v-1049q0 -73 26 -102t70 -29q33 0 52 4t25 4q16 0 26.5 -32t10.5 -51q0 -53 -130 -53q-89 0 -159 54zM150 1408q0 12 18 46t86 152q14 24 40.5 35t69.5 11q45 0 65 -5t20 -19q0 -9 -8 -21t-38.5 -47 t-77.5 -89l-43 -49q-14 -15 -38 -23t-53 -8q-41 0 -41 17z" />
<glyph unicode="&#x13e;" horiz-adv-x="529" d="M146 0zM216 44q-70 54 -70 191v1063q0 39 71 39h8q70 0 70 -39v-1049q0 -73 26 -102t70 -29q33 0 52 4t25 4q16 0 26.5 -32t10.5 -51q0 -53 -130 -53q-89 0 -159 54zM399 946q-16 6 -16 21q0 14 7 51q8 50 12 86t4 89q0 26 18 41t53 15h16q33 0 52 -13t19 -36 q0 -75 -22.5 -134t-53 -92.5t-53.5 -33.5q-20 0 -36 6z" />
<glyph unicode="&#x13c;" horiz-adv-x="529" d="M146 0zM216 44q-70 54 -70 191v1063q0 39 71 39h8q70 0 70 -39v-1049q0 -73 26 -102t70 -29q33 0 52 4t25 4q16 0 26.5 -32t10.5 -51q0 -53 -130 -53q-89 0 -159 54zM177.5 -412q-15.5 6 -15.5 21q0 10 5 22.5t17 32.5q24 46 38.5 88.5t14.5 99.5q0 26 18.5 41.5 t53.5 15.5h16q33 0 52 -13.5t19 -36.5q0 -79 -32 -142.5t-75.5 -99t-75.5 -35.5q-20 0 -35.5 6z" />
<glyph unicode="&#x140;" horiz-adv-x="529" d="M146 0zM216 44q-70 54 -70 191v1063q0 39 71 39h8q70 0 70 -39v-1049q0 -73 26 -102t70 -29q33 0 52 4t25 4q16 0 26.5 -32t10.5 -51q0 -53 -130 -53q-89 0 -159 54zM433 575.5q-26 26.5 -26 64.5q0 39 26 65.5t65 26.5q38 0 65 -27t27 -65t-27 -64.5t-65 -26.5 q-39 0 -65 26.5z" />
<glyph unicode="&#x1c9;" horiz-adv-x="1019" d="M146 0zM216 44q-70 54 -70 191v1063q0 39 71 39h8q70 0 70 -39v-1049q0 -73 26 -102t70 -29q33 0 52 4t25 4q16 0 26.5 -32t10.5 -51q0 -53 -130 -53q-89 0 -159 54zM701 1193v105q0 39 72 39h21q71 0 71 -39v-105q0 -39 -71 -39h-21q-72 0 -72 39zM498 -324 q0 10 4.5 30.5t13.5 37t20 16.5q6 0 25 -4.5t52 -4.5q44 0 69.5 28.5t25.5 102.5v1012q0 39 72 39h7q71 0 71 -39v-1025q0 -138 -70 -192t-159 -54q-131 0 -131 53z" />
<glyph unicode="&#x142;" horiz-adv-x="521" d="M213 44q-70 54 -70 191v393l-75 -45q-10 -7 -18 -7q-7 0 -11.5 6.5t-4.5 18.5v11q0 34 34 53l75 43v590q0 39 70 39h7q72 0 72 -39v-501l75 44q12 7 17 7q7 0 12 -6.5t5 -17.5v-12q0 -33 -34 -53l-75 -44v-466q0 -73 25.5 -102t69.5 -29q34 0 52.5 4t24.5 4q11 0 20 -16 t13.5 -36.5t4.5 -30.5q0 -53 -130 -53q-89 0 -159 54z" />
<glyph unicode="m" horiz-adv-x="1508" d="M1290 877q84 -63 84 -224v-617q0 -20 -17 -29.5t-54 -9.5h-6q-38 0 -55 9.5t-17 29.5v602q0 81 -43.5 127t-127.5 46q-70 0 -126.5 -40.5t-91.5 -84.5q2 -24 2 -36v-614q0 -39 -72 -39h-7q-71 0 -71 39v602q0 81 -43.5 127t-127.5 46q-58 0 -106 -27.5t-79.5 -59.5 t-31.5 -36v-652q0 -20 -16.5 -29.5t-53.5 -9.5h-8q-37 0 -53.5 9.5t-16.5 29.5v624q0 116 -11 167.5t-11 56.5q0 22 33.5 31.5t62.5 9.5q25 0 37 -27t17.5 -55t7.5 -36q49 57 120 95t150 38q81 0 151 -32.5t103 -114.5q55 65 129 106t154 41q111 0 195 -63z" />
<glyph unicode="n" horiz-adv-x="990" d="M170 6.5q-17 9.5 -17 29.5v624q0 116 -11 167.5t-11 56.5q0 22 33.5 31.5t63.5 9.5q25 0 37 -27t17.5 -55t7.5 -36q56 63 129.5 98t148.5 35q136 0 212.5 -76.5t76.5 -210.5v-617q0 -20 -17 -29.5t-54 -9.5h-8q-36 0 -53 9.5t-17 29.5v602q0 82 -47.5 127.5t-133.5 45.5 q-60 0 -120.5 -33.5t-104.5 -91.5v-650q0 -20 -17 -29.5t-53 -9.5h-7q-38 0 -55 9.5z" />
<glyph unicode="&#x144;" horiz-adv-x="990" d="M131 0zM170 6.5q-17 9.5 -17 29.5v624q0 116 -11 167.5t-11 56.5q0 22 33.5 31.5t63.5 9.5q25 0 37 -27t17.5 -55t7.5 -36q56 63 129.5 98t148.5 35q136 0 212.5 -76.5t76.5 -210.5v-617q0 -20 -17 -29.5t-54 -9.5h-8q-36 0 -53 9.5t-17 29.5v602q0 82 -47.5 127.5 t-133.5 45.5q-60 0 -120.5 -33.5t-104.5 -91.5v-650q0 -20 -17 -29.5t-53 -9.5h-7q-38 0 -55 9.5zM424 1058q0 12 18 46t86 152q14 24 40.5 35t69.5 11q45 0 65 -5t20 -19q0 -9 -8 -21t-38.5 -47t-77.5 -89l-43 -49q-14 -15 -38 -23t-53 -8q-41 0 -41 17z" />
<glyph unicode="&#x149;" horiz-adv-x="990" d="M0 0zM-25 954zM-9.5 960q-15.5 6 -15.5 21q0 10 5 22.5t17 32.5q24 46 38.5 88.5t14.5 99.5q0 26 18.5 41.5t53.5 15.5h16q33 0 52 -13.5t19 -36.5q0 -79 -32 -142.5t-75.5 -99t-75.5 -35.5q-20 0 -35.5 6zM170 6.5q-17 9.5 -17 29.5v624q0 116 -11 167.5t-11 56.5 q0 22 33.5 31.5t63.5 9.5q25 0 37 -27t17.5 -55t7.5 -36q56 63 129.5 98t148.5 35q136 0 212.5 -76.5t76.5 -210.5v-617q0 -20 -17 -29.5t-54 -9.5h-8q-36 0 -53 9.5t-17 29.5v602q0 82 -47.5 127.5t-133.5 45.5q-60 0 -120.5 -33.5t-104.5 -91.5v-650q0 -20 -17 -29.5 t-53 -9.5h-7q-38 0 -55 9.5z" />
<glyph unicode="&#x148;" horiz-adv-x="990" d="M131 0zM170 6.5q-17 9.5 -17 29.5v624q0 116 -11 167.5t-11 56.5q0 22 33.5 31.5t63.5 9.5q25 0 37 -27t17.5 -55t7.5 -36q56 63 129.5 98t148.5 35q136 0 212.5 -76.5t76.5 -210.5v-617q0 -20 -17 -29.5t-54 -9.5h-8q-36 0 -53 9.5t-17 29.5v602q0 82 -47.5 127.5 t-133.5 45.5q-60 0 -120.5 -33.5t-104.5 -91.5v-650q0 -20 -17 -29.5t-53 -9.5h-7q-38 0 -55 9.5zM390 1074l-99 156q-10 17 -10 33q0 11 10.5 17.5t30.5 6.5h3q36 0 60 -23l109 -131l111 131q14 12 28 17.5t32 5.5h3q20 0 31.5 -7t11.5 -19q0 -14 -11 -31l-101 -156 q-28 -40 -82 -40h-45q-53 0 -82 40z" />
<glyph unicode="&#x146;" horiz-adv-x="990" d="M131 0zM170 6.5q-17 9.5 -17 29.5v624q0 116 -11 167.5t-11 56.5q0 22 33.5 31.5t63.5 9.5q25 0 37 -27t17.5 -55t7.5 -36q56 63 129.5 98t148.5 35q136 0 212.5 -76.5t76.5 -210.5v-617q0 -20 -17 -29.5t-54 -9.5h-8q-36 0 -53 9.5t-17 29.5v602q0 82 -47.5 127.5 t-133.5 45.5q-60 0 -120.5 -33.5t-104.5 -91.5v-650q0 -20 -17 -29.5t-53 -9.5h-7q-38 0 -55 9.5zM355.5 -412q-15.5 6 -15.5 21q0 10 5 22.5t17 32.5q24 46 38.5 88.5t14.5 99.5q0 26 18.5 41.5t53.5 15.5h16q33 0 52 -13.5t19 -36.5q0 -79 -32 -142.5t-75.5 -99 t-75.5 -35.5q-20 0 -35.5 6z" />
<glyph unicode="&#x1e45;" horiz-adv-x="990" d="M131 0zM170 6.5q-17 9.5 -17 29.5v624q0 116 -11 167.5t-11 56.5q0 22 33.5 31.5t63.5 9.5q25 0 37 -27t17.5 -55t7.5 -36q56 63 129.5 98t148.5 35q136 0 212.5 -76.5t76.5 -210.5v-617q0 -20 -17 -29.5t-54 -9.5h-8q-36 0 -53 9.5t-17 29.5v602q0 82 -47.5 127.5 t-133.5 45.5q-60 0 -120.5 -33.5t-104.5 -91.5v-650q0 -20 -17 -29.5t-53 -9.5h-7q-38 0 -55 9.5zM421 1118v91q0 18 19 29t60 11q71 0 71 -40v-91q0 -38 -78 -38q-72 0 -72 38z" />
<glyph unicode="&#x14b;" horiz-adv-x="990" d="M498 -324q0 10 4.5 30.5t13 37t20.5 16.5q5 0 23.5 -4.5t52.5 -4.5q45 0 70.5 28.5t25.5 102.5v756q0 82 -47.5 127.5t-133.5 45.5q-60 0 -120.5 -33.5t-104.5 -91.5v-650q0 -20 -17 -29.5t-53 -9.5h-7q-38 0 -55 9.5t-17 29.5v624q0 116 -11 167.5t-11 56.5 q0 22 33.5 31.5t63.5 9.5q25 0 37 -27t17.5 -55t7.5 -36q56 63 129.5 98t148.5 35q136 0 212.5 -76.5t76.5 -210.5v-784q0 -138 -70 -192t-159 -54q-130 0 -130 53z" />
<glyph unicode="&#x1cc;" horiz-adv-x="1481" d="M131 0zM170 6.5q-17 9.5 -17 29.5v624q0 116 -11 167.5t-11 56.5q0 22 33.5 31.5t63.5 9.5q25 0 37 -27t17.5 -55t7.5 -36q56 63 129.5 98t148.5 35q136 0 212.5 -76.5t76.5 -210.5v-617q0 -20 -17 -29.5t-54 -9.5h-8q-36 0 -53 9.5t-17 29.5v602q0 82 -47.5 127.5 t-133.5 45.5q-60 0 -120.5 -33.5t-104.5 -91.5v-650q0 -20 -17 -29.5t-53 -9.5h-7q-38 0 -55 9.5zM1162 1193v105q0 39 72 39h21q71 0 71 -39v-105q0 -39 -71 -39h-21q-72 0 -72 39zM959 -324q0 10 4.5 30.5t13.5 37t20 16.5q6 0 25 -4.5t52 -4.5q44 0 69.5 28.5t25.5 102.5 v1012q0 39 72 39h7q71 0 71 -39v-1025q0 -138 -70 -192t-159 -54q-131 0 -131 53z" />
<glyph unicode="&#xf1;" horiz-adv-x="990" d="M131 0zM170 6.5q-17 9.5 -17 29.5v624q0 116 -11 167.5t-11 56.5q0 22 33.5 31.5t63.5 9.5q25 0 37 -27t17.5 -55t7.5 -36q56 63 129.5 98t148.5 35q136 0 212.5 -76.5t76.5 -210.5v-617q0 -20 -17 -29.5t-54 -9.5h-8q-36 0 -53 9.5t-17 29.5v602q0 82 -47.5 127.5 t-133.5 45.5q-60 0 -120.5 -33.5t-104.5 -91.5v-650q0 -20 -17 -29.5t-53 -9.5h-7q-38 0 -55 9.5zM205 1060q-17 7 -17 21q0 12 6 23q28 66 67.5 94.5t96.5 28.5q36 0 74 -10.5t95 -30.5q47 -18 80 -27t60 -9q24 0 41.5 11.5t35.5 40.5q18 26 35 26q6 0 18 -5l14 -5 q11 -4 16 -9t5 -13q0 -11 -8 -24q-28 -65 -67.5 -93t-94.5 -28q-38 0 -76.5 10.5t-100.5 31.5q-49 18 -80 26.5t-57 8.5q-22 0 -39 -12.5t-36 -41.5q-9 -14 -16 -20t-16 -6q-6 0 -18 5z" />
<glyph unicode="o" horiz-adv-x="1012" d="M203.5 110.5q-105.5 120.5 -105.5 350.5t107 354.5t305 124.5q196 0 300 -123.5t104 -355.5q0 -231 -102.5 -351t-301.5 -120q-201 0 -306.5 120.5zM697 202.5q62 84.5 62 261.5q0 178 -62 263t-192 85q-129 0 -190 -84.5t-61 -263.5q0 -178 60.5 -262t190.5 -84 t192 84.5z" />
<glyph unicode="&#xf3;" horiz-adv-x="1012" d="M98 0zM203.5 110.5q-105.5 120.5 -105.5 350.5t107 354.5t305 124.5q196 0 300 -123.5t104 -355.5q0 -231 -102.5 -351t-301.5 -120q-201 0 -306.5 120.5zM697 202.5q62 84.5 62 261.5q0 178 -62 263t-192 85q-129 0 -190 -84.5t-61 -263.5q0 -178 60.5 -262t190.5 -84 t192 84.5zM435 1058q0 12 18 46t86 152q14 24 40.5 35t69.5 11q45 0 65 -5t20 -19q0 -9 -8 -21t-38.5 -47t-77.5 -89l-43 -49q-14 -15 -38 -23t-53 -8q-41 0 -41 17z" />
<glyph unicode="&#x14f;" horiz-adv-x="1012" d="M98 0zM203.5 110.5q-105.5 120.5 -105.5 350.5t107 354.5t305 124.5q196 0 300 -123.5t104 -355.5q0 -231 -102.5 -351t-301.5 -120q-201 0 -306.5 120.5zM697 202.5q62 84.5 62 261.5q0 178 -62 263t-192 85q-129 0 -190 -84.5t-61 -263.5q0 -178 60.5 -262t190.5 -84 t192 84.5zM383.5 1064q-58.5 23 -95 69t-36.5 111q0 14 6 20.5t20 6.5q15 0 20.5 -5t10.5 -19t8 -20q19 -36 70.5 -53t121.5 -17t120.5 17t69.5 53l9 20q5 14 10.5 19t19.5 5q15 0 21 -6.5t6 -20.5q0 -65 -36.5 -111t-95 -69t-124.5 -23q-67 0 -125.5 23z" />
<glyph unicode="&#xf4;" horiz-adv-x="1012" d="M98 0zM203.5 110.5q-105.5 120.5 -105.5 350.5t107 354.5t305 124.5q196 0 300 -123.5t104 -355.5q0 -231 -102.5 -351t-301.5 -120q-201 0 -306.5 120.5zM697 202.5q62 84.5 62 261.5q0 178 -62 263t-192 85q-129 0 -190 -84.5t-61 -263.5q0 -178 60.5 -262t190.5 -84 t192 84.5zM292 1049q0 12 11 32l99 156q26 39 82 39h44q57 0 82 -39l102 -156q11 -17 11 -30q0 -27 -43 -27h-4q-17 0 -31 5.5t-28 18.5l-111 131l-109 -131q-24 -24 -60 -24h-4q-41 0 -41 25z" />
<glyph unicode="&#x1ed1;" horiz-adv-x="1012" d="M685 1287q0 12 18 46t86 152q14 24 40.5 35t69.5 11q45 0 65 -5t20 -19q0 -9 -8 -21t-38.5 -47t-77.5 -89l-43 -49q-14 -15 -38 -23t-53 -8q-41 0 -41 17zM299 1049q0 12 11 32l99 156q26 39 82 39h44q41 0 65 -39l92 -156q11 -17 11 -30q0 -27 -43 -27h-4q-18 0 -34 6 t-24 18l-85 131l-109 -131q-24 -24 -60 -24h-4q-41 0 -41 25zM203.5 110.5q-105.5 120.5 -105.5 350.5t107 354.5t305 124.5q196 0 300 -123.5t104 -355.5q0 -231 -102.5 -351t-301.5 -120q-201 0 -306.5 120.5zM697 202.5q62 84.5 62 261.5q0 178 -62 263t-192 85 q-129 0 -190 -84.5t-61 -263.5q0 -178 60.5 -262t190.5 -84t192 84.5z" />
<glyph unicode="&#x1ed9;" horiz-adv-x="1012" d="M98 0zM203.5 110.5q-105.5 120.5 -105.5 350.5t107 354.5t305 124.5q196 0 300 -123.5t104 -355.5q0 -231 -102.5 -351t-301.5 -120q-201 0 -306.5 120.5zM697 202.5q62 84.5 62 261.5q0 178 -62 263t-192 85q-129 0 -190 -84.5t-61 -263.5q0 -178 60.5 -262t190.5 -84 t192 84.5zM517 -141zM446 -272v91q0 18 19 29t60 11q71 0 71 -40v-91q0 -38 -78 -38q-72 0 -72 38zM292 1049q0 12 11 32l99 156q26 39 82 39h44q57 0 82 -39l102 -156q11 -17 11 -30q0 -27 -43 -27h-4q-17 0 -31 5.5t-28 18.5l-111 131l-109 -131q-24 -24 -60 -24h-4 q-41 0 -41 25z" />
<glyph unicode="&#x1ed3;" horiz-adv-x="1012" d="M753.5 1278q-23.5 8 -38.5 23l-72 82q-65 74 -80.5 93.5t-15.5 30.5q0 14 20.5 19t65.5 5q43 0 69 -10.5t41 -35.5q65 -113 84 -149.5t19 -48.5q0 -9 -9.5 -13t-31.5 -4q-28 0 -51.5 8zM299 1049q0 12 11 32l99 156q26 39 82 39h44q41 0 65 -39l92 -156q11 -17 11 -30 q0 -27 -43 -27h-4q-18 0 -34 6t-24 18l-85 131l-109 -131q-24 -24 -60 -24h-4q-41 0 -41 25zM203.5 110.5q-105.5 120.5 -105.5 350.5t107 354.5t305 124.5q196 0 300 -123.5t104 -355.5q0 -231 -102.5 -351t-301.5 -120q-201 0 -306.5 120.5zM697 202.5q62 84.5 62 261.5 q0 178 -62 263t-192 85q-129 0 -190 -84.5t-61 -263.5q0 -178 60.5 -262t190.5 -84t192 84.5z" />
<glyph unicode="&#x1ed5;" horiz-adv-x="1012" d="M733 1239.5q-22 9.5 -22 20.5q0 15 10.5 27.5t33.5 31.5q31 25 48.5 48.5t17.5 56.5q0 23 -18.5 35t-47.5 12q-26 0 -41.5 -5t-26.5 -11t-14 -6q-10 0 -26 22.5t-16 35.5q0 12 21.5 25t54 21.5t63.5 8.5q35 0 72 -12t63 -40t26 -73q0 -53 -33 -100t-73.5 -77t-54.5 -30 q-15 0 -37 9.5zM299 1049q0 12 11 32l99 156q26 39 82 39h44q41 0 65 -39l92 -156q11 -17 11 -30q0 -27 -43 -27h-4q-18 0 -34 6t-24 18l-85 131l-109 -131q-24 -24 -60 -24h-4q-41 0 -41 25zM203.5 110.5q-105.5 120.5 -105.5 350.5t107 354.5t305 124.5q196 0 300 -123.5 t104 -355.5q0 -231 -102.5 -351t-301.5 -120q-201 0 -306.5 120.5zM697 202.5q62 84.5 62 261.5q0 178 -62 263t-192 85q-129 0 -190 -84.5t-61 -263.5q0 -178 60.5 -262t190.5 -84t192 84.5z" />
<glyph unicode="&#x1ed7;" horiz-adv-x="1012" d="M235 1398q-15 7 -15 21q0 12 5 23q25 66 61.5 94.5t88.5 28.5q33 0 68 -10.5t86 -30.5q43 -18 72 -27t54 -9q22 0 38 11.5t33 40.5q8 14 15.5 20t16.5 6q6 0 16 -5l12 -5q11 -4 15.5 -9t4.5 -13q0 -10 -7 -24q-25 -65 -61 -93t-87 -28q-35 0 -69.5 10t-91.5 32 q-46 18 -73.5 26.5t-51.5 8.5q-20 0 -35.5 -12.5t-31.5 -41.5q-8 -14 -15 -20t-15 -6q-4 0 -16 5zM292 1049q0 12 11 32l99 156q26 39 82 39h44q57 0 82 -39l102 -156q11 -17 11 -30q0 -27 -43 -27h-4q-17 0 -31 5.5t-28 18.5l-111 131l-109 -131q-24 -24 -60 -24h-4 q-41 0 -41 25zM203.5 110.5q-105.5 120.5 -105.5 350.5t107 354.5t305 124.5q196 0 300 -123.5t104 -355.5q0 -231 -102.5 -351t-301.5 -120q-201 0 -306.5 120.5zM697 202.5q62 84.5 62 261.5q0 178 -62 263t-192 85q-129 0 -190 -84.5t-61 -263.5q0 -178 60.5 -262 t190.5 -84t192 84.5z" />
<glyph unicode="&#xf6;" horiz-adv-x="1012" d="M98 0zM203.5 110.5q-105.5 120.5 -105.5 350.5t107 354.5t305 124.5q196 0 300 -123.5t104 -355.5q0 -231 -102.5 -351t-301.5 -120q-201 0 -306.5 120.5zM697 202.5q62 84.5 62 261.5q0 178 -62 263t-192 85q-129 0 -190 -84.5t-61 -263.5q0 -178 60.5 -262t190.5 -84 t192 84.5zM306 1118v91q0 40 78 40q71 0 71 -40v-91q0 -38 -78 -38q-71 0 -71 38zM562 1118v91q0 40 78 40q71 0 71 -40v-91q0 -38 -78 -38q-71 0 -71 38z" />
<glyph unicode="&#x1ecd;" horiz-adv-x="1012" d="M98 0zM203.5 110.5q-105.5 120.5 -105.5 350.5t107 354.5t305 124.5q196 0 300 -123.5t104 -355.5q0 -231 -102.5 -351t-301.5 -120q-201 0 -306.5 120.5zM697 202.5q62 84.5 62 261.5q0 178 -62 263t-192 85q-129 0 -190 -84.5t-61 -263.5q0 -178 60.5 -262t190.5 -84 t192 84.5zM517 -141zM446 -272v91q0 18 19 29t60 11q71 0 71 -40v-91q0 -38 -78 -38q-72 0 -72 38z" />
<glyph unicode="&#xf2;" horiz-adv-x="1012" d="M98 0zM203.5 110.5q-105.5 120.5 -105.5 350.5t107 354.5t305 124.5q196 0 300 -123.5t104 -355.5q0 -231 -102.5 -351t-301.5 -120q-201 0 -306.5 120.5zM697 202.5q62 84.5 62 261.5q0 178 -62 263t-192 85q-129 0 -190 -84.5t-61 -263.5q0 -178 60.5 -262t190.5 -84 t192 84.5zM503.5 1049q-23.5 8 -38.5 23l-72 82q-65 74 -80.5 93.5t-15.5 30.5q0 14 20.5 19t65.5 5q43 0 69 -10.5t41 -35.5q65 -113 84 -149.5t19 -48.5q0 -9 -9.5 -13t-31.5 -4q-28 0 -51.5 8z" />
<glyph unicode="&#x1ecf;" horiz-adv-x="1012" d="M98 0zM203.5 110.5q-105.5 120.5 -105.5 350.5t107 354.5t305 124.5q196 0 300 -123.5t104 -355.5q0 -231 -102.5 -351t-301.5 -120q-201 0 -306.5 120.5zM697 202.5q62 84.5 62 261.5q0 178 -62 263t-192 85q-129 0 -190 -84.5t-61 -263.5q0 -178 60.5 -262t190.5 -84 t192 84.5zM483 1010.5q-22 9.5 -22 20.5q0 15 10.5 27.5t33.5 31.5q31 25 48.5 48.5t17.5 56.5q0 23 -18.5 35t-47.5 12q-26 0 -42 -5t-26.5 -11t-13.5 -6q-10 0 -26 22.5t-16 35.5q0 12 21.5 25t54 21.5t63.5 8.5q35 0 72 -12t63 -40t26 -73q0 -53 -33 -100t-73.5 -77 t-54.5 -30q-15 0 -37 9.5z" />
<glyph unicode="&#x1a1;" horiz-adv-x="1012" d="M881 685.5q33 -96.5 33 -224.5q0 -231 -102.5 -351t-301.5 -120q-201 0 -306.5 120.5t-105.5 350.5t107 354.5t305 124.5q114 0 196 -42h25q53 0 75.5 17.5t22.5 42.5q3 24 -6 43t-26 41q-13 19 -15 25q0 19 15 29l43 29q10 7 22 7q19 0 36.5 -21.5t28 -53t10.5 -57.5 q0 -64 -38 -105.5t-114 -51.5q63 -61 96 -157.5zM697 202.5q62 84.5 62 261.5q0 178 -62 263t-192 85q-129 0 -190 -84.5t-61 -263.5q0 -178 60.5 -262t190.5 -84t192 84.5z" />
<glyph unicode="&#x1edb;" horiz-adv-x="1012" d="M435 1058q0 12 18 46t86 152q14 24 40.5 35t69.5 11q45 0 65 -5t20 -19q0 -9 -8 -21t-38.5 -47t-77.5 -89l-43 -49q-14 -15 -38 -23t-53 -8q-41 0 -41 17zM881 685.5q33 -96.5 33 -224.5q0 -231 -102.5 -351t-301.5 -120q-201 0 -306.5 120.5t-105.5 350.5t107 354.5 t305 124.5q114 0 196 -42h25q53 0 75.5 17.5t22.5 42.5q3 24 -6 43t-26 41q-13 19 -15 25q0 19 15 29l43 29q10 7 22 7q19 0 36.5 -21.5t28 -53t10.5 -57.5q0 -64 -38 -105.5t-114 -51.5q63 -61 96 -157.5zM697 202.5q62 84.5 62 261.5q0 178 -62 263t-192 85 q-129 0 -190 -84.5t-61 -263.5q0 -178 60.5 -262t190.5 -84t192 84.5z" />
<glyph unicode="&#x1ee3;" horiz-adv-x="1012" d="M881 685.5q33 -96.5 33 -224.5q0 -231 -102.5 -351t-301.5 -120q-201 0 -306.5 120.5t-105.5 350.5t107 354.5t305 124.5q114 0 196 -42h25q53 0 75.5 17.5t22.5 42.5q3 24 -6 43t-26 41q-13 19 -15 25q0 19 15 29l43 29q10 7 22 7q19 0 36.5 -21.5t28 -53t10.5 -57.5 q0 -64 -38 -105.5t-114 -51.5q63 -61 96 -157.5zM697 202.5q62 84.5 62 261.5q0 178 -62 263t-192 85q-129 0 -190 -84.5t-61 -263.5q0 -178 60.5 -262t190.5 -84t192 84.5zM596 -182v-90q0 -39 -78 -39q-72 0 -72 39v90q0 40 79 40q71 0 71 -40z" />
<glyph unicode="&#x1edd;" horiz-adv-x="1012" d="M503.5 1049q-23.5 8 -38.5 23l-72 82q-65 74 -80.5 93.5t-15.5 30.5q0 14 20.5 19t65.5 5q43 0 69 -10.5t41 -35.5q65 -113 84 -149.5t19 -48.5q0 -9 -9.5 -13t-31.5 -4q-28 0 -51.5 8zM881 685.5q33 -96.5 33 -224.5q0 -231 -102.5 -351t-301.5 -120 q-201 0 -306.5 120.5t-105.5 350.5t107 354.5t305 124.5q114 0 196 -42h25q53 0 75.5 17.5t22.5 42.5q3 24 -6 43t-26 41q-13 19 -15 25q0 19 15 29l43 29q10 7 22 7q19 0 36.5 -21.5t28 -53t10.5 -57.5q0 -64 -38 -105.5t-114 -51.5q63 -61 96 -157.5zM697 202.5 q62 84.5 62 261.5q0 178 -62 263t-192 85q-129 0 -190 -84.5t-61 -263.5q0 -178 60.5 -262t190.5 -84t192 84.5z" />
<glyph unicode="&#x1edf;" horiz-adv-x="1012" d="M397 1242.5q-16 22.5 -16 35.5q0 12 21.5 25t54 21.5t63.5 8.5q35 0 72 -12t63 -40t26 -73q0 -53 -33 -100t-73.5 -77t-54.5 -30q-15 0 -37 9.5t-22 20.5q0 15 10.5 27.5t33.5 31.5q31 25 48.5 48.5t17.5 56.5q0 23 -18.5 35t-47.5 12q-26 0 -41.5 -5t-26.5 -11t-14 -6 q-10 0 -26 22.5zM881 685.5q33 -96.5 33 -224.5q0 -231 -102.5 -351t-301.5 -120q-201 0 -306.5 120.5t-105.5 350.5t107 354.5t305 124.5q114 0 196 -42h25q53 0 75.5 17.5t22.5 42.5q3 24 -6 43t-26 41q-13 19 -15 25q0 19 15 29l43 29q10 7 22 7q19 0 36.5 -21.5t28 -53 t10.5 -57.5q0 -64 -38 -105.5t-114 -51.5q63 -61 96 -157.5zM697 202.5q62 84.5 62 261.5q0 178 -62 263t-192 85q-129 0 -190 -84.5t-61 -263.5q0 -178 60.5 -262t190.5 -84t192 84.5z" />
<glyph unicode="&#x1ee1;" horiz-adv-x="1012" d="M213 1081q0 12 5 23q25 66 61.5 94.5t88.5 28.5q33 0 68 -10.5t86 -30.5q43 -18 72 -27t54 -9q22 0 38 11.5t33 40.5q8 14 15.5 20t16.5 6q6 0 16 -5l12 -5q11 -4 15.5 -9t4.5 -13q0 -10 -7 -24q-25 -65 -61 -93t-87 -28q-35 0 -69.5 10t-91.5 32q-46 18 -73.5 26.5 t-51.5 8.5q-20 0 -35.5 -12.5t-31.5 -41.5q-8 -14 -15 -20t-15 -6q-4 0 -16 5l-17 7q-15 7 -15 21zM881 685.5q33 -96.5 33 -224.5q0 -231 -102.5 -351t-301.5 -120q-201 0 -306.5 120.5t-105.5 350.5t107 354.5t305 124.5q114 0 196 -42h25q53 0 75.5 17.5t22.5 42.5 q3 24 -6 43t-26 41q-13 19 -15 25q0 19 15 29l43 29q10 7 22 7q19 0 36.5 -21.5t28 -53t10.5 -57.5q0 -64 -38 -105.5t-114 -51.5q63 -61 96 -157.5zM697 202.5q62 84.5 62 261.5q0 178 -62 263t-192 85q-129 0 -190 -84.5t-61 -263.5q0 -178 60.5 -262t190.5 -84t192 84.5z " />
<glyph unicode="&#x151;" horiz-adv-x="1012" d="M98 0zM203.5 110.5q-105.5 120.5 -105.5 350.5t107 354.5t305 124.5q196 0 300 -123.5t104 -355.5q0 -231 -102.5 -351t-301.5 -120q-201 0 -306.5 120.5zM697 202.5q62 84.5 62 261.5q0 178 -62 263t-192 85q-129 0 -190 -84.5t-61 -263.5q0 -178 60.5 -262t190.5 -84 t192 84.5zM308 1058q0 12 19 48.5t84 149.5q15 25 41 35.5t70 10.5t64.5 -5t20.5 -19q0 -8 -7 -19.5t-33 -42t-67 -76.5l-60 -68q-30 -31 -91 -31q-41 0 -41 17zM579.5 1045q-9.5 4 -9.5 13q0 13 20 51t82 147q15 25 41 35.5t70 10.5t64.5 -5t20.5 -19q0 -8 -7 -19.5 t-33 -42t-67 -76.5l-60 -68q-30 -31 -90 -31q-22 0 -31.5 4z" />
<glyph unicode="&#x14d;" horiz-adv-x="1012" d="M98 0zM203.5 110.5q-105.5 120.5 -105.5 350.5t107 354.5t305 124.5q196 0 300 -123.5t104 -355.5q0 -231 -102.5 -351t-301.5 -120q-201 0 -306.5 120.5zM697 202.5q62 84.5 62 261.5q0 178 -62 263t-192 85q-129 0 -190 -84.5t-61 -263.5q0 -178 60.5 -262t190.5 -84 t192 84.5zM282.5 1101q-8.5 13 -8.5 41v17q0 28 8.5 41t27.5 13h397q18 0 26 -13t8 -41v-17q0 -29 -8 -41.5t-26 -12.5h-397q-19 0 -27.5 13z" />
<glyph unicode="&#x1eb;" horiz-adv-x="1012" d="M825 -228q0 -56 -37 -77t-109 -21q-123 0 -166 58.5t-43 122.5q0 91 35 135q-199 1 -303 122t-104 349q0 230 107 354.5t305 124.5q196 0 300 -123.5t104 -355.5q0 -200 -77 -317t-227 -145v-1q0 -13 -9 -40q-13 -46 -13 -69q0 -56 32.5 -73t78.5 -17q14 0 44 8 q31 9 48 9q34 0 34 -44zM314.5 202q60.5 -84 190.5 -84t192 84.5t62 261.5q0 178 -62 263t-192 85q-129 0 -190 -84.5t-61 -263.5q0 -178 60.5 -262z" />
<glyph unicode="&#xf8;" horiz-adv-x="1012" d="M232 78l-53 -60q-13 -15 -24 -15q-12 0 -26.5 13.5t-14.5 24.5t12 25l55 65q-83 117 -83 330q0 269 120 373.5t292 104.5q179 0 282 -98l60 72q13 13 25 13q11 0 25 -13.5t14 -23.5q0 -13 -11 -24l-69 -80q78 -120 78 -324q0 -270 -115 -370t-289 -100q-177 0 -278 87z M696 729q-64 82 -191 82q-124 0 -188 -80.5t-64 -266.5q0 -137 32 -211zM694.5 198.5q64.5 79.5 64.5 265.5q0 126 -29 198l-404 -475q31 -36 75 -52t104 -16q125 0 189.5 79.5z" />
<glyph unicode="&#x1ff;" horiz-adv-x="1012" d="M98 0zM232 78l-53 -60q-13 -15 -24 -15q-12 0 -26.5 13.5t-14.5 24.5t12 25l55 65q-83 117 -83 330q0 269 120 373.5t292 104.5q179 0 282 -98l60 72q13 13 25 13q11 0 25 -13.5t14 -23.5q0 -13 -11 -24l-69 -80q78 -120 78 -324q0 -270 -115 -370t-289 -100 q-177 0 -278 87zM696 729q-64 82 -191 82q-124 0 -188 -80.5t-64 -266.5q0 -137 32 -211zM694.5 198.5q64.5 79.5 64.5 265.5q0 126 -29 198l-404 -475q31 -36 75 -52t104 -16q125 0 189.5 79.5zM435 1058q0 12 18 46t86 152q14 24 40.5 35t69.5 11q45 0 65 -5t20 -19 q0 -9 -8 -21t-38.5 -47t-77.5 -89l-43 -49q-14 -15 -38 -23t-53 -8q-41 0 -41 17z" />
<glyph unicode="&#xf5;" horiz-adv-x="1012" d="M98 0zM203.5 110.5q-105.5 120.5 -105.5 350.5t107 354.5t305 124.5q196 0 300 -123.5t104 -355.5q0 -231 -102.5 -351t-301.5 -120q-201 0 -306.5 120.5zM697 202.5q62 84.5 62 261.5q0 178 -62 263t-192 85q-129 0 -190 -84.5t-61 -263.5q0 -178 60.5 -262t190.5 -84 t192 84.5zM217 1060q-17 7 -17 21q0 12 6 23q28 66 67.5 94.5t96.5 28.5q36 0 74 -10.5t95 -30.5q47 -18 80 -27t60 -9q24 0 41.5 11.5t35.5 40.5q18 26 35 26q6 0 18 -5l14 -5q11 -4 16 -9t5 -13q0 -11 -8 -24q-28 -65 -67.5 -93t-94.5 -28q-38 0 -76.5 10.5t-100.5 31.5 q-49 18 -80 26.5t-57 8.5q-22 0 -39 -12.5t-36 -41.5q-9 -14 -16 -20t-16 -6q-6 0 -18 5z" />
<glyph unicode="&#x153;" horiz-adv-x="1549" d="M1389.5 174.5q14.5 -17.5 25 -39t10.5 -31.5q0 -22 -44 -49t-117.5 -46t-157.5 -19q-206 0 -312 99q-100 -99 -284 -99q-201 0 -306.5 120.5t-105.5 350.5t107 354.5t305 124.5q181 0 282 -104q104 104 292 104q182 0 274.5 -118t92.5 -346q0 -10 -10.5 -27.5t-25 -31 t-24.5 -13.5h-561q11 -149 76.5 -217.5t197.5 -68.5q74 0 127.5 18t103.5 44q5 2 15 7t14 5q11 0 25.5 -17.5zM715 201q-45 104 -45 258q0 158 48 266q-69 87 -213 87q-129 0 -190 -84.5t-61 -263.5q0 -178 60.5 -262t190.5 -84q143 0 210 83zM830 532h462q0 280 -213 280 q-229 0 -249 -280z" />
<glyph unicode="p" horiz-adv-x="1019" d="M153 -331v991q0 116 -11 167.5t-11 56.5q0 22 33.5 31.5t63.5 9.5q25 0 37 -27t17.5 -55t7.5 -36q127 133 283 133q107 0 185 -61t119 -169t41 -246q0 -150 -45.5 -257t-127.5 -162t-189 -55q-77 0 -136.5 23t-117.5 67v-411q0 -39 -70 -39h-7q-72 0 -72 39zM701 208 q60 84 60 244q0 172 -56.5 265.5t-162.5 93.5q-59 0 -122.5 -32t-117.5 -91v-487q98 -80 220 -80q119 3 179 87z" />
<glyph unicode="&#xfe;" horiz-adv-x="1014" d="M152 -331v1629q0 39 70 39h8q70 0 70 -39v-479q124 121 271 121q105 0 183 -60.5t120 -169t42 -248.5q0 -149 -45.5 -255.5t-127.5 -161.5t-188 -55q-77 0 -137 23t-118 67v-411q0 -39 -70 -39h-8q-70 0 -70 39zM699 208q60 84 60 244q0 172 -56.5 265.5t-161.5 93.5 q-60 0 -123 -32t-118 -91v-487q98 -80 221 -80q118 3 178 87z" />
<glyph unicode="q" horiz-adv-x="1007" d="M708 -331v411q-58 -44 -117.5 -67t-136.5 -23q-107 0 -188.5 55t-127.5 161.5t-46 255.5q0 140 42 248.5t120.5 169t182.5 60.5q156 0 283 -133q13 68 29 106q5 11 16.5 15.5t31.5 4.5h7q53 0 53 -39v-1225q0 -39 -71 -39h-8q-70 0 -70 39zM708 201v487q-54 59 -117.5 91 t-122.5 32q-106 0 -162.5 -93.5t-56.5 -265.5q0 -160 60 -244t179 -87q122 0 220 80z" />
<glyph unicode="r" horiz-adv-x="650" d="M177 6.5q-17 9.5 -17 29.5v624q0 116 -11 167.5t-11 56.5q0 22 33.5 31.5t63.5 9.5q24 0 36 -25.5t21 -71.5l5 -21q95 133 206 133q51 0 77 -18.5t26 -49.5q0 -30 -10.5 -63.5t-24.5 -33.5q-7 0 -25 6q-16 7 -32 10.5t-41 3.5q-41 0 -77.5 -24t-61.5 -53t-25 -32v-650 q0 -20 -17 -29.5t-53 -9.5h-7q-38 0 -55 9.5z" />
<glyph unicode="&#x155;" horiz-adv-x="650" d="M138 0zM177 6.5q-17 9.5 -17 29.5v624q0 116 -11 167.5t-11 56.5q0 22 33.5 31.5t63.5 9.5q24 0 36 -25.5t21 -71.5l5 -21q95 133 206 133q51 0 77 -18.5t26 -49.5q0 -30 -10.5 -63.5t-24.5 -33.5q-7 0 -25 6q-16 7 -32 10.5t-41 3.5q-41 0 -77.5 -24t-61.5 -53t-25 -32 v-650q0 -20 -17 -29.5t-53 -9.5h-7q-38 0 -55 9.5zM163 1052q0 12 18 46t86 152q14 24 40.5 35t69.5 11q45 0 65 -5t20 -19q0 -9 -8 -21t-38.5 -47t-77.5 -89l-43 -49q-14 -15 -38 -23t-53 -8q-41 0 -41 17z" />
<glyph unicode="&#x159;" horiz-adv-x="650" d="M20 0zM177 6.5q-17 9.5 -17 29.5v624q0 116 -11 167.5t-11 56.5q0 22 33.5 31.5t63.5 9.5q24 0 36 -25.5t21 -71.5l5 -21q95 133 206 133q51 0 77 -18.5t26 -49.5q0 -30 -10.5 -63.5t-24.5 -33.5q-7 0 -25 6q-16 7 -32 10.5t-41 3.5q-41 0 -77.5 -24t-61.5 -53t-25 -32 v-650q0 -20 -17 -29.5t-53 -9.5h-7q-38 0 -55 9.5zM129 1068l-99 156q-10 17 -10 33q0 11 10.5 17.5t30.5 6.5h3q36 0 60 -23l109 -131l111 131q14 12 28 17.5t32 5.5h3q20 0 31.5 -7t11.5 -19q0 -14 -11 -31l-101 -156q-28 -40 -82 -40h-45q-53 0 -82 40z" />
<glyph unicode="&#x157;" horiz-adv-x="650" d="M82 0zM177 6.5q-17 9.5 -17 29.5v624q0 116 -11 167.5t-11 56.5q0 22 33.5 31.5t63.5 9.5q24 0 36 -25.5t21 -71.5l5 -21q95 133 206 133q51 0 77 -18.5t26 -49.5q0 -30 -10.5 -63.5t-24.5 -33.5q-7 0 -25 6q-16 7 -32 10.5t-41 3.5q-41 0 -77.5 -24t-61.5 -53t-25 -32 v-650q0 -20 -17 -29.5t-53 -9.5h-7q-38 0 -55 9.5zM97.5 -415q-15.5 6 -15.5 21q0 10 5 22.5t17 32.5q24 46 38.5 88.5t14.5 99.5q0 26 18.5 41.5t53.5 15.5h16q33 0 52 -13.5t19 -36.5q0 -79 -32 -142.5t-75.5 -99t-75.5 -35.5q-20 0 -35.5 6z" />
<glyph unicode="&#x1e5b;" horiz-adv-x="650" d="M138 0zM177 6.5q-17 9.5 -17 29.5v624q0 116 -11 167.5t-11 56.5q0 22 33.5 31.5t63.5 9.5q24 0 36 -25.5t21 -71.5l5 -21q95 133 206 133q51 0 77 -18.5t26 -49.5q0 -30 -10.5 -63.5t-24.5 -33.5q-7 0 -25 6q-16 7 -32 10.5t-41 3.5q-41 0 -77.5 -24t-61.5 -53t-25 -32 v-650q0 -20 -17 -29.5t-53 -9.5h-7q-38 0 -55 9.5zM239 -144zM168 -275v91q0 18 19 29t60 11q71 0 71 -40v-91q0 -38 -78 -38q-72 0 -72 38z" />
<glyph unicode="s" horiz-adv-x="734" d="M205 2q-65 19 -103.5 46.5t-38.5 48.5q0 10 10.5 32t25 39.5t26.5 17.5q3 0 18 -10q40 -26 84.5 -44t106.5 -18q174 0 174 144q0 41 -16.5 69t-55 49.5t-105.5 41.5q-96 28 -149.5 64t-75.5 84.5t-22 117.5q0 74 37.5 133t105 92t152.5 33q59 0 113.5 -11t88 -28.5 t33.5 -36.5q0 -14 -9.5 -37.5t-23.5 -41t-25 -17.5q-2 0 -25 12.5t-58.5 23t-78.5 10.5q-68 0 -112.5 -30.5t-44.5 -81.5q0 -60 32 -96t106 -59q114 -35 174 -70t85.5 -85.5t25.5 -132.5q0 -78 -42 -141.5t-114 -100t-159 -36.5q-75 0 -140 19z" />
<glyph unicode="&#x15b;" horiz-adv-x="734" d="M63 0zM205 2q-65 19 -103.5 46.5t-38.5 48.5q0 10 10.5 32t25 39.5t26.5 17.5q3 0 18 -10q40 -26 84.5 -44t106.5 -18q174 0 174 144q0 41 -16.5 69t-55 49.5t-105.5 41.5q-96 28 -149.5 64t-75.5 84.5t-22 117.5q0 74 37.5 133t105 92t152.5 33q59 0 113.5 -11t88 -28.5 t33.5 -36.5q0 -14 -9.5 -37.5t-23.5 -41t-25 -17.5q-2 0 -25 12.5t-58.5 23t-78.5 10.5q-68 0 -112.5 -30.5t-44.5 -81.5q0 -60 32 -96t106 -59q114 -35 174 -70t85.5 -85.5t25.5 -132.5q0 -78 -42 -141.5t-114 -100t-159 -36.5q-75 0 -140 19zM296 1058q0 12 18 46t86 152 q14 24 40.5 35t69.5 11q45 0 65 -5t20 -19q0 -9 -8 -21t-38.5 -47t-77.5 -89l-43 -49q-14 -15 -38 -23t-53 -8q-41 0 -41 17z" />
<glyph unicode="&#x161;" horiz-adv-x="734" d="M63 0zM205 2q-65 19 -103.5 46.5t-38.5 48.5q0 10 10.5 32t25 39.5t26.5 17.5q3 0 18 -10q40 -26 84.5 -44t106.5 -18q174 0 174 144q0 41 -16.5 69t-55 49.5t-105.5 41.5q-96 28 -149.5 64t-75.5 84.5t-22 117.5q0 74 37.5 133t105 92t152.5 33q59 0 113.5 -11t88 -28.5 t33.5 -36.5q0 -14 -9.5 -37.5t-23.5 -41t-25 -17.5q-2 0 -25 12.5t-58.5 23t-78.5 10.5q-68 0 -112.5 -30.5t-44.5 -81.5q0 -60 32 -96t106 -59q114 -35 174 -70t85.5 -85.5t25.5 -132.5q0 -78 -42 -141.5t-114 -100t-159 -36.5q-75 0 -140 19zM262 1074l-99 156 q-10 17 -10 33q0 11 10.5 17.5t30.5 6.5h3q36 0 60 -23l109 -131l111 131q14 12 28 17.5t32 5.5h3q20 0 31.5 -7t11.5 -19q0 -14 -11 -31l-101 -156q-28 -40 -82 -40h-45q-53 0 -82 40z" />
<glyph unicode="&#x15f;" horiz-adv-x="734" d="M627 134q-33 -58 -90.5 -96t-129.5 -50l-22 -75h7q51 0 101 -27t50 -101q0 -93 -58.5 -126t-145.5 -33q-42 0 -90.5 9.5t-81.5 27t-33 40.5q0 19 8 32.5t26 13.5q9 0 23.5 -5t21.5 -7q29 -11 52.5 -17t49.5 -6q43 0 72.5 12t29.5 49q0 30 -18 43.5t-52 24.5 q-24 8 -35.5 15t-11.5 21q0 10 6.5 33.5t22.5 71.5q-72 2 -133.5 21t-97 45t-35.5 47q0 10 10.5 32t25 39.5t26.5 17.5q3 0 18 -10q40 -26 84.5 -44t106.5 -18q174 0 174 144q0 41 -16.5 69t-55 49.5t-105.5 41.5q-96 28 -149.5 64t-75.5 84.5t-22 117.5q0 74 37.5 133 t105 92t152.5 33q59 0 113.5 -11t88 -28.5t33.5 -36.5q0 -14 -9.5 -37.5t-23.5 -41t-25 -17.5q-2 0 -25 12.5t-58.5 23t-78.5 10.5q-68 0 -112.5 -30.5t-44.5 -81.5q0 -60 32 -96t106 -59q114 -35 174 -70t85.5 -85.5t25.5 -132.5q0 -69 -33 -127z" />
<glyph unicode="&#x15d;" horiz-adv-x="734" d="M63 0zM205 2q-65 19 -103.5 46.5t-38.5 48.5q0 10 10.5 32t25 39.5t26.5 17.5q3 0 18 -10q40 -26 84.5 -44t106.5 -18q174 0 174 144q0 41 -16.5 69t-55 49.5t-105.5 41.5q-96 28 -149.5 64t-75.5 84.5t-22 117.5q0 74 37.5 133t105 92t152.5 33q59 0 113.5 -11t88 -28.5 t33.5 -36.5q0 -14 -9.5 -37.5t-23.5 -41t-25 -17.5q-2 0 -25 12.5t-58.5 23t-78.5 10.5q-68 0 -112.5 -30.5t-44.5 -81.5q0 -60 32 -96t106 -59q114 -35 174 -70t85.5 -85.5t25.5 -132.5q0 -78 -42 -141.5t-114 -100t-159 -36.5q-75 0 -140 19zM152 1049q0 12 11 32l99 156 q26 39 82 39h44q57 0 82 -39l102 -156q11 -17 11 -30q0 -27 -43 -27h-4q-17 0 -31 5.5t-28 18.5l-111 131l-109 -131q-24 -24 -60 -24h-4q-41 0 -41 25z" />
<glyph unicode="&#x219;" horiz-adv-x="734" d="M63 0zM205 2q-65 19 -103.5 46.5t-38.5 48.5q0 10 10.5 32t25 39.5t26.5 17.5q3 0 18 -10q40 -26 84.5 -44t106.5 -18q174 0 174 144q0 41 -16.5 69t-55 49.5t-105.5 41.5q-96 28 -149.5 64t-75.5 84.5t-22 117.5q0 74 37.5 133t105 92t152.5 33q59 0 113.5 -11t88 -28.5 t33.5 -36.5q0 -14 -9.5 -37.5t-23.5 -41t-25 -17.5q-2 0 -25 12.5t-58.5 23t-78.5 10.5q-68 0 -112.5 -30.5t-44.5 -81.5q0 -60 32 -96t106 -59q114 -35 174 -70t85.5 -85.5t25.5 -132.5q0 -78 -42 -141.5t-114 -100t-159 -36.5q-75 0 -140 19zM227.5 -412q-15.5 6 -15.5 21 q0 10 5 22.5t17 32.5q24 46 38.5 88.5t14.5 99.5q0 26 18.5 41.5t53.5 15.5h16q33 0 52 -13.5t19 -36.5q0 -79 -32 -142.5t-75.5 -99t-75.5 -35.5q-20 0 -35.5 6z" />
<glyph unicode="&#x1e63;" horiz-adv-x="734" d="M63 0zM205 2q-65 19 -103.5 46.5t-38.5 48.5q0 10 10.5 32t25 39.5t26.5 17.5q3 0 18 -10q40 -26 84.5 -44t106.5 -18q174 0 174 144q0 41 -16.5 69t-55 49.5t-105.5 41.5q-96 28 -149.5 64t-75.5 84.5t-22 117.5q0 74 37.5 133t105 92t152.5 33q59 0 113.5 -11t88 -28.5 t33.5 -36.5q0 -14 -9.5 -37.5t-23.5 -41t-25 -17.5q-2 0 -25 12.5t-58.5 23t-78.5 10.5q-68 0 -112.5 -30.5t-44.5 -81.5q0 -60 32 -96t106 -59q114 -35 174 -70t85.5 -85.5t25.5 -132.5q0 -78 -42 -141.5t-114 -100t-159 -36.5q-75 0 -140 19zM368 -141zM297 -272v91 q0 18 19 29t60 11q71 0 71 -40v-91q0 -38 -78 -38q-72 0 -72 38z" />
<glyph unicode="&#xdf;" horiz-adv-x="985" d="M177 6.5q-17 9.5 -17 29.5v890q0 97 43.5 172t123 116.5t183.5 41.5q159 0 255.5 -72t96.5 -231q0 -52 -22.5 -104.5t-64 -95.5t-94.5 -65v-5q111 -26 172 -112.5t61 -203.5q0 -116 -50.5 -199t-137 -125.5t-194.5 -42.5h-57q-19 0 -27 13t-8 40v22q0 28 8 40.5t27 12.5 h59q63 0 114 28.5t80.5 82.5t29.5 128q0 72 -29.5 126t-81 82.5t-113.5 28.5h-59q-19 0 -27 13t-8 41v21q0 28 8 40.5t27 12.5h18q54 0 102.5 28t78.5 75.5t30 103.5q0 104 -56.5 146.5t-140.5 42.5q-91 0 -144.5 -54.5t-53.5 -147.5v-890q0 -20 -17 -29.5t-53 -9.5h-7 q-38 0 -55 9.5z" />
<glyph unicode="&#x17f;" horiz-adv-x="578" d="M209 6.5q-17 9.5 -17 29.5v766h-71q-36 0 -36 53v22q0 53 36 53h71v169q0 140 69.5 192.5t159.5 52.5q130 0 130 -54q0 -9 -4.5 -29.5t-13 -36.5t-19.5 -16q-6 0 -25 4t-52 4q-30 0 -50.5 -9t-33 -38t-12.5 -84v-1049q0 -20 -17 -29.5t-53 -9.5h-8q-37 0 -54 9.5z" />
<glyph unicode="&#x259;" horiz-adv-x="959" d="M755 825q107 -115 107 -354q0 -236 -105.5 -358.5t-309.5 -122.5q-181 0 -273.5 118t-92.5 346q0 11 10.5 28.5t24.5 31t24 13.5h561q-11 148 -76 216.5t-197 68.5q-75 0 -127.5 -17.5t-105.5 -43.5q-22 -12 -27 -12q-12 0 -26.5 17t-25 39t-10.5 32q0 22 44 49t118 45.5 t158 18.5q222 0 329 -115zM239 399q0 -281 213 -281q231 0 249 281h-462z" />
<glyph unicode="t" horiz-adv-x="609" d="M261 44q-70 54 -70 191v567h-89q-19 0 -27.5 12.5t-8.5 40.5v22q0 28 8.5 40.5t27.5 12.5h89l21 186q2 39 57 39h17q28 0 41 -9.5t13 -29.5v-186h149q19 0 27.5 -12.5t8.5 -40.5v-22q0 -28 -8.5 -40.5t-27.5 -12.5h-149v-553q0 -73 25.5 -102t69.5 -29q34 0 52.5 4 t24.5 4q16 0 26.5 -32t10.5 -51q0 -53 -129 -53q-89 0 -159 54z" />
<glyph unicode="&#x167;" horiz-adv-x="609" d="M538.5 94q10.5 -32 10.5 -51q0 -53 -129 -53q-89 0 -159 54t-70 191v228h-95q-19 0 -27.5 13t-8.5 41v17q0 28 8.5 41t27.5 13h95v214h-89q-19 0 -27.5 12.5t-8.5 40.5v22q0 28 8.5 40.5t27.5 12.5h89l21 186q2 39 57 39h17q28 0 41 -9.5t13 -29.5v-186h149 q19 0 27.5 -12.5t8.5 -40.5v-22q0 -28 -8.5 -40.5t-27.5 -12.5h-149v-214h153q18 0 26 -13t8 -41v-17q0 -29 -8 -41.5t-26 -12.5h-153v-214q0 -73 25.5 -102t69.5 -29q34 0 52.5 4t24.5 4q16 0 26.5 -32z" />
<glyph unicode="&#x165;" horiz-adv-x="609" d="M66 0zM261 44q-70 54 -70 191v567h-89q-19 0 -27.5 12.5t-8.5 40.5v22q0 28 8.5 40.5t27.5 12.5h89l21 186q2 39 57 39h17q28 0 41 -9.5t13 -29.5v-186h149q19 0 27.5 -12.5t8.5 -40.5v-22q0 -28 -8.5 -40.5t-27.5 -12.5h-149v-553q0 -73 25.5 -102t69.5 -29q34 0 52.5 4 t24.5 4q16 0 26.5 -32t10.5 -51q0 -53 -129 -53q-89 0 -159 54zM435 1034q-16 6 -16 21q0 14 7 51q8 50 12 86t4 89q0 26 18 41t53 15h16q33 0 52 -13t19 -36q0 -75 -22.5 -134t-53 -92.5t-53.5 -33.5q-20 0 -36 6z" />
<glyph unicode="&#x163;" horiz-adv-x="609" d="M510 -114q50 -27 50 -101q0 -93 -58.5 -126t-145.5 -33q-42 0 -90.5 9.5t-81.5 27t-33 40.5q0 19 8 32.5t26 13.5q9 0 23.5 -5t21.5 -7q29 -11 52.5 -17t49.5 -6q43 0 72.5 12t29.5 49q0 30 -18 43.5t-52 24.5q-24 8 -35.5 15t-11.5 21q0 11 5.5 32t27.5 87 q-69 18 -114 73.5t-45 163.5v567h-89q-19 0 -27.5 12.5t-8.5 40.5v22q0 28 8.5 40.5t27.5 12.5h89l21 186q2 39 57 39h17q28 0 41 -9.5t13 -29.5v-186h149q19 0 27.5 -12.5t8.5 -40.5v-22q0 -28 -8.5 -40.5t-27.5 -12.5h-149v-553q0 -73 25.5 -102t69.5 -29q34 0 52.5 4 t24.5 4q16 0 26.5 -32t10.5 -51q0 -53 -125 -53l-22 -77h7q51 0 101 -27z" />
<glyph unicode="&#x21b;" horiz-adv-x="609" d="M66 0zM261 44q-70 54 -70 191v567h-89q-19 0 -27.5 12.5t-8.5 40.5v22q0 28 8.5 40.5t27.5 12.5h89l21 186q2 39 57 39h17q28 0 41 -9.5t13 -29.5v-186h149q19 0 27.5 -12.5t8.5 -40.5v-22q0 -28 -8.5 -40.5t-27.5 -12.5h-149v-553q0 -73 25.5 -102t69.5 -29q34 0 52.5 4 t24.5 4q16 0 26.5 -32t10.5 -51q0 -53 -129 -53q-89 0 -159 54zM243.5 -412q-15.5 6 -15.5 21q0 10 5 22.5t17 32.5q24 46 38.5 88.5t14.5 99.5q0 26 18.5 41.5t53.5 15.5h16q33 0 52 -13.5t19 -36.5q0 -79 -32 -142.5t-75.5 -99t-75.5 -35.5q-20 0 -35.5 6z" />
<glyph unicode="&#x1e6d;" horiz-adv-x="609" d="M66 0zM261 44q-70 54 -70 191v567h-89q-19 0 -27.5 12.5t-8.5 40.5v22q0 28 8.5 40.5t27.5 12.5h89l21 186q2 39 57 39h17q28 0 41 -9.5t13 -29.5v-186h149q19 0 27.5 -12.5t8.5 -40.5v-22q0 -28 -8.5 -40.5t-27.5 -12.5h-149v-553q0 -73 25.5 -102t69.5 -29q34 0 52.5 4 t24.5 4q16 0 26.5 -32t10.5 -51q0 -53 -129 -53q-89 0 -159 54zM384 -141zM313 -272v91q0 18 19 29t60 11q71 0 71 -40v-91q0 -38 -78 -38q-72 0 -72 38z" />
<glyph unicode="u" horiz-adv-x="990" d="M210 66.5q-77 76.5 -77 211.5v616q0 39 72 39h7q71 0 71 -39v-602q0 -82 47.5 -127.5t133.5 -45.5q60 0 120 33.5t104 91.5v650q0 39 71 39h7q72 0 72 -39v-631q0 -116 10 -167.5t10 -56.5q0 -22 -33 -31.5t-62 -9.5q-25 0 -37 28.5t-17.5 58.5t-7.5 38 q-56 -63 -129.5 -98t-148.5 -35q-136 0 -213 76.5z" />
<glyph unicode="&#xfa;" horiz-adv-x="990" d="M133 0zM210 66.5q-77 76.5 -77 211.5v616q0 39 72 39h7q71 0 71 -39v-602q0 -82 47.5 -127.5t133.5 -45.5q60 0 120 33.5t104 91.5v650q0 39 71 39h7q72 0 72 -39v-631q0 -116 10 -167.5t10 -56.5q0 -22 -33 -31.5t-62 -9.5q-25 0 -37 28.5t-17.5 58.5t-7.5 38 q-56 -63 -129.5 -98t-148.5 -35q-136 0 -213 76.5zM424 1058q0 12 18 46t86 152q14 24 40.5 35t69.5 11q45 0 65 -5t20 -19q0 -9 -8 -21t-38.5 -47t-77.5 -89l-43 -49q-14 -15 -38 -23t-53 -8q-41 0 -41 17z" />
<glyph unicode="&#x16d;" horiz-adv-x="990" d="M133 0zM210 66.5q-77 76.5 -77 211.5v616q0 39 72 39h7q71 0 71 -39v-602q0 -82 47.5 -127.5t133.5 -45.5q60 0 120 33.5t104 91.5v650q0 39 71 39h7q72 0 72 -39v-631q0 -116 10 -167.5t10 -56.5q0 -22 -33 -31.5t-62 -9.5q-25 0 -37 28.5t-17.5 58.5t-7.5 38 q-56 -63 -129.5 -98t-148.5 -35q-136 0 -213 76.5zM371.5 1064q-58.5 23 -95 69t-36.5 111q0 14 6 20.5t20 6.5q15 0 20.5 -5t10.5 -19t8 -20q19 -36 70.5 -53t121.5 -17t120.5 17t69.5 53l9 20q5 14 10.5 19t19.5 5q15 0 21 -6.5t6 -20.5q0 -65 -36.5 -111t-95 -69 t-124.5 -23q-67 0 -125.5 23z" />
<glyph unicode="&#xfb;" horiz-adv-x="990" d="M133 0zM210 66.5q-77 76.5 -77 211.5v616q0 39 72 39h7q71 0 71 -39v-602q0 -82 47.5 -127.5t133.5 -45.5q60 0 120 33.5t104 91.5v650q0 39 71 39h7q72 0 72 -39v-631q0 -116 10 -167.5t10 -56.5q0 -22 -33 -31.5t-62 -9.5q-25 0 -37 28.5t-17.5 58.5t-7.5 38 q-56 -63 -129.5 -98t-148.5 -35q-136 0 -213 76.5zM280 1049q0 12 11 32l99 156q26 39 82 39h44q57 0 82 -39l102 -156q11 -17 11 -30q0 -27 -43 -27h-4q-17 0 -31 5.5t-28 18.5l-111 131l-109 -131q-24 -24 -60 -24h-4q-41 0 -41 25z" />
<glyph unicode="&#xfc;" horiz-adv-x="990" d="M133 0zM210 66.5q-77 76.5 -77 211.5v616q0 39 72 39h7q71 0 71 -39v-602q0 -82 47.5 -127.5t133.5 -45.5q60 0 120 33.5t104 91.5v650q0 39 71 39h7q72 0 72 -39v-631q0 -116 10 -167.5t10 -56.5q0 -22 -33 -31.5t-62 -9.5q-25 0 -37 28.5t-17.5 58.5t-7.5 38 q-56 -63 -129.5 -98t-148.5 -35q-136 0 -213 76.5zM294 1118v91q0 40 78 40q71 0 71 -40v-91q0 -38 -78 -38q-71 0 -71 38zM550 1118v91q0 40 78 40q71 0 71 -40v-91q0 -38 -78 -38q-71 0 -71 38z" />
<glyph unicode="&#x1ee5;" horiz-adv-x="990" d="M133 0zM210 66.5q-77 76.5 -77 211.5v616q0 39 72 39h7q71 0 71 -39v-602q0 -82 47.5 -127.5t133.5 -45.5q60 0 120 33.5t104 91.5v650q0 39 71 39h7q72 0 72 -39v-631q0 -116 10 -167.5t10 -56.5q0 -22 -33 -31.5t-62 -9.5q-25 0 -37 28.5t-17.5 58.5t-7.5 38 q-56 -63 -129.5 -98t-148.5 -35q-136 0 -213 76.5zM447 -141zM376 -272v91q0 18 19 29t60 11q71 0 71 -40v-91q0 -38 -78 -38q-72 0 -72 38z" />
<glyph unicode="&#xf9;" horiz-adv-x="990" d="M133 0zM210 66.5q-77 76.5 -77 211.5v616q0 39 72 39h7q71 0 71 -39v-602q0 -82 47.5 -127.5t133.5 -45.5q60 0 120 33.5t104 91.5v650q0 39 71 39h7q72 0 72 -39v-631q0 -116 10 -167.5t10 -56.5q0 -22 -33 -31.5t-62 -9.5q-25 0 -37 28.5t-17.5 58.5t-7.5 38 q-56 -63 -129.5 -98t-148.5 -35q-136 0 -213 76.5zM492.5 1049q-23.5 8 -38.5 23l-72 82q-65 74 -80.5 93.5t-15.5 30.5q0 14 20.5 19t65.5 5q43 0 69 -10.5t41 -35.5q65 -113 84 -149.5t19 -48.5q0 -9 -9.5 -13t-31.5 -4q-28 0 -51.5 8z" />
<glyph unicode="&#x1ee7;" horiz-adv-x="990" d="M133 0zM210 66.5q-77 76.5 -77 211.5v616q0 39 72 39h7q71 0 71 -39v-602q0 -82 47.5 -127.5t133.5 -45.5q60 0 120 33.5t104 91.5v650q0 39 71 39h7q72 0 72 -39v-631q0 -116 10 -167.5t10 -56.5q0 -22 -33 -31.5t-62 -9.5q-25 0 -37 28.5t-17.5 58.5t-7.5 38 q-56 -63 -129.5 -98t-148.5 -35q-136 0 -213 76.5zM472 1010.5q-22 9.5 -22 20.5q0 15 10.5 27.5t33.5 31.5q31 25 48.5 48.5t17.5 56.5q0 23 -18.5 35t-47.5 12q-26 0 -42 -5t-26.5 -11t-13.5 -6q-10 0 -26 22.5t-16 35.5q0 12 21.5 25t54 21.5t63.5 8.5q35 0 72 -12 t63 -40t26 -73q0 -53 -33 -100t-73.5 -77t-54.5 -30q-15 0 -37 9.5z" />
<glyph unicode="&#x1b0;" horiz-adv-x="990" d="M981 920q-47 -43 -143 -45v-612q0 -116 10 -167.5t10 -56.5q0 -22 -33 -31.5t-62 -9.5q-25 0 -37 28.5t-17.5 58.5t-7.5 38q-56 -63 -129.5 -98t-148.5 -35q-136 0 -213 76.5t-77 211.5v616q0 39 72 39h7q71 0 71 -39v-602q0 -82 47.5 -127.5t133.5 -45.5q60 0 120 33.5 t104 91.5v650q0 39 71 39h63q53 0 75.5 17.5t22.5 42.5q3 24 -6 43t-26 41q-13 19 -15 25q0 19 15 29l43 29q10 7 22 7q19 0 36.5 -21.5t28 -53t10.5 -57.5q0 -72 -47 -115z" />
<glyph unicode="&#x1ee9;" horiz-adv-x="990" d="M424 1058q0 12 18 46t86 152q14 24 40.5 35t69.5 11q45 0 65 -5t20 -19q0 -9 -8 -21t-38.5 -47t-77.5 -89l-43 -49q-14 -15 -38 -23t-53 -8q-41 0 -41 17zM981 920q-47 -43 -143 -45v-612q0 -116 10 -167.5t10 -56.5q0 -22 -33 -31.5t-62 -9.5q-25 0 -37 28.5t-17.5 58.5 t-7.5 38q-56 -63 -129.5 -98t-148.5 -35q-136 0 -213 76.5t-77 211.5v616q0 39 72 39h7q71 0 71 -39v-602q0 -82 47.5 -127.5t133.5 -45.5q60 0 120 33.5t104 91.5v650q0 39 71 39h63q53 0 75.5 17.5t22.5 42.5q3 24 -6 43t-26 41q-13 19 -15 25q0 19 15 29l43 29q10 7 22 7 q19 0 36.5 -21.5t28 -53t10.5 -57.5q0 -72 -47 -115z" />
<glyph unicode="&#x1ef1;" horiz-adv-x="990" d="M981 920q-47 -43 -143 -45v-612q0 -116 10 -167.5t10 -56.5q0 -22 -33 -31.5t-62 -9.5q-25 0 -37 28.5t-17.5 58.5t-7.5 38q-56 -63 -129.5 -98t-148.5 -35q-136 0 -213 76.5t-77 211.5v616q0 39 72 39h7q71 0 71 -39v-602q0 -82 47.5 -127.5t133.5 -45.5q60 0 120 33.5 t104 91.5v650q0 39 71 39h63q53 0 75.5 17.5t22.5 42.5q3 24 -6 43t-26 41q-13 19 -15 25q0 19 15 29l43 29q10 7 22 7q19 0 36.5 -21.5t28 -53t10.5 -57.5q0 -72 -47 -115zM526 -182v-90q0 -39 -78 -39q-72 0 -72 39v90q0 40 79 40q71 0 71 -40z" />
<glyph unicode="&#x1eeb;" horiz-adv-x="990" d="M492.5 1049q-23.5 8 -38.5 23l-72 82q-65 74 -80.5 93.5t-15.5 30.5q0 14 20.5 19t65.5 5q43 0 69 -10.5t41 -35.5q65 -113 84 -149.5t19 -48.5q0 -9 -9.5 -13t-31.5 -4q-28 0 -51.5 8zM981 920q-47 -43 -143 -45v-612q0 -116 10 -167.5t10 -56.5q0 -22 -33 -31.5 t-62 -9.5q-25 0 -37 28.5t-17.5 58.5t-7.5 38q-56 -63 -129.5 -98t-148.5 -35q-136 0 -213 76.5t-77 211.5v616q0 39 72 39h7q71 0 71 -39v-602q0 -82 47.5 -127.5t133.5 -45.5q60 0 120 33.5t104 91.5v650q0 39 71 39h63q53 0 75.5 17.5t22.5 42.5q3 24 -6 43t-26 41 q-13 19 -15 25q0 19 15 29l43 29q10 7 22 7q19 0 36.5 -21.5t28 -53t10.5 -57.5q0 -72 -47 -115z" />
<glyph unicode="&#x1eed;" horiz-adv-x="990" d="M386 1242.5q-16 22.5 -16 35.5q0 12 21.5 25t54 21.5t63.5 8.5q35 0 72 -12t63 -40t26 -73q0 -53 -33 -100t-73.5 -77t-54.5 -30q-15 0 -37 9.5t-22 20.5q0 15 10.5 27.5t33.5 31.5q31 25 48.5 48.5t17.5 56.5q0 23 -18.5 35t-47.5 12q-26 0 -41.5 -5t-26.5 -11t-14 -6 q-10 0 -26 22.5zM981 920q-47 -43 -143 -45v-612q0 -116 10 -167.5t10 -56.5q0 -22 -33 -31.5t-62 -9.5q-25 0 -37 28.5t-17.5 58.5t-7.5 38q-56 -63 -129.5 -98t-148.5 -35q-136 0 -213 76.5t-77 211.5v616q0 39 72 39h7q71 0 71 -39v-602q0 -82 47.5 -127.5t133.5 -45.5 q60 0 120 33.5t104 91.5v650q0 39 71 39h63q53 0 75.5 17.5t22.5 42.5q3 24 -6 43t-26 41q-13 19 -15 25q0 19 15 29l43 29q10 7 22 7q19 0 36.5 -21.5t28 -53t10.5 -57.5q0 -72 -47 -115z" />
<glyph unicode="&#x1eef;" horiz-adv-x="990" d="M201 1081q0 12 5 23q25 66 61.5 94.5t88.5 28.5q33 0 68 -10.5t86 -30.5q43 -18 72 -27t54 -9q22 0 38 11.5t33 40.5q8 14 15.5 20t16.5 6q6 0 16 -5l12 -5q11 -4 15.5 -9t4.5 -13q0 -10 -7 -24q-25 -65 -61 -93t-87 -28q-35 0 -69.5 10t-91.5 32q-46 18 -73.5 26.5 t-51.5 8.5q-20 0 -35.5 -12.5t-31.5 -41.5q-8 -14 -15 -20t-15 -6q-4 0 -16 5l-17 7q-15 7 -15 21zM981 920q-47 -43 -143 -45v-612q0 -116 10 -167.5t10 -56.5q0 -22 -33 -31.5t-62 -9.5q-25 0 -37 28.5t-17.5 58.5t-7.5 38q-56 -63 -129.5 -98t-148.5 -35 q-136 0 -213 76.5t-77 211.5v616q0 39 72 39h7q71 0 71 -39v-602q0 -82 47.5 -127.5t133.5 -45.5q60 0 120 33.5t104 91.5v650q0 39 71 39h63q53 0 75.5 17.5t22.5 42.5q3 24 -6 43t-26 41q-13 19 -15 25q0 19 15 29l43 29q10 7 22 7q19 0 36.5 -21.5t28 -53t10.5 -57.5 q0 -72 -47 -115z" />
<glyph unicode="&#x171;" horiz-adv-x="990" d="M133 0zM210 66.5q-77 76.5 -77 211.5v616q0 39 72 39h7q71 0 71 -39v-602q0 -82 47.5 -127.5t133.5 -45.5q60 0 120 33.5t104 91.5v650q0 39 71 39h7q72 0 72 -39v-631q0 -116 10 -167.5t10 -56.5q0 -22 -33 -31.5t-62 -9.5q-25 0 -37 28.5t-17.5 58.5t-7.5 38 q-56 -63 -129.5 -98t-148.5 -35q-136 0 -213 76.5zM297 1058q0 12 19 48.5t84 149.5q15 25 41 35.5t70 10.5t64.5 -5t20.5 -19q0 -8 -7 -19.5t-33 -42t-67 -76.5l-60 -68q-30 -31 -91 -31q-41 0 -41 17zM568.5 1045q-9.5 4 -9.5 13q0 13 20 51t82 147q15 25 41 35.5t70 10.5 t64.5 -5t20.5 -19q0 -8 -7 -19.5t-33 -42t-67 -76.5l-60 -68q-30 -31 -90 -31q-22 0 -31.5 4z" />
<glyph unicode="&#x16b;" horiz-adv-x="990" d="M133 0zM210 66.5q-77 76.5 -77 211.5v616q0 39 72 39h7q71 0 71 -39v-602q0 -82 47.5 -127.5t133.5 -45.5q60 0 120 33.5t104 91.5v650q0 39 71 39h7q72 0 72 -39v-631q0 -116 10 -167.5t10 -56.5q0 -22 -33 -31.5t-62 -9.5q-25 0 -37 28.5t-17.5 58.5t-7.5 38 q-56 -63 -129.5 -98t-148.5 -35q-136 0 -213 76.5zM270.5 1101q-8.5 13 -8.5 41v17q0 28 8.5 41t27.5 13h397q18 0 26 -13t8 -41v-17q0 -29 -8 -41.5t-26 -12.5h-397q-19 0 -27.5 13z" />
<glyph unicode="&#x173;" horiz-adv-x="990" d="M1047 -210q0 -56 -37 -77t-109 -21q-123 0 -166 58.5t-43 122.5q0 38 8.5 77.5t32.5 64.5q-11 14 -17 35.5t-9.5 43t-5.5 29.5q-56 -63 -129.5 -98t-148.5 -35q-136 0 -213 76.5t-77 211.5v616q0 39 72 39h7q71 0 71 -39v-602q0 -82 47.5 -127.5t133.5 -45.5 q60 0 120 33.5t104 91.5v650q0 39 71 39h7q72 0 72 -39v-631q0 -116 10 -167.5t10 -56.5q0 -19 -26 -29q-1 -6 -3.5 -16.5t-4.5 -17.5q-14 -40 -14 -69q0 -56 32.5 -73t78.5 -17q14 0 44 8q31 9 48 9q34 0 34 -44z" />
<glyph unicode="&#x16f;" horiz-adv-x="990" d="M133 0zM210 66.5q-77 76.5 -77 211.5v616q0 39 72 39h7q71 0 71 -39v-602q0 -82 47.5 -127.5t133.5 -45.5q60 0 120 33.5t104 91.5v650q0 39 71 39h7q72 0 72 -39v-631q0 -116 10 -167.5t10 -56.5q0 -22 -33 -31.5t-62 -9.5q-25 0 -37 28.5t-17.5 58.5t-7.5 38 q-56 -63 -129.5 -98t-148.5 -35q-136 0 -213 76.5zM419.5 1022.5q-34.5 19.5 -54.5 54t-20 75.5t20 76t54.5 55t75.5 20t75.5 -20t54.5 -55t20 -76t-20 -75.5t-54.5 -54t-75.5 -19.5t-75.5 19.5zM558 1090q26 25 26 62t-26 63t-63 26t-62 -25.5t-25 -63.5q0 -37 25 -62 t62 -25t63 25z" />
<glyph unicode="&#x169;" horiz-adv-x="990" d="M133 0zM210 66.5q-77 76.5 -77 211.5v616q0 39 72 39h7q71 0 71 -39v-602q0 -82 47.5 -127.5t133.5 -45.5q60 0 120 33.5t104 91.5v650q0 39 71 39h7q72 0 72 -39v-631q0 -116 10 -167.5t10 -56.5q0 -22 -33 -31.5t-62 -9.5q-25 0 -37 28.5t-17.5 58.5t-7.5 38 q-56 -63 -129.5 -98t-148.5 -35q-136 0 -213 76.5zM205 1060q-17 7 -17 21q0 12 6 23q28 66 67.5 94.5t96.5 28.5q36 0 74 -10.5t95 -30.5q47 -18 80 -27t60 -9q24 0 41.5 11.5t35.5 40.5q18 26 35 26q6 0 18 -5l14 -5q11 -4 16 -9t5 -13q0 -11 -8 -24q-28 -65 -67.5 -93 t-94.5 -28q-38 0 -76.5 10.5t-100.5 31.5q-49 18 -80 26.5t-57 8.5q-22 0 -39 -12.5t-36 -41.5q-9 -14 -16 -20t-16 -6q-6 0 -18 5z" />
<glyph unicode="v" horiz-adv-x="862" d="M329 25l-286 855q-6 18 -6 23q0 14 19 22t58 8h9q62 0 71 -28l181 -567q22 -66 51 -180l11 -42h8l12 53q22 105 41 165l183 571q9 28 73 28h5q67 0 67 -30q0 -10 -7 -24l-285 -854q-9 -28 -72 -28h-61q-63 0 -72 28z" />
<glyph unicode="w" horiz-adv-x="1328" d="M297 25l-234 843q-10 28 -10 35q0 30 82 30q64 0 71 -28l150 -569q4 -14 26 -114q5 -27 19 -89q20 123 44 205l147 565q7 30 70 30h12q61 0 70 -30l148 -565q24 -88 40 -173l5 -30q28 148 41 199l150 571q7 28 72 28q71 0 71 -30q0 -11 -5 -24l-239 -854q-6 -28 -70 -28 h-54q-63 0 -69 28l-143 564q-13 55 -26 138q-13 -87 -27 -137l-145 -565q-6 -28 -72 -28h-53q-65 0 -71 28z" />
<glyph unicode="&#x1e83;" horiz-adv-x="1328" d="M53 0zM297 25l-234 843q-10 28 -10 35q0 30 82 30q64 0 71 -28l150 -569q4 -14 26 -114q5 -27 19 -89q20 123 44 205l147 565q7 30 70 30h12q61 0 70 -30l148 -565q24 -88 40 -173l5 -30q28 148 41 199l150 571q7 28 72 28q71 0 71 -30q0 -11 -5 -24l-239 -854 q-6 -28 -70 -28h-54q-63 0 -69 28l-143 564q-13 55 -26 138q-13 -87 -27 -137l-145 -565q-6 -28 -72 -28h-53q-65 0 -71 28zM593 1058q0 12 18 46t86 152q14 24 40.5 35t69.5 11q45 0 65 -5t20 -19q0 -9 -8 -21t-38.5 -47t-77.5 -89l-43 -49q-14 -15 -38 -23t-53 -8 q-41 0 -41 17z" />
</font>
</defs>
</svg>
